solid CATIA STL
  facet normal -1.305263e-001  -0.000000e+000 -9.914448e-001
    outer loop
      vertex -1.224647e-015  0.000000e+000  2.000000e+001
      vertex  5.176381e+000  2.000000e+002  1.931852e+001
      vertex  5.176381e+000  0.000000e+000  1.931852e+001
    endloop
  endfacet
  facet normal -3.826832e-001  0.000000e+000 -9.238796e-001
    outer loop
      vertex  5.176381e+000  0.000000e+000  1.931852e+001
      vertex  5.176381e+000  2.000000e+002  1.931852e+001
      vertex  1.000000e+001  2.000000e+002  1.732051e+001
    endloop
  endfacet
  facet normal -3.826832e-001  -0.000000e+000 -9.238796e-001
    outer loop
      vertex  5.176381e+000  0.000000e+000  1.931852e+001
      vertex  1.000000e+001  2.000000e+002  1.732051e+001
      vertex  1.000000e+001  0.000000e+000  1.732051e+001
    endloop
  endfacet
  facet normal -6.087615e-001  0.000000e+000 -7.933533e-001
    outer loop
      vertex  1.000000e+001  0.000000e+000  1.732051e+001
      vertex  1.000000e+001  2.000000e+002  1.732051e+001
      vertex  1.414214e+001  2.000000e+002  1.414214e+001
    endloop
  endfacet
  facet normal -6.087615e-001  -0.000000e+000 -7.933533e-001
    outer loop
      vertex  1.000000e+001  0.000000e+000  1.732051e+001
      vertex  1.414214e+001  2.000000e+002  1.414214e+001
      vertex  1.414214e+001  0.000000e+000  1.414214e+001
    endloop
  endfacet
  facet normal -7.933533e-001  0.000000e+000 -6.087615e-001
    outer loop
      vertex  1.414214e+001  0.000000e+000  1.414214e+001
      vertex  1.414214e+001  2.000000e+002  1.414214e+001
      vertex  1.732051e+001  2.000000e+002  1.000000e+001
    endloop
  endfacet
  facet normal -7.933533e-001  -0.000000e+000 -6.087615e-001
    outer loop
      vertex  1.414214e+001  0.000000e+000  1.414214e+001
      vertex  1.732051e+001  2.000000e+002  1.000000e+001
      vertex  1.732051e+001  0.000000e+000  1.000000e+001
    endloop
  endfacet
  facet normal -9.238796e-001  0.000000e+000 -3.826832e-001
    outer loop
      vertex  1.732051e+001  0.000000e+000  1.000000e+001
      vertex  1.732051e+001  2.000000e+002  1.000000e+001
      vertex  1.931852e+001  2.000000e+002  5.176381e+000
    endloop
  endfacet
  facet normal -9.238796e-001  -0.000000e+000 -3.826832e-001
    outer loop
      vertex  1.732051e+001  0.000000e+000  1.000000e+001
      vertex  1.931852e+001  2.000000e+002  5.176381e+000
      vertex  1.931852e+001  0.000000e+000  5.176381e+000
    endloop
  endfacet
  facet normal -9.914448e-001  0.000000e+000 -1.305263e-001
    outer loop
      vertex  1.931852e+001  0.000000e+000  5.176381e+000
      vertex  1.931852e+001  2.000000e+002  5.176381e+000
      vertex  2.000000e+001  2.000000e+002  2.449294e-015
    endloop
  endfacet
  facet normal -9.914448e-001  -0.000000e+000 -1.305263e-001
    outer loop
      vertex  1.931852e+001  0.000000e+000  5.176381e+000
      vertex  2.000000e+001  2.000000e+002  2.449294e-015
      vertex  2.000000e+001  0.000000e+000  2.449294e-015
    endloop
  endfacet
  facet normal -1.305263e-001  0.000000e+000 -9.914448e-001
    outer loop
      vertex  5.176381e+000  2.000000e+002  1.931852e+001
      vertex -1.224647e-015  0.000000e+000  2.000000e+001
      vertex -1.224647e-015  2.000000e+002  2.000000e+001
    endloop
  endfacet
  facet normal  1.305263e-001  0.000000e+000 -9.914448e-001
    outer loop
      vertex -1.224647e-015  2.000000e+002  2.000000e+001
      vertex -1.224647e-015  0.000000e+000  2.000000e+001
      vertex -5.176381e+000  0.000000e+000  1.931852e+001
    endloop
  endfacet
  facet normal  1.305263e-001  0.000000e+000 -9.914448e-001
    outer loop
      vertex -1.224647e-015  2.000000e+002  2.000000e+001
      vertex -5.176381e+000  0.000000e+000  1.931852e+001
      vertex -5.176381e+000  2.000000e+002  1.931852e+001
    endloop
  endfacet
  facet normal  3.826832e-001  0.000000e+000 -9.238796e-001
    outer loop
      vertex -5.176381e+000  2.000000e+002  1.931852e+001
      vertex -5.176381e+000  0.000000e+000  1.931852e+001
      vertex -1.000000e+001  0.000000e+000  1.732051e+001
    endloop
  endfacet
  facet normal  3.826832e-001  0.000000e+000 -9.238796e-001
    outer loop
      vertex -5.176381e+000  2.000000e+002  1.931852e+001
      vertex -1.000000e+001  0.000000e+000  1.732051e+001
      vertex -1.000000e+001  2.000000e+002  1.732051e+001
    endloop
  endfacet
  facet normal  6.087615e-001  0.000000e+000 -7.933533e-001
    outer loop
      vertex -1.000000e+001  2.000000e+002  1.732051e+001
      vertex -1.000000e+001  0.000000e+000  1.732051e+001
      vertex -1.414214e+001  0.000000e+000  1.414214e+001
    endloop
  endfacet
  facet normal  6.087615e-001  0.000000e+000 -7.933533e-001
    outer loop
      vertex -1.000000e+001  2.000000e+002  1.732051e+001
      vertex -1.414214e+001  0.000000e+000  1.414214e+001
      vertex -1.414214e+001  2.000000e+002  1.414214e+001
    endloop
  endfacet
  facet normal  7.933533e-001  0.000000e+000 -6.087615e-001
    outer loop
      vertex -1.414214e+001  2.000000e+002  1.414214e+001
      vertex -1.414214e+001  0.000000e+000  1.414214e+001
      vertex -1.732051e+001  0.000000e+000  1.000000e+001
    endloop
  endfacet
  facet normal  7.933533e-001  0.000000e+000 -6.087615e-001
    outer loop
      vertex -1.414214e+001  2.000000e+002  1.414214e+001
      vertex -1.732051e+001  0.000000e+000  1.000000e+001
      vertex -1.732051e+001  2.000000e+002  1.000000e+001
    endloop
  endfacet
  facet normal  9.238796e-001  0.000000e+000 -3.826832e-001
    outer loop
      vertex -1.732051e+001  2.000000e+002  1.000000e+001
      vertex -1.732051e+001  0.000000e+000  1.000000e+001
      vertex -1.931852e+001  0.000000e+000  5.176381e+000
    endloop
  endfacet
  facet normal  9.238796e-001  0.000000e+000 -3.826832e-001
    outer loop
      vertex -1.732051e+001  2.000000e+002  1.000000e+001
      vertex -1.931852e+001  0.000000e+000  5.176381e+000
      vertex -1.931852e+001  2.000000e+002  5.176381e+000
    endloop
  endfacet
  facet normal  9.914448e-001  0.000000e+000 -1.305263e-001
    outer loop
      vertex -1.931852e+001  2.000000e+002  5.176381e+000
      vertex -1.931852e+001  0.000000e+000  5.176381e+000
      vertex -2.000000e+001  0.000000e+000  0.000000e+000
    endloop
  endfacet
  facet normal  9.914448e-001  0.000000e+000 -1.305263e-001
    outer loop
      vertex -1.931852e+001  2.000000e+002  5.176381e+000
      vertex -2.000000e+001  0.000000e+000  0.000000e+000
      vertex -2.000000e+001  2.000000e+002  0.000000e+000
    endloop
  endfacet
  facet normal  1.305263e-001  0.000000e+000  9.914448e-001
    outer loop
      vertex  3.673940e-015  0.000000e+000 -2.000000e+001
      vertex -5.176381e+000  2.000000e+002 -1.931852e+001
      vertex -5.176381e+000  0.000000e+000 -1.931852e+001
    endloop
  endfacet
  facet normal  3.826832e-001  -0.000000e+000  9.238796e-001
    outer loop
      vertex -5.176381e+000  0.000000e+000 -1.931852e+001
      vertex -5.176381e+000  2.000000e+002 -1.931852e+001
      vertex -1.000000e+001  2.000000e+002 -1.732051e+001
    endloop
  endfacet
  facet normal  3.826832e-001  0.000000e+000  9.238796e-001
    outer loop
      vertex -5.176381e+000  0.000000e+000 -1.931852e+001
      vertex -1.000000e+001  2.000000e+002 -1.732051e+001
      vertex -1.000000e+001  0.000000e+000 -1.732051e+001
    endloop
  endfacet
  facet normal  6.087615e-001  -0.000000e+000  7.933533e-001
    outer loop
      vertex -1.000000e+001  0.000000e+000 -1.732051e+001
      vertex -1.000000e+001  2.000000e+002 -1.732051e+001
      vertex -1.414214e+001  2.000000e+002 -1.414214e+001
    endloop
  endfacet
  facet normal  6.087615e-001  0.000000e+000  7.933533e-001
    outer loop
      vertex -1.000000e+001  0.000000e+000 -1.732051e+001
      vertex -1.414214e+001  2.000000e+002 -1.414214e+001
      vertex -1.414214e+001  0.000000e+000 -1.414214e+001
    endloop
  endfacet
  facet normal  7.933533e-001  -0.000000e+000  6.087615e-001
    outer loop
      vertex -1.414214e+001  0.000000e+000 -1.414214e+001
      vertex -1.414214e+001  2.000000e+002 -1.414214e+001
      vertex -1.732051e+001  2.000000e+002 -1.000000e+001
    endloop
  endfacet
  facet normal  7.933533e-001  0.000000e+000  6.087615e-001
    outer loop
      vertex -1.414214e+001  0.000000e+000 -1.414214e+001
      vertex -1.732051e+001  2.000000e+002 -1.000000e+001
      vertex -1.732051e+001  0.000000e+000 -1.000000e+001
    endloop
  endfacet
  facet normal  9.238796e-001  -0.000000e+000  3.826832e-001
    outer loop
      vertex -1.732051e+001  0.000000e+000 -1.000000e+001
      vertex -1.732051e+001  2.000000e+002 -1.000000e+001
      vertex -1.931852e+001  2.000000e+002 -5.176381e+000
    endloop
  endfacet
  facet normal  9.238796e-001  0.000000e+000  3.826832e-001
    outer loop
      vertex -1.732051e+001  0.000000e+000 -1.000000e+001
      vertex -1.931852e+001  2.000000e+002 -5.176381e+000
      vertex -1.931852e+001  0.000000e+000 -5.176381e+000
    endloop
  endfacet
  facet normal  9.914448e-001  -0.000000e+000  1.305263e-001
    outer loop
      vertex -1.931852e+001  0.000000e+000 -5.176381e+000
      vertex -1.931852e+001  2.000000e+002 -5.176381e+000
      vertex -2.000000e+001  2.000000e+002  0.000000e+000
    endloop
  endfacet
  facet normal  9.914448e-001  0.000000e+000  1.305263e-001
    outer loop
      vertex -1.931852e+001  0.000000e+000 -5.176381e+000
      vertex -2.000000e+001  2.000000e+002  0.000000e+000
      vertex -2.000000e+001  0.000000e+000  0.000000e+000
    endloop
  endfacet
  facet normal  1.305263e-001  -0.000000e+000  9.914448e-001
    outer loop
      vertex -5.176381e+000  2.000000e+002 -1.931852e+001
      vertex  3.673940e-015  0.000000e+000 -2.000000e+001
      vertex  3.673940e-015  2.000000e+002 -2.000000e+001
    endloop
  endfacet
  facet normal -1.305263e-001  0.000000e+000  9.914448e-001
    outer loop
      vertex  3.673940e-015  2.000000e+002 -2.000000e+001
      vertex  3.673940e-015  0.000000e+000 -2.000000e+001
      vertex  5.176381e+000  0.000000e+000 -1.931852e+001
    endloop
  endfacet
  facet normal -1.305263e-001  0.000000e+000  9.914448e-001
    outer loop
      vertex  3.673940e-015  2.000000e+002 -2.000000e+001
      vertex  5.176381e+000  0.000000e+000 -1.931852e+001
      vertex  5.176381e+000  2.000000e+002 -1.931852e+001
    endloop
  endfacet
  facet normal -3.826832e-001  0.000000e+000  9.238796e-001
    outer loop
      vertex  5.176381e+000  2.000000e+002 -1.931852e+001
      vertex  5.176381e+000  0.000000e+000 -1.931852e+001
      vertex  1.000000e+001  0.000000e+000 -1.732051e+001
    endloop
  endfacet
  facet normal -3.826832e-001  0.000000e+000  9.238796e-001
    outer loop
      vertex  5.176381e+000  2.000000e+002 -1.931852e+001
      vertex  1.000000e+001  0.000000e+000 -1.732051e+001
      vertex  1.000000e+001  2.000000e+002 -1.732051e+001
    endloop
  endfacet
  facet normal -6.087615e-001  0.000000e+000  7.933533e-001
    outer loop
      vertex  1.000000e+001  2.000000e+002 -1.732051e+001
      vertex  1.000000e+001  0.000000e+000 -1.732051e+001
      vertex  1.414214e+001  0.000000e+000 -1.414214e+001
    endloop
  endfacet
  facet normal -6.087615e-001  0.000000e+000  7.933533e-001
    outer loop
      vertex  1.000000e+001  2.000000e+002 -1.732051e+001
      vertex  1.414214e+001  0.000000e+000 -1.414214e+001
      vertex  1.414214e+001  2.000000e+002 -1.414214e+001
    endloop
  endfacet
  facet normal -7.933533e-001  0.000000e+000  6.087615e-001
    outer loop
      vertex  1.414214e+001  2.000000e+002 -1.414214e+001
      vertex  1.414214e+001  0.000000e+000 -1.414214e+001
      vertex  1.732051e+001  0.000000e+000 -1.000000e+001
    endloop
  endfacet
  facet normal -7.933533e-001  0.000000e+000  6.087615e-001
    outer loop
      vertex  1.414214e+001  2.000000e+002 -1.414214e+001
      vertex  1.732051e+001  0.000000e+000 -1.000000e+001
      vertex  1.732051e+001  2.000000e+002 -1.000000e+001
    endloop
  endfacet
  facet normal -9.238796e-001  0.000000e+000  3.826832e-001
    outer loop
      vertex  1.732051e+001  2.000000e+002 -1.000000e+001
      vertex  1.732051e+001  0.000000e+000 -1.000000e+001
      vertex  1.931852e+001  0.000000e+000 -5.176381e+000
    endloop
  endfacet
  facet normal -9.238796e-001  0.000000e+000  3.826832e-001
    outer loop
      vertex  1.732051e+001  2.000000e+002 -1.000000e+001
      vertex  1.931852e+001  0.000000e+000 -5.176381e+000
      vertex  1.931852e+001  2.000000e+002 -5.176381e+000
    endloop
  endfacet
  facet normal -9.914448e-001  0.000000e+000  1.305263e-001
    outer loop
      vertex  1.931852e+001  2.000000e+002 -5.176381e+000
      vertex  1.931852e+001  0.000000e+000 -5.176381e+000
      vertex  2.000000e+001  0.000000e+000  2.449294e-015
    endloop
  endfacet
  facet normal -9.914448e-001  0.000000e+000  1.305263e-001
    outer loop
      vertex  1.931852e+001  2.000000e+002 -5.176381e+000
      vertex  2.000000e+001  0.000000e+000  2.449294e-015
      vertex  2.000000e+001  2.000000e+002  2.449294e-015
    endloop
  endfacet
  facet normal  0.000000e+000  1.000000e+000  -0.000000e+000
    outer loop
      vertex -1.224647e-015  2.000000e+002  2.000000e+001
      vertex -5.176381e+000  2.000000e+002  1.931852e+001
      vertex -2.345494e+001  2.000000e+002  1.870469e+001
    endloop
  endfacet
  facet normal  0.000000e+000  1.000000e+000  0.000000e+000
    outer loop
      vertex -1.224647e-015  2.000000e+002  2.000000e+001
      vertex -2.345494e+001  2.000000e+002  1.870469e+001
      vertex -1.870469e+001  2.000000e+002  2.345494e+001
    endloop
  endfacet
  facet normal  -0.000000e+000  1.000000e+000  0.000000e+000
    outer loop
      vertex -1.224647e-015  2.000000e+002  2.000000e+001
      vertex -1.870469e+001  2.000000e+002  2.345494e+001
      vertex -1.301651e+001  2.000000e+002  2.702907e+001
    endloop
  endfacet
  facet normal  -0.000000e+000  1.000000e+000  0.000000e+000
    outer loop
      vertex -1.224647e-015  2.000000e+002  2.000000e+001
      vertex -1.301651e+001  2.000000e+002  2.702907e+001
      vertex -6.675628e+000  2.000000e+002  2.924784e+001
    endloop
  endfacet
  facet normal  -0.000000e+000  1.000000e+000  0.000000e+000
    outer loop
      vertex -1.224647e-015  2.000000e+002  2.000000e+001
      vertex -6.675628e+000  2.000000e+002  2.924784e+001
      vertex -1.836970e-015  2.000000e+002  3.000000e+001
    endloop
  endfacet
  facet normal  0.000000e+000  1.000000e+000  0.000000e+000
    outer loop
      vertex -1.224647e-015  2.000000e+002  2.000000e+001
      vertex -1.836970e-015  2.000000e+002  3.000000e+001
      vertex  6.675628e+000  2.000000e+002  2.924784e+001
    endloop
  endfacet
  facet normal  0.000000e+000  1.000000e+000  0.000000e+000
    outer loop
      vertex -1.224647e-015  2.000000e+002  2.000000e+001
      vertex  6.675628e+000  2.000000e+002  2.924784e+001
      vertex  1.301651e+001  2.000000e+002  2.702907e+001
    endloop
  endfacet
  facet normal  0.000000e+000  1.000000e+000  0.000000e+000
    outer loop
      vertex -1.224647e-015  2.000000e+002  2.000000e+001
      vertex  1.301651e+001  2.000000e+002  2.702907e+001
      vertex  1.870469e+001  2.000000e+002  2.345494e+001
    endloop
  endfacet
  facet normal  0.000000e+000  1.000000e+000  0.000000e+000
    outer loop
      vertex -1.224647e-015  2.000000e+002  2.000000e+001
      vertex  1.870469e+001  2.000000e+002  2.345494e+001
      vertex  2.345494e+001  2.000000e+002  1.870469e+001
    endloop
  endfacet
  facet normal  0.000000e+000  1.000000e+000  0.000000e+000
    outer loop
      vertex -1.224647e-015  2.000000e+002  2.000000e+001
      vertex  2.345494e+001  2.000000e+002  1.870469e+001
      vertex  5.176381e+000  2.000000e+002  1.931852e+001
    endloop
  endfacet
  facet normal  0.000000e+000  1.000000e+000  0.000000e+000
    outer loop
      vertex  5.176381e+000  2.000000e+002  1.931852e+001
      vertex  2.345494e+001  2.000000e+002  1.870469e+001
      vertex  1.000000e+001  2.000000e+002  1.732051e+001
    endloop
  endfacet
  facet normal  -0.000000e+000  1.000000e+000  0.000000e+000
    outer loop
      vertex  1.000000e+001  2.000000e+002  1.732051e+001
      vertex  2.345494e+001  2.000000e+002  1.870469e+001
      vertex  2.702907e+001  2.000000e+002  1.301651e+001
    endloop
  endfacet
  facet normal  0.000000e+000  1.000000e+000  0.000000e+000
    outer loop
      vertex  1.000000e+001  2.000000e+002  1.732051e+001
      vertex  2.702907e+001  2.000000e+002  1.301651e+001
      vertex  1.414214e+001  2.000000e+002  1.414214e+001
    endloop
  endfacet
  facet normal  0.000000e+000  1.000000e+000  0.000000e+000
    outer loop
      vertex  1.414214e+001  2.000000e+002  1.414214e+001
      vertex  2.702907e+001  2.000000e+002  1.301651e+001
      vertex  1.732051e+001  2.000000e+002  1.000000e+001
    endloop
  endfacet
  facet normal  -0.000000e+000  1.000000e+000  0.000000e+000
    outer loop
      vertex  1.732051e+001  2.000000e+002  1.000000e+001
      vertex  2.702907e+001  2.000000e+002  1.301651e+001
      vertex  2.924784e+001  2.000000e+002  6.675628e+000
    endloop
  endfacet
  facet normal  0.000000e+000  1.000000e+000  0.000000e+000
    outer loop
      vertex  1.732051e+001  2.000000e+002  1.000000e+001
      vertex  2.924784e+001  2.000000e+002  6.675628e+000
      vertex  1.931852e+001  2.000000e+002  5.176381e+000
    endloop
  endfacet
  facet normal  0.000000e+000  1.000000e+000  0.000000e+000
    outer loop
      vertex  1.931852e+001  2.000000e+002  5.176381e+000
      vertex  2.924784e+001  2.000000e+002  6.675628e+000
      vertex  2.000000e+001  2.000000e+002  2.449294e-015
    endloop
  endfacet
  facet normal  0.000000e+000  1.000000e+000  0.000000e+000
    outer loop
      vertex  2.000000e+001  2.000000e+002  2.449294e-015
      vertex  2.924784e+001  2.000000e+002  6.675628e+000
      vertex  3.000000e+001  2.000000e+002  3.673940e-015
    endloop
  endfacet
  facet normal  0.000000e+000  1.000000e+000  0.000000e+000
    outer loop
      vertex  2.000000e+001  2.000000e+002  2.449294e-015
      vertex  3.000000e+001  2.000000e+002  3.673940e-015
      vertex  1.931852e+001  2.000000e+002 -5.176381e+000
    endloop
  endfacet
  facet normal  -0.000000e+000  1.000000e+000  0.000000e+000
    outer loop
      vertex  1.931852e+001  2.000000e+002 -5.176381e+000
      vertex  3.000000e+001  2.000000e+002  3.673940e-015
      vertex  2.924784e+001  2.000000e+002 -6.675628e+000
    endloop
  endfacet
  facet normal  0.000000e+000  1.000000e+000  0.000000e+000
    outer loop
      vertex  1.931852e+001  2.000000e+002 -5.176381e+000
      vertex  2.924784e+001  2.000000e+002 -6.675628e+000
      vertex  1.732051e+001  2.000000e+002 -1.000000e+001
    endloop
  endfacet
  facet normal  -0.000000e+000  1.000000e+000  0.000000e+000
    outer loop
      vertex  1.732051e+001  2.000000e+002 -1.000000e+001
      vertex  2.924784e+001  2.000000e+002 -6.675628e+000
      vertex  2.702907e+001  2.000000e+002 -1.301651e+001
    endloop
  endfacet
  facet normal  0.000000e+000  1.000000e+000  0.000000e+000
    outer loop
      vertex  1.732051e+001  2.000000e+002 -1.000000e+001
      vertex  2.702907e+001  2.000000e+002 -1.301651e+001
      vertex  1.414214e+001  2.000000e+002 -1.414214e+001
    endloop
  endfacet
  facet normal  0.000000e+000  1.000000e+000  0.000000e+000
    outer loop
      vertex  1.414214e+001  2.000000e+002 -1.414214e+001
      vertex  2.702907e+001  2.000000e+002 -1.301651e+001
      vertex  1.000000e+001  2.000000e+002 -1.732051e+001
    endloop
  endfacet
  facet normal  -0.000000e+000  1.000000e+000  0.000000e+000
    outer loop
      vertex  1.000000e+001  2.000000e+002 -1.732051e+001
      vertex  2.702907e+001  2.000000e+002 -1.301651e+001
      vertex  2.345494e+001  2.000000e+002 -1.870469e+001
    endloop
  endfacet
  facet normal  0.000000e+000  1.000000e+000  0.000000e+000
    outer loop
      vertex  1.000000e+001  2.000000e+002 -1.732051e+001
      vertex  2.345494e+001  2.000000e+002 -1.870469e+001
      vertex  5.176381e+000  2.000000e+002 -1.931852e+001
    endloop
  endfacet
  facet normal  0.000000e+000  1.000000e+000  0.000000e+000
    outer loop
      vertex  5.176381e+000  2.000000e+002 -1.931852e+001
      vertex  2.345494e+001  2.000000e+002 -1.870469e+001
      vertex  3.673940e-015  2.000000e+002 -2.000000e+001
    endloop
  endfacet
  facet normal  -0.000000e+000  1.000000e+000  0.000000e+000
    outer loop
      vertex  3.673940e-015  2.000000e+002 -2.000000e+001
      vertex  2.345494e+001  2.000000e+002 -1.870469e+001
      vertex  1.870469e+001  2.000000e+002 -2.345494e+001
    endloop
  endfacet
  facet normal  0.000000e+000  1.000000e+000  0.000000e+000
    outer loop
      vertex  3.673940e-015  2.000000e+002 -2.000000e+001
      vertex  1.870469e+001  2.000000e+002 -2.345494e+001
      vertex  5.510911e-015  2.000000e+002 -3.000000e+001
    endloop
  endfacet
  facet normal  0.000000e+000  1.000000e+000  0.000000e+000
    outer loop
      vertex  5.510911e-015  2.000000e+002 -3.000000e+001
      vertex  1.870469e+001  2.000000e+002 -2.345494e+001
      vertex  1.301651e+001  2.000000e+002 -2.702907e+001
    endloop
  endfacet
  facet normal  0.000000e+000  1.000000e+000  0.000000e+000
    outer loop
      vertex  5.510911e-015  2.000000e+002 -3.000000e+001
      vertex  1.301651e+001  2.000000e+002 -2.702907e+001
      vertex  6.675628e+000  2.000000e+002 -2.924784e+001
    endloop
  endfacet
  facet normal  0.000000e+000  1.000000e+000  0.000000e+000
    outer loop
      vertex -2.345494e+001  2.000000e+002  1.870469e+001
      vertex -5.176381e+000  2.000000e+002  1.931852e+001
      vertex -2.702907e+001  2.000000e+002  1.301651e+001
    endloop
  endfacet
  facet normal  0.000000e+000  1.000000e+000  0.000000e+000
    outer loop
      vertex -2.702907e+001  2.000000e+002  1.301651e+001
      vertex -5.176381e+000  2.000000e+002  1.931852e+001
      vertex -1.000000e+001  2.000000e+002  1.732051e+001
    endloop
  endfacet
  facet normal  0.000000e+000  1.000000e+000  0.000000e+000
    outer loop
      vertex -2.702907e+001  2.000000e+002  1.301651e+001
      vertex -1.000000e+001  2.000000e+002  1.732051e+001
      vertex -1.414214e+001  2.000000e+002  1.414214e+001
    endloop
  endfacet
  facet normal  0.000000e+000  9.999999e-001  0.000000e+000
    outer loop
      vertex -2.702907e+001  2.000000e+002  1.301651e+001
      vertex -1.414214e+001  2.000000e+002  1.414214e+001
      vertex -2.924784e+001  2.000000e+002  6.675628e+000
    endloop
  endfacet
  facet normal  0.000000e+000  9.999999e-001  0.000000e+000
    outer loop
      vertex -2.924784e+001  2.000000e+002  6.675628e+000
      vertex -1.414214e+001  2.000000e+002  1.414214e+001
      vertex -1.732051e+001  2.000000e+002  1.000000e+001
    endloop
  endfacet
  facet normal  0.000000e+000  1.000000e+000  0.000000e+000
    outer loop
      vertex -2.924784e+001  2.000000e+002  6.675628e+000
      vertex -1.732051e+001  2.000000e+002  1.000000e+001
      vertex -1.931852e+001  2.000000e+002  5.176381e+000
    endloop
  endfacet
  facet normal  0.000000e+000  1.000000e+000  0.000000e+000
    outer loop
      vertex -2.924784e+001  2.000000e+002  6.675628e+000
      vertex -1.931852e+001  2.000000e+002  5.176381e+000
      vertex -3.000000e+001  2.000000e+002  0.000000e+000
    endloop
  endfacet
  facet normal  0.000000e+000  1.000000e+000  0.000000e+000
    outer loop
      vertex -3.000000e+001  2.000000e+002  0.000000e+000
      vertex -1.931852e+001  2.000000e+002  5.176381e+000
      vertex -2.000000e+001  2.000000e+002  0.000000e+000
    endloop
  endfacet
  facet normal  0.000000e+000  1.000000e+000  0.000000e+000
    outer loop
      vertex -3.000000e+001  2.000000e+002  0.000000e+000
      vertex -2.000000e+001  2.000000e+002  0.000000e+000
      vertex -2.924784e+001  2.000000e+002 -6.675628e+000
    endloop
  endfacet
  facet normal  0.000000e+000  1.000000e+000  0.000000e+000
    outer loop
      vertex -2.924784e+001  2.000000e+002 -6.675628e+000
      vertex -2.000000e+001  2.000000e+002  0.000000e+000
      vertex -1.931852e+001  2.000000e+002 -5.176381e+000
    endloop
  endfacet
  facet normal  0.000000e+000  1.000000e+000  0.000000e+000
    outer loop
      vertex -2.924784e+001  2.000000e+002 -6.675628e+000
      vertex -1.931852e+001  2.000000e+002 -5.176381e+000
      vertex -2.702907e+001  2.000000e+002 -1.301651e+001
    endloop
  endfacet
  facet normal  0.000000e+000  1.000000e+000  0.000000e+000
    outer loop
      vertex -2.702907e+001  2.000000e+002 -1.301651e+001
      vertex -1.931852e+001  2.000000e+002 -5.176381e+000
      vertex -1.732051e+001  2.000000e+002 -1.000000e+001
    endloop
  endfacet
  facet normal  0.000000e+000  1.000000e+000  0.000000e+000
    outer loop
      vertex -2.702907e+001  2.000000e+002 -1.301651e+001
      vertex -1.732051e+001  2.000000e+002 -1.000000e+001
      vertex -1.414214e+001  2.000000e+002 -1.414214e+001
    endloop
  endfacet
  facet normal  0.000000e+000  1.000000e+000  0.000000e+000
    outer loop
      vertex -2.702907e+001  2.000000e+002 -1.301651e+001
      vertex -1.414214e+001  2.000000e+002 -1.414214e+001
      vertex -2.345494e+001  2.000000e+002 -1.870469e+001
    endloop
  endfacet
  facet normal  0.000000e+000  9.999999e-001  0.000000e+000
    outer loop
      vertex -2.345494e+001  2.000000e+002 -1.870469e+001
      vertex -1.414214e+001  2.000000e+002 -1.414214e+001
      vertex -1.000000e+001  2.000000e+002 -1.732051e+001
    endloop
  endfacet
  facet normal  0.000000e+000  1.000000e+000  0.000000e+000
    outer loop
      vertex -2.345494e+001  2.000000e+002 -1.870469e+001
      vertex -1.000000e+001  2.000000e+002 -1.732051e+001
      vertex -5.176381e+000  2.000000e+002 -1.931852e+001
    endloop
  endfacet
  facet normal  0.000000e+000  1.000000e+000  0.000000e+000
    outer loop
      vertex -2.345494e+001  2.000000e+002 -1.870469e+001
      vertex -5.176381e+000  2.000000e+002 -1.931852e+001
      vertex -1.870469e+001  2.000000e+002 -2.345494e+001
    endloop
  endfacet
  facet normal  0.000000e+000  1.000000e+000  0.000000e+000
    outer loop
      vertex -1.870469e+001  2.000000e+002 -2.345494e+001
      vertex -5.176381e+000  2.000000e+002 -1.931852e+001
      vertex  3.673940e-015  2.000000e+002 -2.000000e+001
    endloop
  endfacet
  facet normal  0.000000e+000  1.000000e+000  0.000000e+000
    outer loop
      vertex -1.870469e+001  2.000000e+002 -2.345494e+001
      vertex  3.673940e-015  2.000000e+002 -2.000000e+001
      vertex -1.301651e+001  2.000000e+002 -2.702907e+001
    endloop
  endfacet
  facet normal  -0.000000e+000  1.000000e+000  0.000000e+000
    outer loop
      vertex -1.301651e+001  2.000000e+002 -2.702907e+001
      vertex  3.673940e-015  2.000000e+002 -2.000000e+001
      vertex  5.510911e-015  2.000000e+002 -3.000000e+001
    endloop
  endfacet
  facet normal  0.000000e+000  1.000000e+000  0.000000e+000
    outer loop
      vertex -1.301651e+001  2.000000e+002 -2.702907e+001
      vertex  5.510911e-015  2.000000e+002 -3.000000e+001
      vertex -6.675628e+000  2.000000e+002 -2.924784e+001
    endloop
  endfacet
  facet normal  9.902929e-001 -9.902929e-002  9.753537e-002
    outer loop
      vertex -4.000000e+001 -2.000000e+002  2.266215e-014
      vertex -3.923141e+001 -2.000000e+002 -7.803613e+000
      vertex -2.000000e+001  0.000000e+000  0.000000e+000
    endloop
  endfacet
  facet normal  9.864827e-001 -9.992466e-002  1.298730e-001
    outer loop
      vertex -3.923141e+001 -2.000000e+002 -7.803613e+000
      vertex -1.931852e+001  0.000000e+000 -5.176381e+000
      vertex -2.000000e+001  0.000000e+000  0.000000e+000
    endloop
  endfacet
  facet normal -9.864827e-001 -9.992465e-002  1.298731e-001
    outer loop
      vertex  1.931852e+001  0.000000e+000 -5.176381e+000
      vertex  3.923141e+001 -2.000000e+002 -7.803613e+000
      vertex  2.000000e+001  0.000000e+000  2.449294e-015
    endloop
  endfacet
  facet normal -9.902929e-001 -9.902929e-002  9.753537e-002
    outer loop
      vertex  3.923141e+001 -2.000000e+002 -7.803613e+000
      vertex  4.000000e+001 -2.000000e+002  0.000000e+000
      vertex  2.000000e+001  0.000000e+000  2.449294e-015
    endloop
  endfacet
  facet normal  9.522766e-001 -9.860756e-002  2.888699e-001
    outer loop
      vertex -3.923141e+001 -2.000000e+002 -7.803613e+000
      vertex -3.695518e+001 -2.000000e+002 -1.530734e+001
      vertex -1.931852e+001  0.000000e+000 -5.176381e+000
    endloop
  endfacet
  facet normal  8.776231e-001 -9.860756e-002  4.690993e-001
    outer loop
      vertex -3.695518e+001 -2.000000e+002 -1.530734e+001
      vertex -3.325879e+001 -2.000000e+002 -2.222281e+001
      vertex -1.732051e+001  0.000000e+000 -1.000000e+001
    endloop
  endfacet
  facet normal  9.192163e-001 -1.003465e-001  3.807516e-001
    outer loop
      vertex -1.931852e+001  0.000000e+000 -5.176381e+000
      vertex -3.695518e+001 -2.000000e+002 -1.530734e+001
      vertex -1.732051e+001  0.000000e+000 -1.000000e+001
    endloop
  endfacet
  facet normal  7.692108e-001 -9.902929e-002  6.312750e-001
    outer loop
      vertex -3.325879e+001 -2.000000e+002 -2.222281e+001
      vertex -2.828427e+001 -2.000000e+002 -2.828427e+001
      vertex -1.414214e+001  0.000000e+000 -1.414214e+001
    endloop
  endfacet
  facet normal  7.893825e-001 -9.992465e-002  6.057146e-001
    outer loop
      vertex -1.732051e+001  0.000000e+000 -1.000000e+001
      vertex -3.325879e+001 -2.000000e+002 -2.222281e+001
      vertex -1.414214e+001  0.000000e+000 -1.414214e+001
    endloop
  endfacet
  facet normal  4.690993e-001 -9.860756e-002  8.776231e-001
    outer loop
      vertex -2.222281e+001 -2.000000e+002 -3.325879e+001
      vertex -1.530734e+001 -2.000000e+002 -3.695518e+001
      vertex -1.000000e+001  0.000000e+000 -1.732051e+001
    endloop
  endfacet
  facet normal  6.057146e-001 -9.992465e-002  7.893825e-001
    outer loop
      vertex -1.414214e+001  0.000000e+000 -1.414214e+001
      vertex -2.222281e+001 -2.000000e+002 -3.325879e+001
      vertex -1.000000e+001  0.000000e+000 -1.732051e+001
    endloop
  endfacet
  facet normal  2.888699e-001 -9.860756e-002  9.522766e-001
    outer loop
      vertex -1.530734e+001 -2.000000e+002 -3.695518e+001
      vertex -7.803613e+000 -2.000000e+002 -3.923141e+001
      vertex -5.176381e+000  0.000000e+000 -1.931852e+001
    endloop
  endfacet
  facet normal  3.807516e-001 -1.003465e-001  9.192163e-001
    outer loop
      vertex -1.000000e+001  0.000000e+000 -1.732051e+001
      vertex -1.530734e+001 -2.000000e+002 -3.695518e+001
      vertex -5.176381e+000  0.000000e+000 -1.931852e+001
    endloop
  endfacet
  facet normal  9.753537e-002 -9.902929e-002  9.902929e-001
    outer loop
      vertex -7.803613e+000 -2.000000e+002 -3.923141e+001
      vertex -4.287502e-014 -2.000000e+002 -4.000000e+001
      vertex  3.673940e-015  0.000000e+000 -2.000000e+001
    endloop
  endfacet
  facet normal  1.298731e-001 -9.992465e-002  9.864827e-001
    outer loop
      vertex -5.176381e+000  0.000000e+000 -1.931852e+001
      vertex -7.803613e+000 -2.000000e+002 -3.923141e+001
      vertex  3.673940e-015  0.000000e+000 -2.000000e+001
    endloop
  endfacet
  facet normal -2.888699e-001 -9.860756e-002  9.522766e-001
    outer loop
      vertex  7.803613e+000 -2.000000e+002 -3.923141e+001
      vertex  1.530734e+001 -2.000000e+002 -3.695518e+001
      vertex  5.176381e+000  0.000000e+000 -1.931852e+001
    endloop
  endfacet
  facet normal -1.298731e-001 -9.992465e-002  9.864827e-001
    outer loop
      vertex  3.673940e-015  0.000000e+000 -2.000000e+001
      vertex  7.803613e+000 -2.000000e+002 -3.923141e+001
      vertex  5.176381e+000  0.000000e+000 -1.931852e+001
    endloop
  endfacet
  facet normal -4.690993e-001 -9.860756e-002  8.776231e-001
    outer loop
      vertex  1.530734e+001 -2.000000e+002 -3.695518e+001
      vertex  2.222281e+001 -2.000000e+002 -3.325879e+001
      vertex  1.000000e+001  0.000000e+000 -1.732051e+001
    endloop
  endfacet
  facet normal -3.807516e-001 -1.003465e-001  9.192163e-001
    outer loop
      vertex  5.176381e+000  0.000000e+000 -1.931852e+001
      vertex  1.530734e+001 -2.000000e+002 -3.695518e+001
      vertex  1.000000e+001  0.000000e+000 -1.732051e+001
    endloop
  endfacet
  facet normal -6.312749e-001 -9.902928e-002  7.692106e-001
    outer loop
      vertex  2.222281e+001 -2.000000e+002 -3.325879e+001
      vertex  2.828427e+001 -2.000000e+002 -2.828427e+001
      vertex  1.414214e+001  0.000000e+000 -1.414214e+001
    endloop
  endfacet
  facet normal -6.057146e-001 -9.992465e-002  7.893825e-001
    outer loop
      vertex  1.000000e+001  0.000000e+000 -1.732051e+001
      vertex  2.222281e+001 -2.000000e+002 -3.325879e+001
      vertex  1.414214e+001  0.000000e+000 -1.414214e+001
    endloop
  endfacet
  facet normal -8.776231e-001 -9.860756e-002  4.690993e-001
    outer loop
      vertex  3.325879e+001 -2.000000e+002 -2.222281e+001
      vertex  3.695518e+001 -2.000000e+002 -1.530734e+001
      vertex  1.732051e+001  0.000000e+000 -1.000000e+001
    endloop
  endfacet
  facet normal -7.893825e-001 -9.992465e-002  6.057146e-001
    outer loop
      vertex  1.414214e+001  0.000000e+000 -1.414214e+001
      vertex  3.325879e+001 -2.000000e+002 -2.222281e+001
      vertex  1.732051e+001  0.000000e+000 -1.000000e+001
    endloop
  endfacet
  facet normal -9.522766e-001 -9.860756e-002  2.888699e-001
    outer loop
      vertex  3.695518e+001 -2.000000e+002 -1.530734e+001
      vertex  3.923141e+001 -2.000000e+002 -7.803613e+000
      vertex  1.931852e+001  0.000000e+000 -5.176381e+000
    endloop
  endfacet
  facet normal -9.192163e-001 -1.003465e-001  3.807516e-001
    outer loop
      vertex  1.732051e+001  0.000000e+000 -1.000000e+001
      vertex  3.695518e+001 -2.000000e+002 -1.530734e+001
      vertex  1.931852e+001  0.000000e+000 -5.176381e+000
    endloop
  endfacet
  facet normal  6.312749e-001 -9.902929e-002  7.692106e-001
    outer loop
      vertex -2.828427e+001 -2.000000e+002 -2.828427e+001
      vertex -2.222281e+001 -2.000000e+002 -3.325879e+001
      vertex -1.414214e+001  0.000000e+000 -1.414214e+001
    endloop
  endfacet
  facet normal -9.753537e-002 -9.902929e-002  9.902929e-001
    outer loop
      vertex -4.287502e-014 -2.000000e+002 -4.000000e+001
      vertex  7.803613e+000 -2.000000e+002 -3.923141e+001
      vertex  3.673940e-015  0.000000e+000 -2.000000e+001
    endloop
  endfacet
  facet normal -7.692108e-001 -9.902930e-002  6.312750e-001
    outer loop
      vertex  2.828427e+001 -2.000000e+002 -2.828427e+001
      vertex  3.325879e+001 -2.000000e+002 -2.222281e+001
      vertex  1.414214e+001  0.000000e+000 -1.414214e+001
    endloop
  endfacet
  facet normal -9.902929e-001 -9.902929e-002 -9.753537e-002
    outer loop
      vertex  4.000000e+001 -2.000000e+002  0.000000e+000
      vertex  3.923141e+001 -2.000000e+002  7.803613e+000
      vertex  2.000000e+001  0.000000e+000  2.449294e-015
    endloop
  endfacet
  facet normal -9.864827e-001 -9.992466e-002 -1.298730e-001
    outer loop
      vertex  3.923141e+001 -2.000000e+002  7.803613e+000
      vertex  1.931852e+001  0.000000e+000  5.176381e+000
      vertex  2.000000e+001  0.000000e+000  2.449294e-015
    endloop
  endfacet
  facet normal  9.864827e-001 -9.992465e-002 -1.298731e-001
    outer loop
      vertex -1.931852e+001  0.000000e+000  5.176381e+000
      vertex -3.923141e+001 -2.000000e+002  7.803613e+000
      vertex -2.000000e+001  0.000000e+000  0.000000e+000
    endloop
  endfacet
  facet normal  9.902929e-001 -9.902929e-002 -9.753537e-002
    outer loop
      vertex -3.923141e+001 -2.000000e+002  7.803613e+000
      vertex -4.000000e+001 -2.000000e+002  2.266215e-014
      vertex -2.000000e+001  0.000000e+000  0.000000e+000
    endloop
  endfacet
  facet normal -9.522766e-001 -9.860756e-002 -2.888699e-001
    outer loop
      vertex  3.923141e+001 -2.000000e+002  7.803613e+000
      vertex  3.695518e+001 -2.000000e+002  1.530734e+001
      vertex  1.931852e+001  0.000000e+000  5.176381e+000
    endloop
  endfacet
  facet normal -8.776231e-001 -9.860756e-002 -4.690993e-001
    outer loop
      vertex  3.695518e+001 -2.000000e+002  1.530734e+001
      vertex  3.325879e+001 -2.000000e+002  2.222281e+001
      vertex  1.732051e+001  0.000000e+000  1.000000e+001
    endloop
  endfacet
  facet normal -9.192163e-001 -1.003465e-001 -3.807516e-001
    outer loop
      vertex  1.931852e+001  0.000000e+000  5.176381e+000
      vertex  3.695518e+001 -2.000000e+002  1.530734e+001
      vertex  1.732051e+001  0.000000e+000  1.000000e+001
    endloop
  endfacet
  facet normal -7.692108e-001 -9.902929e-002 -6.312750e-001
    outer loop
      vertex  3.325879e+001 -2.000000e+002  2.222281e+001
      vertex  2.828427e+001 -2.000000e+002  2.828427e+001
      vertex  1.414214e+001  0.000000e+000  1.414214e+001
    endloop
  endfacet
  facet normal -7.893825e-001 -9.992465e-002 -6.057146e-001
    outer loop
      vertex  1.732051e+001  0.000000e+000  1.000000e+001
      vertex  3.325879e+001 -2.000000e+002  2.222281e+001
      vertex  1.414214e+001  0.000000e+000  1.414214e+001
    endloop
  endfacet
  facet normal -4.690993e-001 -9.860756e-002 -8.776231e-001
    outer loop
      vertex  2.222281e+001 -2.000000e+002  3.325879e+001
      vertex  1.530734e+001 -2.000000e+002  3.695518e+001
      vertex  1.000000e+001  0.000000e+000  1.732051e+001
    endloop
  endfacet
  facet normal -6.057146e-001 -9.992465e-002 -7.893825e-001
    outer loop
      vertex  1.414214e+001  0.000000e+000  1.414214e+001
      vertex  2.222281e+001 -2.000000e+002  3.325879e+001
      vertex  1.000000e+001  0.000000e+000  1.732051e+001
    endloop
  endfacet
  facet normal -2.888699e-001 -9.860756e-002 -9.522766e-001
    outer loop
      vertex  1.530734e+001 -2.000000e+002  3.695518e+001
      vertex  7.803613e+000 -2.000000e+002  3.923141e+001
      vertex  5.176381e+000  0.000000e+000  1.931852e+001
    endloop
  endfacet
  facet normal -3.807516e-001 -1.003465e-001 -9.192163e-001
    outer loop
      vertex  1.000000e+001  0.000000e+000  1.732051e+001
      vertex  1.530734e+001 -2.000000e+002  3.695518e+001
      vertex  5.176381e+000  0.000000e+000  1.931852e+001
    endloop
  endfacet
  facet normal -9.753537e-002 -9.902929e-002 -9.902929e-001
    outer loop
      vertex  7.803613e+000 -2.000000e+002  3.923141e+001
      vertex  1.133108e-014 -2.000000e+002  4.000000e+001
      vertex -1.224647e-015  0.000000e+000  2.000000e+001
    endloop
  endfacet
  facet normal -1.298731e-001 -9.992465e-002 -9.864827e-001
    outer loop
      vertex  5.176381e+000  0.000000e+000  1.931852e+001
      vertex  7.803613e+000 -2.000000e+002  3.923141e+001
      vertex -1.224647e-015  0.000000e+000  2.000000e+001
    endloop
  endfacet
  facet normal  2.888699e-001 -9.860756e-002 -9.522766e-001
    outer loop
      vertex -7.803613e+000 -2.000000e+002  3.923141e+001
      vertex -1.530734e+001 -2.000000e+002  3.695518e+001
      vertex -5.176381e+000  0.000000e+000  1.931852e+001
    endloop
  endfacet
  facet normal  1.298731e-001 -9.992465e-002 -9.864827e-001
    outer loop
      vertex -1.224647e-015  0.000000e+000  2.000000e+001
      vertex -7.803613e+000 -2.000000e+002  3.923141e+001
      vertex -5.176381e+000  0.000000e+000  1.931852e+001
    endloop
  endfacet
  facet normal  4.690993e-001 -9.860756e-002 -8.776231e-001
    outer loop
      vertex -1.530734e+001 -2.000000e+002  3.695518e+001
      vertex -2.222281e+001 -2.000000e+002  3.325879e+001
      vertex -1.000000e+001  0.000000e+000  1.732051e+001
    endloop
  endfacet
  facet normal  3.807516e-001 -1.003465e-001 -9.192163e-001
    outer loop
      vertex -5.176381e+000  0.000000e+000  1.931852e+001
      vertex -1.530734e+001 -2.000000e+002  3.695518e+001
      vertex -1.000000e+001  0.000000e+000  1.732051e+001
    endloop
  endfacet
  facet normal  6.312749e-001 -9.902928e-002 -7.692106e-001
    outer loop
      vertex -2.222281e+001 -2.000000e+002  3.325879e+001
      vertex -2.828427e+001 -2.000000e+002  2.828427e+001
      vertex -1.414214e+001  0.000000e+000  1.414214e+001
    endloop
  endfacet
  facet normal  6.057146e-001 -9.992465e-002 -7.893825e-001
    outer loop
      vertex -1.000000e+001  0.000000e+000  1.732051e+001
      vertex -2.222281e+001 -2.000000e+002  3.325879e+001
      vertex -1.414214e+001  0.000000e+000  1.414214e+001
    endloop
  endfacet
  facet normal  8.776231e-001 -9.860756e-002 -4.690993e-001
    outer loop
      vertex -3.325879e+001 -2.000000e+002  2.222281e+001
      vertex -3.695518e+001 -2.000000e+002  1.530734e+001
      vertex -1.732051e+001  0.000000e+000  1.000000e+001
    endloop
  endfacet
  facet normal  7.893825e-001 -9.992465e-002 -6.057146e-001
    outer loop
      vertex -1.414214e+001  0.000000e+000  1.414214e+001
      vertex -3.325879e+001 -2.000000e+002  2.222281e+001
      vertex -1.732051e+001  0.000000e+000  1.000000e+001
    endloop
  endfacet
  facet normal  9.522766e-001 -9.860756e-002 -2.888699e-001
    outer loop
      vertex -3.695518e+001 -2.000000e+002  1.530734e+001
      vertex -3.923141e+001 -2.000000e+002  7.803613e+000
      vertex -1.931852e+001  0.000000e+000  5.176381e+000
    endloop
  endfacet
  facet normal  9.192163e-001 -1.003465e-001 -3.807516e-001
    outer loop
      vertex -1.732051e+001  0.000000e+000  1.000000e+001
      vertex -3.695518e+001 -2.000000e+002  1.530734e+001
      vertex -1.931852e+001  0.000000e+000  5.176381e+000
    endloop
  endfacet
  facet normal -6.312749e-001 -9.902929e-002 -7.692106e-001
    outer loop
      vertex  2.828427e+001 -2.000000e+002  2.828427e+001
      vertex  2.222281e+001 -2.000000e+002  3.325879e+001
      vertex  1.414214e+001  0.000000e+000  1.414214e+001
    endloop
  endfacet
  facet normal  9.753537e-002 -9.902929e-002 -9.902929e-001
    outer loop
      vertex  1.133108e-014 -2.000000e+002  4.000000e+001
      vertex -7.803613e+000 -2.000000e+002  3.923141e+001
      vertex -1.224647e-015  0.000000e+000  2.000000e+001
    endloop
  endfacet
  facet normal  7.692108e-001 -9.902930e-002 -6.312750e-001
    outer loop
      vertex -2.828427e+001 -2.000000e+002  2.828427e+001
      vertex -3.325879e+001 -2.000000e+002  2.222281e+001
      vertex -1.414214e+001  0.000000e+000  1.414214e+001
    endloop
  endfacet
  facet normal  0.000000e+000 -1.000000e+000  0.000000e+000
    outer loop
      vertex  1.598757e+001 -2.000000e+002 -4.737507e+001
      vertex  2.397128e+001 -2.000000e+002 -4.387913e+001
      vertex  7.518086e+000 -2.000000e+002 -4.943155e+001
    endloop
  endfacet
  facet normal  0.000000e+000 -1.000000e+000  0.000000e+000
    outer loop
      vertex  7.518086e+000 -2.000000e+002 -4.943155e+001
      vertex  2.397128e+001 -2.000000e+002 -4.387913e+001
      vertex -4.287502e-014 -2.000000e+002 -4.000000e+001
    endloop
  endfacet
  facet normal  0.000000e+000 -1.000000e+000  -0.000000e+000
    outer loop
      vertex  7.518086e+000 -2.000000e+002 -4.943155e+001
      vertex -4.287502e-014 -2.000000e+002 -4.000000e+001
      vertex -1.179829e+000 -2.000000e+002 -4.998608e+001
    endloop
  endfacet
  facet normal  0.000000e+000 -1.000000e+000  0.000000e+000
    outer loop
      vertex -1.179829e+000 -2.000000e+002 -4.998608e+001
      vertex -4.287502e-014 -2.000000e+002 -4.000000e+001
      vertex -2.601480e+001 -2.000000e+002 -4.269930e+001
    endloop
  endfacet
  facet normal  0.000000e+000 -1.000000e+000  0.000000e+000
    outer loop
      vertex -1.179829e+000 -2.000000e+002 -4.998608e+001
      vertex -2.601480e+001 -2.000000e+002 -4.269930e+001
      vertex -9.841896e+000 -2.000000e+002 -4.902180e+001
    endloop
  endfacet
  facet normal  0.000000e+000 -1.000000e+000  0.000000e+000
    outer loop
      vertex -9.841896e+000 -2.000000e+002 -4.902180e+001
      vertex -2.601480e+001 -2.000000e+002 -4.269930e+001
      vertex -1.820492e+001 -2.000000e+002 -4.656802e+001
    endloop
  endfacet
  facet normal  0.000000e+000 -1.000000e+000  -0.000000e+000
    outer loop
      vertex  2.601480e+001 -2.000000e+002  4.269930e+001
      vertex  1.820492e+001 -2.000000e+002  4.656802e+001
      vertex  1.133108e-014 -2.000000e+002  4.000000e+001
    endloop
  endfacet
  facet normal  0.000000e+000 -1.000000e+000  0.000000e+000
    outer loop
      vertex  1.133108e-014 -2.000000e+002  4.000000e+001
      vertex  1.820492e+001 -2.000000e+002  4.656802e+001
      vertex  9.841896e+000 -2.000000e+002  4.902180e+001
    endloop
  endfacet
  facet normal  -0.000000e+000 -1.000000e+000  0.000000e+000
    outer loop
      vertex  1.133108e-014 -2.000000e+002  4.000000e+001
      vertex  9.841896e+000 -2.000000e+002  4.902180e+001
      vertex -7.518086e+000 -2.000000e+002  4.943155e+001
    endloop
  endfacet
  facet normal  0.000000e+000 -1.000000e+000  0.000000e+000
    outer loop
      vertex -7.518086e+000 -2.000000e+002  4.943155e+001
      vertex  9.841896e+000 -2.000000e+002  4.902180e+001
      vertex  1.179829e+000 -2.000000e+002  4.998608e+001
    endloop
  endfacet
  facet normal  0.000000e+000 -1.000000e+000  0.000000e+000
    outer loop
      vertex -7.518086e+000 -2.000000e+002  4.943155e+001
      vertex -1.598757e+001 -2.000000e+002  4.737507e+001
      vertex  1.133108e-014 -2.000000e+002  4.000000e+001
    endloop
  endfacet
  facet normal  0.000000e+000 -1.000000e+000  0.000000e+000
    outer loop
      vertex  1.133108e-014 -2.000000e+002  4.000000e+001
      vertex -1.598757e+001 -2.000000e+002  4.737507e+001
      vertex -2.397128e+001 -2.000000e+002  4.387913e+001
    endloop
  endfacet
  facet normal  0.000000e+000 -9.999999e-001  0.000000e+000
    outer loop
      vertex  1.133108e-014 -2.000000e+002  4.000000e+001
      vertex -2.397128e+001 -2.000000e+002  4.387913e+001
      vertex -7.803613e+000 -2.000000e+002  3.923141e+001
    endloop
  endfacet
  facet normal  -0.000000e+000 -1.000000e+000  0.000000e+000
    outer loop
      vertex -7.803613e+000 -2.000000e+002  3.923141e+001
      vertex -2.397128e+001 -2.000000e+002  4.387913e+001
      vertex -3.122663e+001 -2.000000e+002  3.904994e+001
    endloop
  endfacet
  facet normal  0.000000e+000 -1.000000e+000  0.000000e+000
    outer loop
      vertex -7.803613e+000 -2.000000e+002  3.923141e+001
      vertex -3.122663e+001 -2.000000e+002  3.904994e+001
      vertex -1.530734e+001 -2.000000e+002  3.695518e+001
    endloop
  endfacet
  facet normal  -0.000000e+000 -9.999999e-001  0.000000e+000
    outer loop
      vertex -1.530734e+001 -2.000000e+002  3.695518e+001
      vertex -3.122663e+001 -2.000000e+002  3.904994e+001
      vertex -3.753318e+001 -2.000000e+002  3.303423e+001
    endloop
  endfacet
  facet normal  0.000000e+000 -1.000000e+000  0.000000e+000
    outer loop
      vertex -1.530734e+001 -2.000000e+002  3.695518e+001
      vertex -3.753318e+001 -2.000000e+002  3.303423e+001
      vertex -2.222281e+001 -2.000000e+002  3.325879e+001
    endloop
  endfacet
  facet normal  0.000000e+000 -1.000000e+000  0.000000e+000
    outer loop
      vertex -2.222281e+001 -2.000000e+002  3.325879e+001
      vertex -3.753318e+001 -2.000000e+002  3.303423e+001
      vertex -2.828427e+001 -2.000000e+002  2.828427e+001
    endloop
  endfacet
  facet normal  -0.000000e+000 -1.000000e+000  0.000000e+000
    outer loop
      vertex -2.828427e+001 -2.000000e+002  2.828427e+001
      vertex -3.753318e+001 -2.000000e+002  3.303423e+001
      vertex -4.269930e+001 -2.000000e+002  2.601480e+001
    endloop
  endfacet
  facet normal  0.000000e+000 -1.000000e+000  0.000000e+000
    outer loop
      vertex -2.828427e+001 -2.000000e+002  2.828427e+001
      vertex -4.269930e+001 -2.000000e+002  2.601480e+001
      vertex -3.325879e+001 -2.000000e+002  2.222281e+001
    endloop
  endfacet
  facet normal  -0.000000e+000 -1.000000e+000  0.000000e+000
    outer loop
      vertex -3.325879e+001 -2.000000e+002  2.222281e+001
      vertex -4.269930e+001 -2.000000e+002  2.601480e+001
      vertex -4.656802e+001 -2.000000e+002  1.820492e+001
    endloop
  endfacet
  facet normal  0.000000e+000 -1.000000e+000  0.000000e+000
    outer loop
      vertex -3.325879e+001 -2.000000e+002  2.222281e+001
      vertex -4.656802e+001 -2.000000e+002  1.820492e+001
      vertex -3.695518e+001 -2.000000e+002  1.530734e+001
    endloop
  endfacet
  facet normal  0.000000e+000 -1.000000e+000  0.000000e+000
    outer loop
      vertex -3.695518e+001 -2.000000e+002  1.530734e+001
      vertex -4.656802e+001 -2.000000e+002  1.820492e+001
      vertex -3.923141e+001 -2.000000e+002  7.803613e+000
    endloop
  endfacet
  facet normal  0.000000e+000 -1.000000e+000  0.000000e+000
    outer loop
      vertex -3.923141e+001 -2.000000e+002  7.803613e+000
      vertex -4.656802e+001 -2.000000e+002  1.820492e+001
      vertex -4.902180e+001 -2.000000e+002  9.841896e+000
    endloop
  endfacet
  facet normal  0.000000e+000 -1.000000e+000  0.000000e+000
    outer loop
      vertex -3.923141e+001 -2.000000e+002  7.803613e+000
      vertex -4.902180e+001 -2.000000e+002  9.841896e+000
      vertex -4.000000e+001 -2.000000e+002  2.266215e-014
    endloop
  endfacet
  facet normal  0.000000e+000 -1.000000e+000  0.000000e+000
    outer loop
      vertex -4.000000e+001 -2.000000e+002  2.266215e-014
      vertex -4.902180e+001 -2.000000e+002  9.841896e+000
      vertex -4.998608e+001 -2.000000e+002  1.179829e+000
    endloop
  endfacet
  facet normal  0.000000e+000 -1.000000e+000  0.000000e+000
    outer loop
      vertex -4.000000e+001 -2.000000e+002  2.266215e-014
      vertex -4.998608e+001 -2.000000e+002  1.179829e+000
      vertex -3.923141e+001 -2.000000e+002 -7.803613e+000
    endloop
  endfacet
  facet normal  0.000000e+000 -1.000000e+000  0.000000e+000
    outer loop
      vertex -3.923141e+001 -2.000000e+002 -7.803613e+000
      vertex -4.998608e+001 -2.000000e+002  1.179829e+000
      vertex -4.943155e+001 -2.000000e+002 -7.518086e+000
    endloop
  endfacet
  facet normal  0.000000e+000 -1.000000e+000  0.000000e+000
    outer loop
      vertex -3.923141e+001 -2.000000e+002 -7.803613e+000
      vertex -4.943155e+001 -2.000000e+002 -7.518086e+000
      vertex -3.695518e+001 -2.000000e+002 -1.530734e+001
    endloop
  endfacet
  facet normal  -0.000000e+000 -1.000000e+000  0.000000e+000
    outer loop
      vertex -3.695518e+001 -2.000000e+002 -1.530734e+001
      vertex -4.943155e+001 -2.000000e+002 -7.518086e+000
      vertex -4.737507e+001 -2.000000e+002 -1.598757e+001
    endloop
  endfacet
  facet normal  0.000000e+000 -1.000000e+000  0.000000e+000
    outer loop
      vertex -3.695518e+001 -2.000000e+002 -1.530734e+001
      vertex -4.737507e+001 -2.000000e+002 -1.598757e+001
      vertex -3.325879e+001 -2.000000e+002 -2.222281e+001
    endloop
  endfacet
  facet normal  -0.000000e+000 -1.000000e+000  0.000000e+000
    outer loop
      vertex -3.325879e+001 -2.000000e+002 -2.222281e+001
      vertex -4.737507e+001 -2.000000e+002 -1.598757e+001
      vertex -4.387913e+001 -2.000000e+002 -2.397128e+001
    endloop
  endfacet
  facet normal  0.000000e+000 -1.000000e+000  0.000000e+000
    outer loop
      vertex -3.325879e+001 -2.000000e+002 -2.222281e+001
      vertex -4.387913e+001 -2.000000e+002 -2.397128e+001
      vertex -2.828427e+001 -2.000000e+002 -2.828427e+001
    endloop
  endfacet
  facet normal  -0.000000e+000 -1.000000e+000  0.000000e+000
    outer loop
      vertex -2.828427e+001 -2.000000e+002 -2.828427e+001
      vertex -4.387913e+001 -2.000000e+002 -2.397128e+001
      vertex -3.904994e+001 -2.000000e+002 -3.122663e+001
    endloop
  endfacet
  facet normal  0.000000e+000 -1.000000e+000  0.000000e+000
    outer loop
      vertex -2.828427e+001 -2.000000e+002 -2.828427e+001
      vertex -3.904994e+001 -2.000000e+002 -3.122663e+001
      vertex -2.222281e+001 -2.000000e+002 -3.325879e+001
    endloop
  endfacet
  facet normal  0.000000e+000 -1.000000e+000  0.000000e+000
    outer loop
      vertex -2.222281e+001 -2.000000e+002 -3.325879e+001
      vertex -3.904994e+001 -2.000000e+002 -3.122663e+001
      vertex -1.530734e+001 -2.000000e+002 -3.695518e+001
    endloop
  endfacet
  facet normal  -0.000000e+000 -1.000000e+000  0.000000e+000
    outer loop
      vertex -1.530734e+001 -2.000000e+002 -3.695518e+001
      vertex -3.904994e+001 -2.000000e+002 -3.122663e+001
      vertex -3.303423e+001 -2.000000e+002 -3.753318e+001
    endloop
  endfacet
  facet normal  0.000000e+000 -1.000000e+000  0.000000e+000
    outer loop
      vertex -1.530734e+001 -2.000000e+002 -3.695518e+001
      vertex -3.303423e+001 -2.000000e+002 -3.753318e+001
      vertex -7.803613e+000 -2.000000e+002 -3.923141e+001
    endloop
  endfacet
  facet normal  -0.000000e+000 -1.000000e+000  0.000000e+000
    outer loop
      vertex -7.803613e+000 -2.000000e+002 -3.923141e+001
      vertex -3.303423e+001 -2.000000e+002 -3.753318e+001
      vertex -2.601480e+001 -2.000000e+002 -4.269930e+001
    endloop
  endfacet
  facet normal  0.000000e+000 -9.999999e-001  0.000000e+000
    outer loop
      vertex -7.803613e+000 -2.000000e+002 -3.923141e+001
      vertex -2.601480e+001 -2.000000e+002 -4.269930e+001
      vertex -4.287502e-014 -2.000000e+002 -4.000000e+001
    endloop
  endfacet
  facet normal  0.000000e+000 -1.000000e+000  0.000000e+000
    outer loop
      vertex  2.601480e+001 -2.000000e+002  4.269930e+001
      vertex  1.133108e-014 -2.000000e+002  4.000000e+001
      vertex  3.303423e+001 -2.000000e+002  3.753318e+001
    endloop
  endfacet
  facet normal  0.000000e+000 -9.999999e-001  0.000000e+000
    outer loop
      vertex  3.303423e+001 -2.000000e+002  3.753318e+001
      vertex  1.133108e-014 -2.000000e+002  4.000000e+001
      vertex  7.803613e+000 -2.000000e+002  3.923141e+001
    endloop
  endfacet
  facet normal  0.000000e+000 -1.000000e+000  0.000000e+000
    outer loop
      vertex  3.303423e+001 -2.000000e+002  3.753318e+001
      vertex  7.803613e+000 -2.000000e+002  3.923141e+001
      vertex  1.530734e+001 -2.000000e+002  3.695518e+001
    endloop
  endfacet
  facet normal  0.000000e+000 -1.000000e+000  0.000000e+000
    outer loop
      vertex  3.303423e+001 -2.000000e+002  3.753318e+001
      vertex  1.530734e+001 -2.000000e+002  3.695518e+001
      vertex  3.904994e+001 -2.000000e+002  3.122663e+001
    endloop
  endfacet
  facet normal  0.000000e+000 -1.000000e+000  0.000000e+000
    outer loop
      vertex  3.904994e+001 -2.000000e+002  3.122663e+001
      vertex  1.530734e+001 -2.000000e+002  3.695518e+001
      vertex  2.222281e+001 -2.000000e+002  3.325879e+001
    endloop
  endfacet
  facet normal  0.000000e+000 -1.000000e+000  0.000000e+000
    outer loop
      vertex  3.904994e+001 -2.000000e+002  3.122663e+001
      vertex  2.222281e+001 -2.000000e+002  3.325879e+001
      vertex  4.387913e+001 -2.000000e+002  2.397128e+001
    endloop
  endfacet
  facet normal  0.000000e+000 -1.000000e+000  0.000000e+000
    outer loop
      vertex  4.387913e+001 -2.000000e+002  2.397128e+001
      vertex  2.222281e+001 -2.000000e+002  3.325879e+001
      vertex  2.828427e+001 -2.000000e+002  2.828427e+001
    endloop
  endfacet
  facet normal  0.000000e+000 -1.000000e+000  0.000000e+000
    outer loop
      vertex  4.387913e+001 -2.000000e+002  2.397128e+001
      vertex  2.828427e+001 -2.000000e+002  2.828427e+001
      vertex  3.325879e+001 -2.000000e+002  2.222281e+001
    endloop
  endfacet
  facet normal  0.000000e+000 -1.000000e+000  0.000000e+000
    outer loop
      vertex  4.387913e+001 -2.000000e+002  2.397128e+001
      vertex  3.325879e+001 -2.000000e+002  2.222281e+001
      vertex  4.737507e+001 -2.000000e+002  1.598757e+001
    endloop
  endfacet
  facet normal  -0.000000e+000 -1.000000e+000  0.000000e+000
    outer loop
      vertex  4.737507e+001 -2.000000e+002  1.598757e+001
      vertex  3.325879e+001 -2.000000e+002  2.222281e+001
      vertex  3.695518e+001 -2.000000e+002  1.530734e+001
    endloop
  endfacet
  facet normal  0.000000e+000 -1.000000e+000  0.000000e+000
    outer loop
      vertex  4.737507e+001 -2.000000e+002  1.598757e+001
      vertex  3.695518e+001 -2.000000e+002  1.530734e+001
      vertex  4.943155e+001 -2.000000e+002  7.518086e+000
    endloop
  endfacet
  facet normal  0.000000e+000 -1.000000e+000  0.000000e+000
    outer loop
      vertex  4.943155e+001 -2.000000e+002  7.518086e+000
      vertex  3.695518e+001 -2.000000e+002  1.530734e+001
      vertex  3.923141e+001 -2.000000e+002  7.803613e+000
    endloop
  endfacet
  facet normal  0.000000e+000 -1.000000e+000  0.000000e+000
    outer loop
      vertex  4.943155e+001 -2.000000e+002  7.518086e+000
      vertex  3.923141e+001 -2.000000e+002  7.803613e+000
      vertex  4.998608e+001 -2.000000e+002 -1.179829e+000
    endloop
  endfacet
  facet normal  0.000000e+000 -1.000000e+000  0.000000e+000
    outer loop
      vertex  4.998608e+001 -2.000000e+002 -1.179829e+000
      vertex  3.923141e+001 -2.000000e+002  7.803613e+000
      vertex  4.000000e+001 -2.000000e+002  0.000000e+000
    endloop
  endfacet
  facet normal  0.000000e+000 -1.000000e+000  0.000000e+000
    outer loop
      vertex  4.998608e+001 -2.000000e+002 -1.179829e+000
      vertex  4.000000e+001 -2.000000e+002  0.000000e+000
      vertex  4.902180e+001 -2.000000e+002 -9.841896e+000
    endloop
  endfacet
  facet normal  0.000000e+000 -1.000000e+000  0.000000e+000
    outer loop
      vertex  4.902180e+001 -2.000000e+002 -9.841896e+000
      vertex  4.000000e+001 -2.000000e+002  0.000000e+000
      vertex  3.923141e+001 -2.000000e+002 -7.803613e+000
    endloop
  endfacet
  facet normal  0.000000e+000 -1.000000e+000  0.000000e+000
    outer loop
      vertex  4.902180e+001 -2.000000e+002 -9.841896e+000
      vertex  3.923141e+001 -2.000000e+002 -7.803613e+000
      vertex  4.656802e+001 -2.000000e+002 -1.820492e+001
    endloop
  endfacet
  facet normal  0.000000e+000 -1.000000e+000  0.000000e+000
    outer loop
      vertex  4.656802e+001 -2.000000e+002 -1.820492e+001
      vertex  3.923141e+001 -2.000000e+002 -7.803613e+000
      vertex  3.695518e+001 -2.000000e+002 -1.530734e+001
    endloop
  endfacet
  facet normal  0.000000e+000 -1.000000e+000  0.000000e+000
    outer loop
      vertex  4.656802e+001 -2.000000e+002 -1.820492e+001
      vertex  3.695518e+001 -2.000000e+002 -1.530734e+001
      vertex  4.269930e+001 -2.000000e+002 -2.601480e+001
    endloop
  endfacet
  facet normal  0.000000e+000 -1.000000e+000  0.000000e+000
    outer loop
      vertex  4.269930e+001 -2.000000e+002 -2.601480e+001
      vertex  3.695518e+001 -2.000000e+002 -1.530734e+001
      vertex  3.325879e+001 -2.000000e+002 -2.222281e+001
    endloop
  endfacet
  facet normal  0.000000e+000 -1.000000e+000  -0.000000e+000
    outer loop
      vertex  4.269930e+001 -2.000000e+002 -2.601480e+001
      vertex  3.325879e+001 -2.000000e+002 -2.222281e+001
      vertex  2.828427e+001 -2.000000e+002 -2.828427e+001
    endloop
  endfacet
  facet normal  0.000000e+000 -1.000000e+000  0.000000e+000
    outer loop
      vertex  4.269930e+001 -2.000000e+002 -2.601480e+001
      vertex  2.828427e+001 -2.000000e+002 -2.828427e+001
      vertex  3.753318e+001 -2.000000e+002 -3.303423e+001
    endloop
  endfacet
  facet normal  -0.000000e+000 -1.000000e+000  0.000000e+000
    outer loop
      vertex  3.753318e+001 -2.000000e+002 -3.303423e+001
      vertex  2.828427e+001 -2.000000e+002 -2.828427e+001
      vertex  2.222281e+001 -2.000000e+002 -3.325879e+001
    endloop
  endfacet
  facet normal  0.000000e+000 -1.000000e+000  0.000000e+000
    outer loop
      vertex  3.753318e+001 -2.000000e+002 -3.303423e+001
      vertex  2.222281e+001 -2.000000e+002 -3.325879e+001
      vertex  3.122663e+001 -2.000000e+002 -3.904994e+001
    endloop
  endfacet
  facet normal  0.000000e+000 -1.000000e+000  0.000000e+000
    outer loop
      vertex  3.122663e+001 -2.000000e+002 -3.904994e+001
      vertex  2.222281e+001 -2.000000e+002 -3.325879e+001
      vertex  1.530734e+001 -2.000000e+002 -3.695518e+001
    endloop
  endfacet
  facet normal  0.000000e+000 -9.999999e-001  -0.000000e+000
    outer loop
      vertex  3.122663e+001 -2.000000e+002 -3.904994e+001
      vertex  1.530734e+001 -2.000000e+002 -3.695518e+001
      vertex  7.803613e+000 -2.000000e+002 -3.923141e+001
    endloop
  endfacet
  facet normal  0.000000e+000 -1.000000e+000  0.000000e+000
    outer loop
      vertex  7.803613e+000 -2.000000e+002 -3.923141e+001
      vertex -4.287502e-014 -2.000000e+002 -4.000000e+001
      vertex  3.122663e+001 -2.000000e+002 -3.904994e+001
    endloop
  endfacet
  facet normal  0.000000e+000 -1.000000e+000  0.000000e+000
    outer loop
      vertex  3.122663e+001 -2.000000e+002 -3.904994e+001
      vertex -4.287502e-014 -2.000000e+002 -4.000000e+001
      vertex  2.397128e+001 -2.000000e+002 -4.387913e+001
    endloop
  endfacet
  facet normal -8.283583e-001  9.912881e-002 -5.513584e-001
    outer loop
      vertex -2.632748e+001  0.000000e+000 -1.438277e+001
      vertex -3.904994e+001 -2.000000e+002 -3.122663e+001
      vertex -4.387913e+001 -2.000000e+002 -2.397128e+001
    endloop
  endfacet
  facet normal -8.155110e-001  9.988631e-002 -5.700566e-001
    outer loop
      vertex -2.632748e+001  0.000000e+000 -1.438277e+001
      vertex -2.255155e+001 -1.421085e-014 -1.978453e+001
      vertex -3.904994e+001 -2.000000e+002 -3.122663e+001
    endloop
  endfacet
  facet normal -7.200624e-001  9.869465e-002 -6.868549e-001
    outer loop
      vertex -2.255155e+001 -1.421085e-014 -1.978453e+001
      vertex -3.303423e+001 -2.000000e+002 -3.753318e+001
      vertex -3.904994e+001 -2.000000e+002 -3.122663e+001
    endloop
  endfacet
  facet normal -5.898595e-001  9.856749e-002 -8.014675e-001
    outer loop
      vertex -1.768721e+001 -1.421085e-014 -2.423144e+001
      vertex -2.601480e+001 -2.000000e+002 -4.269930e+001
      vertex -3.303423e+001 -2.000000e+002 -3.753318e+001
    endloop
  endfacet
  facet normal -6.713229e-001  1.003540e-001 -7.343397e-001
    outer loop
      vertex -1.768721e+001 -1.421085e-014 -2.423144e+001
      vertex -3.303423e+001 -2.000000e+002 -3.753318e+001
      vertex -2.255155e+001 -1.421085e-014 -1.978453e+001
    endloop
  endfacet
  facet normal -4.417169e-001  9.874766e-002 -8.917035e-001
    outer loop
      vertex -1.196923e+001 -1.421085e-014 -2.750886e+001
      vertex -1.820492e+001 -2.000000e+002 -4.656802e+001
      vertex -2.601480e+001 -2.000000e+002 -4.269930e+001
    endloop
  endfacet
  facet normal -4.947749e-001  1.003098e-001 -8.632125e-001
    outer loop
      vertex -1.196923e+001 -1.421085e-014 -2.750886e+001
      vertex -2.601480e+001 -2.000000e+002 -4.269930e+001
      vertex -1.768721e+001 -1.421085e-014 -2.423144e+001
    endloop
  endfacet
  facet normal -1.100943e-001  9.903202e-002 -9.889752e-001
    outer loop
      vertex -5.673587e+000 -1.421085e-014 -2.945862e+001
      vertex -1.179829e+000 -2.000000e+002 -4.998608e+001
      vertex -9.841896e+000 -2.000000e+002 -4.902180e+001
    endloop
  endfacet
  facet normal -2.943805e-001  9.911276e-002 -9.505349e-001
    outer loop
      vertex -5.673587e+000 -1.421085e-014 -2.945862e+001
      vertex -9.841896e+000 -2.000000e+002 -4.902180e+001
      vertex -1.196923e+001 -1.421085e-014 -2.750886e+001
    endloop
  endfacet
  facet normal -2.801361e-001  9.971949e-002 -9.547669e-001
    outer loop
      vertex -1.196923e+001 -1.421085e-014 -2.750886e+001
      vertex -9.841896e+000 -2.000000e+002 -4.902180e+001
      vertex -1.820492e+001 -2.000000e+002 -4.656802e+001
    endloop
  endfacet
  facet normal  6.331408e-002  9.865078e-002 -9.931059e-001
    outer loop
      vertex  8.958852e-001 -1.421085e-014 -2.998662e+001
      vertex  7.518086e+000 -2.000000e+002 -4.943155e+001
      vertex -1.179829e+000 -2.000000e+002 -4.998608e+001
    endloop
  endfacet
  facet normal -7.971135e-002  1.000035e-001 -9.917890e-001
    outer loop
      vertex  8.958852e-001 -1.421085e-014 -2.998662e+001
      vertex -1.179829e+000 -2.000000e+002 -4.998608e+001
      vertex -5.673587e+000 -1.421085e-014 -2.945862e+001
    endloop
  endfacet
  facet normal  2.348054e-001  9.857664e-002 -9.670310e-001
    outer loop
      vertex  7.422119e+000 -1.421085e-014 -2.906737e+001
      vertex  1.598757e+001 -2.000000e+002 -4.737507e+001
      vertex  7.518086e+000 -2.000000e+002 -4.943155e+001
    endloop
  endfacet
  facet normal  1.387728e-001  1.003829e-001 -9.852234e-001
    outer loop
      vertex  7.422119e+000 -1.421085e-014 -2.906737e+001
      vertex  7.518086e+000 -2.000000e+002 -4.943155e+001
      vertex  8.958852e-001 -1.421085e-014 -2.998662e+001
    endloop
  endfacet
  facet normal  3.991518e-001  9.880978e-002 -9.115452e-001
    outer loop
      vertex  1.359014e+001 -1.421085e-014 -2.674524e+001
      vertex  2.397128e+001 -2.000000e+002 -4.387913e+001
      vertex  1.598757e+001 -2.000000e+002 -4.737507e+001
    endloop
  endfacet
  facet normal  3.505614e-001  1.002505e-001 -9.311587e-001
    outer loop
      vertex  1.359014e+001 -1.421085e-014 -2.674524e+001
      vertex  1.598757e+001 -2.000000e+002 -4.737507e+001
      vertex  7.422119e+000 -1.421085e-014 -2.906737e+001
    endloop
  endfacet
  facet normal  6.868377e-001  9.894437e-002 -7.200444e-001
    outer loop
      vertex  1.910226e+001 -1.421085e-014 -2.313231e+001
      vertex  3.753318e+001 -2.000000e+002 -3.303423e+001
      vertex  3.122663e+001 -2.000000e+002 -3.904994e+001
    endloop
  endfacet
  facet normal  5.454808e-001  9.930289e-002 -8.322196e-001
    outer loop
      vertex  1.910226e+001 -1.421085e-014 -2.313231e+001
      vertex  3.122663e+001 -2.000000e+002 -3.904994e+001
      vertex  1.359014e+001 -1.421085e-014 -2.674524e+001
    endloop
  endfacet
  facet normal  5.513335e-001  9.957910e-002 -8.283209e-001
    outer loop
      vertex  1.359014e+001 -1.421085e-014 -2.674524e+001
      vertex  3.122663e+001 -2.000000e+002 -3.904994e+001
      vertex  2.397128e+001 -2.000000e+002 -4.387913e+001
    endloop
  endfacet
  facet normal  8.014637e-001  9.861606e-002 -5.898567e-001
    outer loop
      vertex  2.369244e+001 -1.421085e-014 -1.840294e+001
      vertex  4.269930e+001 -2.000000e+002 -2.601480e+001
      vertex  3.753318e+001 -2.000000e+002 -3.303423e+001
    endloop
  endfacet
  facet normal  7.139828e-001  1.001055e-001 -6.929701e-001
    outer loop
      vertex  2.369244e+001 -1.421085e-014 -1.840294e+001
      vertex  3.753318e+001 -2.000000e+002 -3.303423e+001
      vertex  1.910226e+001 -1.421085e-014 -2.313231e+001
    endloop
  endfacet
  facet normal  8.917171e-001  9.859495e-002 -4.417236e-001
    outer loop
      vertex  2.713916e+001 -1.421085e-014 -1.278539e+001
      vertex  4.656802e+001 -2.000000e+002 -1.820492e+001
      vertex  4.269930e+001 -2.000000e+002 -2.601480e+001
    endloop
  endfacet
  facet normal  8.480447e-001  1.003966e-001 -5.203276e-001
    outer loop
      vertex  2.713916e+001 -1.421085e-014 -1.278539e+001
      vertex  4.269930e+001 -2.000000e+002 -2.601480e+001
      vertex  2.369244e+001 -1.421085e-014 -1.840294e+001
    endloop
  endfacet
  facet normal  9.548471e-001  9.888104e-002 -2.801596e-001
    outer loop
      vertex  2.927605e+001 -1.421085e-014 -6.550774e+000
      vertex  4.902180e+001 -2.000000e+002 -9.841896e+000
      vertex  4.656802e+001 -2.000000e+002 -1.820492e+001
    endloop
  endfacet
  facet normal  9.412193e-001  1.001759e-001 -3.226005e-001
    outer loop
      vertex  2.927605e+001 -1.421085e-014 -6.550774e+000
      vertex  4.656802e+001 -2.000000e+002 -1.820492e+001
      vertex  2.713916e+001 -1.421085e-014 -1.278539e+001
    endloop
  endfacet
  facet normal  9.889339e-001  9.944778e-002 -1.100897e-001
    outer loop
      vertex  2.927605e+001 -1.421085e-014 -6.550774e+000
      vertex  4.998608e+001 -2.000000e+002 -1.179829e+000
      vertex  4.902180e+001 -2.000000e+002 -9.841896e+000
    endloop
  endfacet
  facet normal  9.669956e-001  9.894438e-002  2.347968e-001
    outer loop
      vertex  2.958430e+001 -1.421085e-014  4.976884e+000
      vertex  4.737507e+001 -2.000000e+002  1.598757e+001
      vertex  4.943155e+001 -2.000000e+002  7.518086e+000
    endloop
  endfacet
  facet normal  9.915891e-001  9.945399e-002  8.282419e-002
    outer loop
      vertex  3.000000e+001  0.000000e+000  3.673940e-015
      vertex  2.958430e+001 -1.421085e-014  4.976884e+000
      vertex  4.943155e+001 -2.000000e+002  7.518086e+000
    endloop
  endfacet
  facet normal  9.930846e-001  9.886584e-002  6.331272e-002
    outer loop
      vertex  3.000000e+001  0.000000e+000  3.673940e-015
      vertex  4.943155e+001 -2.000000e+002  7.518086e+000
      vertex  4.998608e+001 -2.000000e+002 -1.179829e+000
    endloop
  endfacet
  facet normal  9.890187e-001  9.947780e-002 -1.092994e-001
    outer loop
      vertex  3.000000e+001  0.000000e+000  3.673940e-015
      vertex  4.998608e+001 -2.000000e+002 -1.179829e+000
      vertex  2.927605e+001 -1.421085e-014 -6.550774e+000
    endloop
  endfacet
  facet normal  9.099361e-001  9.916183e-002  4.027199e-001
    outer loop
      vertex  2.632748e+001  0.000000e+000  1.438277e+001
      vertex  4.387913e+001 -2.000000e+002  2.397128e+001
      vertex  2.834871e+001 -1.421085e-014  9.815841e+000
    endloop
  endfacet
  facet normal  9.115248e-001  9.903201e-002  3.991429e-001
    outer loop
      vertex  2.834871e+001 -1.421085e-014  9.815841e+000
      vertex  4.387913e+001 -2.000000e+002  2.397128e+001
      vertex  4.737507e+001 -2.000000e+002  1.598757e+001
    endloop
  endfacet
  facet normal  9.641221e-001  9.931549e-002  2.461808e-001
    outer loop
      vertex  2.834871e+001 -1.421085e-014  9.815841e+000
      vertex  4.737507e+001 -2.000000e+002  1.598757e+001
      vertex  2.958430e+001 -1.421085e-014  4.976884e+000
    endloop
  endfacet
  facet normal  8.283583e-001  9.912881e-002  5.513584e-001
    outer loop
      vertex  2.632748e+001  0.000000e+000  1.438277e+001
      vertex  3.904994e+001 -2.000000e+002  3.122663e+001
      vertex  4.387913e+001 -2.000000e+002  2.397128e+001
    endloop
  endfacet
  facet normal  8.155110e-001  9.988631e-002  5.700566e-001
    outer loop
      vertex  2.632748e+001  0.000000e+000  1.438277e+001
      vertex  2.255155e+001 -1.421085e-014  1.978453e+001
      vertex  3.904994e+001 -2.000000e+002  3.122663e+001
    endloop
  endfacet
  facet normal  7.200624e-001  9.869465e-002  6.868549e-001
    outer loop
      vertex  2.255155e+001 -1.421085e-014  1.978453e+001
      vertex  3.303423e+001 -2.000000e+002  3.753318e+001
      vertex  3.904994e+001 -2.000000e+002  3.122663e+001
    endloop
  endfacet
  facet normal  5.898595e-001  9.856749e-002  8.014675e-001
    outer loop
      vertex  1.768721e+001 -1.421085e-014  2.423144e+001
      vertex  2.601480e+001 -2.000000e+002  4.269930e+001
      vertex  3.303423e+001 -2.000000e+002  3.753318e+001
    endloop
  endfacet
  facet normal  6.713229e-001  1.003540e-001  7.343397e-001
    outer loop
      vertex  1.768721e+001 -1.421085e-014  2.423144e+001
      vertex  3.303423e+001 -2.000000e+002  3.753318e+001
      vertex  2.255155e+001 -1.421085e-014  1.978453e+001
    endloop
  endfacet
  facet normal  4.417169e-001  9.874766e-002  8.917035e-001
    outer loop
      vertex  1.196923e+001 -1.421085e-014  2.750886e+001
      vertex  1.820492e+001 -2.000000e+002  4.656802e+001
      vertex  2.601480e+001 -2.000000e+002  4.269930e+001
    endloop
  endfacet
  facet normal  4.947749e-001  1.003098e-001  8.632125e-001
    outer loop
      vertex  1.196923e+001 -1.421085e-014  2.750886e+001
      vertex  2.601480e+001 -2.000000e+002  4.269930e+001
      vertex  1.768721e+001 -1.421085e-014  2.423144e+001
    endloop
  endfacet
  facet normal  1.100943e-001  9.903202e-002  9.889752e-001
    outer loop
      vertex  5.673587e+000 -1.421085e-014  2.945862e+001
      vertex  1.179829e+000 -2.000000e+002  4.998608e+001
      vertex  9.841896e+000 -2.000000e+002  4.902180e+001
    endloop
  endfacet
  facet normal  2.943805e-001  9.911276e-002  9.505349e-001
    outer loop
      vertex  5.673587e+000 -1.421085e-014  2.945862e+001
      vertex  9.841896e+000 -2.000000e+002  4.902180e+001
      vertex  1.196923e+001 -1.421085e-014  2.750886e+001
    endloop
  endfacet
  facet normal  2.801361e-001  9.971949e-002  9.547669e-001
    outer loop
      vertex  1.196923e+001 -1.421085e-014  2.750886e+001
      vertex  9.841896e+000 -2.000000e+002  4.902180e+001
      vertex  1.820492e+001 -2.000000e+002  4.656802e+001
    endloop
  endfacet
  facet normal -6.331408e-002  9.865078e-002  9.931059e-001
    outer loop
      vertex -8.958852e-001 -1.421085e-014  2.998662e+001
      vertex -7.518086e+000 -2.000000e+002  4.943155e+001
      vertex  1.179829e+000 -2.000000e+002  4.998608e+001
    endloop
  endfacet
  facet normal  7.971135e-002  1.000035e-001  9.917890e-001
    outer loop
      vertex -8.958852e-001 -1.421085e-014  2.998662e+001
      vertex  1.179829e+000 -2.000000e+002  4.998608e+001
      vertex  5.673587e+000 -1.421085e-014  2.945862e+001
    endloop
  endfacet
  facet normal -2.348054e-001  9.857664e-002  9.670310e-001
    outer loop
      vertex -7.422119e+000 -1.421085e-014  2.906737e+001
      vertex -1.598757e+001 -2.000000e+002  4.737507e+001
      vertex -7.518086e+000 -2.000000e+002  4.943155e+001
    endloop
  endfacet
  facet normal -1.387728e-001  1.003829e-001  9.852234e-001
    outer loop
      vertex -7.422119e+000 -1.421085e-014  2.906737e+001
      vertex -7.518086e+000 -2.000000e+002  4.943155e+001
      vertex -8.958852e-001 -1.421085e-014  2.998662e+001
    endloop
  endfacet
  facet normal -3.991518e-001  9.880978e-002  9.115452e-001
    outer loop
      vertex -1.359014e+001 -1.421085e-014  2.674524e+001
      vertex -2.397128e+001 -2.000000e+002  4.387913e+001
      vertex -1.598757e+001 -2.000000e+002  4.737507e+001
    endloop
  endfacet
  facet normal -3.505614e-001  1.002505e-001  9.311587e-001
    outer loop
      vertex -1.359014e+001 -1.421085e-014  2.674524e+001
      vertex -1.598757e+001 -2.000000e+002  4.737507e+001
      vertex -7.422119e+000 -1.421085e-014  2.906737e+001
    endloop
  endfacet
  facet normal -6.868377e-001  9.894437e-002  7.200444e-001
    outer loop
      vertex -1.910226e+001 -1.421085e-014  2.313231e+001
      vertex -3.753318e+001 -2.000000e+002  3.303423e+001
      vertex -3.122663e+001 -2.000000e+002  3.904994e+001
    endloop
  endfacet
  facet normal -5.454808e-001  9.930289e-002  8.322196e-001
    outer loop
      vertex -1.910226e+001 -1.421085e-014  2.313231e+001
      vertex -3.122663e+001 -2.000000e+002  3.904994e+001
      vertex -1.359014e+001 -1.421085e-014  2.674524e+001
    endloop
  endfacet
  facet normal -5.513335e-001  9.957910e-002  8.283209e-001
    outer loop
      vertex -1.359014e+001 -1.421085e-014  2.674524e+001
      vertex -3.122663e+001 -2.000000e+002  3.904994e+001
      vertex -2.397128e+001 -2.000000e+002  4.387913e+001
    endloop
  endfacet
  facet normal -8.014637e-001  9.861606e-002  5.898567e-001
    outer loop
      vertex -2.369244e+001 -1.421085e-014  1.840294e+001
      vertex -4.269930e+001 -2.000000e+002  2.601480e+001
      vertex -3.753318e+001 -2.000000e+002  3.303423e+001
    endloop
  endfacet
  facet normal -7.139828e-001  1.001055e-001  6.929701e-001
    outer loop
      vertex -2.369244e+001 -1.421085e-014  1.840294e+001
      vertex -3.753318e+001 -2.000000e+002  3.303423e+001
      vertex -1.910226e+001 -1.421085e-014  2.313231e+001
    endloop
  endfacet
  facet normal -8.917171e-001  9.859495e-002  4.417236e-001
    outer loop
      vertex -2.713916e+001 -1.421085e-014  1.278539e+001
      vertex -4.656802e+001 -2.000000e+002  1.820492e+001
      vertex -4.269930e+001 -2.000000e+002  2.601480e+001
    endloop
  endfacet
  facet normal -8.480447e-001  1.003966e-001  5.203276e-001
    outer loop
      vertex -2.713916e+001 -1.421085e-014  1.278539e+001
      vertex -4.269930e+001 -2.000000e+002  2.601480e+001
      vertex -2.369244e+001 -1.421085e-014  1.840294e+001
    endloop
  endfacet
  facet normal -9.548471e-001  9.888104e-002  2.801596e-001
    outer loop
      vertex -2.927605e+001 -1.421085e-014  6.550774e+000
      vertex -4.902180e+001 -2.000000e+002  9.841896e+000
      vertex -4.656802e+001 -2.000000e+002  1.820492e+001
    endloop
  endfacet
  facet normal -9.412193e-001  1.001759e-001  3.226005e-001
    outer loop
      vertex -2.927605e+001 -1.421085e-014  6.550774e+000
      vertex -4.656802e+001 -2.000000e+002  1.820492e+001
      vertex -2.713916e+001 -1.421085e-014  1.278539e+001
    endloop
  endfacet
  facet normal -9.889339e-001  9.944778e-002  1.100897e-001
    outer loop
      vertex -2.927605e+001 -1.421085e-014  6.550774e+000
      vertex -4.998608e+001 -2.000000e+002  1.179829e+000
      vertex -4.902180e+001 -2.000000e+002  9.841896e+000
    endloop
  endfacet
  facet normal -9.669956e-001  9.894438e-002 -2.347968e-001
    outer loop
      vertex -2.958430e+001 -1.421085e-014 -4.976884e+000
      vertex -4.737507e+001 -2.000000e+002 -1.598757e+001
      vertex -4.943155e+001 -2.000000e+002 -7.518086e+000
    endloop
  endfacet
  facet normal -9.915891e-001  9.945399e-002 -8.282419e-002
    outer loop
      vertex -3.000000e+001  0.000000e+000 -7.347880e-015
      vertex -2.958430e+001 -1.421085e-014 -4.976884e+000
      vertex -4.943155e+001 -2.000000e+002 -7.518086e+000
    endloop
  endfacet
  facet normal -9.930846e-001  9.886584e-002 -6.331272e-002
    outer loop
      vertex -3.000000e+001  0.000000e+000 -7.347880e-015
      vertex -4.943155e+001 -2.000000e+002 -7.518086e+000
      vertex -4.998608e+001 -2.000000e+002  1.179829e+000
    endloop
  endfacet
  facet normal -9.890187e-001  9.947780e-002  1.092994e-001
    outer loop
      vertex -3.000000e+001  0.000000e+000 -7.347880e-015
      vertex -4.998608e+001 -2.000000e+002  1.179829e+000
      vertex -2.927605e+001 -1.421085e-014  6.550774e+000
    endloop
  endfacet
  facet normal -9.099361e-001  9.916183e-002 -4.027199e-001
    outer loop
      vertex -2.632748e+001  0.000000e+000 -1.438277e+001
      vertex -4.387913e+001 -2.000000e+002 -2.397128e+001
      vertex -2.834871e+001 -1.421085e-014 -9.815841e+000
    endloop
  endfacet
  facet normal -9.115248e-001  9.903201e-002 -3.991429e-001
    outer loop
      vertex -2.834871e+001 -1.421085e-014 -9.815841e+000
      vertex -4.387913e+001 -2.000000e+002 -2.397128e+001
      vertex -4.737507e+001 -2.000000e+002 -1.598757e+001
    endloop
  endfacet
  facet normal -9.641221e-001  9.931549e-002 -2.461808e-001
    outer loop
      vertex -2.834871e+001 -1.421085e-014 -9.815841e+000
      vertex -4.737507e+001 -2.000000e+002 -1.598757e+001
      vertex -2.958430e+001 -1.421085e-014 -4.976884e+000
    endloop
  endfacet
  facet normal -9.438829e-001  9.423723e-004 -3.302789e-001
    outer loop
      vertex -2.924784e+001  2.000000e+002 -6.675628e+000
      vertex -2.702907e+001  2.000000e+002 -1.301651e+001
      vertex -2.834871e+001 -1.421085e-014 -9.815841e+000
    endloop
  endfacet
  facet normal -7.071066e-001  6.238071e-004 -7.071066e-001
    outer loop
      vertex -2.255155e+001 -1.421085e-014 -1.978453e+001
      vertex -2.345494e+001  2.000000e+002 -1.870469e+001
      vertex -1.870469e+001  2.000000e+002 -2.345494e+001
    endloop
  endfacet
  facet normal -6.747289e-001 -5.671112e-004 -7.380654e-001
    outer loop
      vertex -2.255155e+001 -1.421085e-014 -1.978453e+001
      vertex -1.870469e+001  2.000000e+002 -2.345494e+001
      vertex -1.768721e+001 -1.421085e-014 -2.423144e+001
    endloop
  endfacet
  facet normal -5.320319e-001  5.807134e-004 -8.467242e-001
    outer loop
      vertex -1.768721e+001 -1.421085e-014 -2.423144e+001
      vertex -1.870469e+001  2.000000e+002 -2.345494e+001
      vertex -1.301651e+001  2.000000e+002 -2.702907e+001
    endloop
  endfacet
  facet normal -4.972830e-001 -5.226444e-004 -8.675882e-001
    outer loop
      vertex -1.768721e+001 -1.421085e-014 -2.423144e+001
      vertex -1.301651e+001  2.000000e+002 -2.702907e+001
      vertex -1.196923e+001 -1.421085e-014 -2.750886e+001
    endloop
  endfacet
  facet normal -3.302790e-001  5.348842e-004 -9.438832e-001
    outer loop
      vertex -1.196923e+001 -1.421085e-014 -2.750886e+001
      vertex -1.301651e+001  2.000000e+002 -2.702907e+001
      vertex -6.675628e+000  2.000000e+002 -2.924784e+001
    endloop
  endfacet
  facet normal -2.958371e-001 -4.754558e-004 -9.552382e-001
    outer loop
      vertex -1.196923e+001 -1.421085e-014 -2.750886e+001
      vertex -6.675628e+000  2.000000e+002 -2.924784e+001
      vertex -5.673587e+000 -1.421085e-014 -2.945862e+001
    endloop
  endfacet
  facet normal -1.119645e-001  4.863323e-004 -9.937121e-001
    outer loop
      vertex -5.673587e+000 -1.421085e-014 -2.945862e+001
      vertex -6.675628e+000  2.000000e+002 -2.924784e+001
      vertex  5.510911e-015  2.000000e+002 -3.000000e+001
    endloop
  endfacet
  facet normal -8.011311e-002 -4.255459e-004 -9.967856e-001
    outer loop
      vertex -5.673587e+000 -1.421085e-014 -2.945862e+001
      vertex  5.510911e-015  2.000000e+002 -3.000000e+001
      vertex  8.958852e-001 -1.421085e-014 -2.998662e+001
    endloop
  endfacet
  facet normal  1.119645e-001  4.350571e-004 -9.937121e-001
    outer loop
      vertex  8.958852e-001 -1.421085e-014 -2.998662e+001
      vertex  5.510911e-015  2.000000e+002 -3.000000e+001
      vertex  6.675628e+000  2.000000e+002 -2.924784e+001
    endloop
  endfacet
  facet normal  1.394773e-001 -3.729067e-004 -9.902251e-001
    outer loop
      vertex  8.958852e-001 -1.421085e-014 -2.998662e+001
      vertex  6.675628e+000  2.000000e+002 -2.924784e+001
      vertex  7.422119e+000 -1.421085e-014 -2.906737e+001
    endloop
  endfacet
  facet normal  3.302790e-001  3.810669e-004 -9.438832e-001
    outer loop
      vertex  7.422119e+000 -1.421085e-014 -2.906737e+001
      vertex  6.675628e+000  2.000000e+002 -2.924784e+001
      vertex  1.301651e+001  2.000000e+002 -2.702907e+001
    endloop
  endfacet
  facet normal  3.523364e-001 -3.175555e-004 -9.358733e-001
    outer loop
      vertex  7.422119e+000 -1.421085e-014 -2.906737e+001
      vertex  1.301651e+001  2.000000e+002 -2.702907e+001
      vertex  1.359014e+001 -1.421085e-014 -2.674524e+001
    endloop
  endfacet
  facet normal  5.320320e-001  3.243473e-004 -8.467242e-001
    outer loop
      vertex  1.359014e+001 -1.421085e-014 -2.674524e+001
      vertex  1.301651e+001  2.000000e+002 -2.702907e+001
      vertex  1.870469e+001  2.000000e+002 -2.345494e+001
    endloop
  endfacet
  facet normal  5.481904e-001 -2.594811e-004 -8.363537e-001
    outer loop
      vertex  1.359014e+001 -1.421085e-014 -2.674524e+001
      vertex  1.870469e+001  2.000000e+002 -2.345494e+001
      vertex  1.910226e+001 -1.421085e-014 -2.313231e+001
    endloop
  endfacet
  facet normal  7.071068e-001  2.649115e-004 -7.071068e-001
    outer loop
      vertex  1.910226e+001 -1.421085e-014 -2.313231e+001
      vertex  1.870469e+001  2.000000e+002 -2.345494e+001
      vertex  2.345494e+001  2.000000e+002 -1.870469e+001
    endloop
  endfacet
  facet normal  7.175872e-001 -1.986858e-004 -6.964687e-001
    outer loop
      vertex  1.910226e+001 -1.421085e-014 -2.313231e+001
      vertex  2.345494e+001  2.000000e+002 -1.870469e+001
      vertex  2.369244e+001 -1.421085e-014 -1.840294e+001
    endloop
  endfacet
  facet normal  8.467242e-001  2.027598e-004 -5.320320e-001
    outer loop
      vertex  2.369244e+001 -1.421085e-014 -1.840294e+001
      vertex  2.345494e+001  2.000000e+002 -1.870469e+001
      vertex  2.702907e+001  2.000000e+002 -1.301651e+001
    endloop
  endfacet
  facet normal -9.144428e-001 -4.431024e-004 -4.047147e-001
    outer loop
      vertex -2.632748e+001  0.000000e+000 -1.438277e+001
      vertex -2.834871e+001 -1.421085e-014 -9.815841e+000
      vertex -2.702907e+001  2.000000e+002 -1.301651e+001
    endloop
  endfacet
  facet normal -8.467242e-001  6.641892e-004 -5.320319e-001
    outer loop
      vertex -2.632748e+001  0.000000e+000 -1.438277e+001
      vertex -2.702907e+001  2.000000e+002 -1.301651e+001
      vertex -2.345494e+001  2.000000e+002 -1.870469e+001
    endloop
  endfacet
  facet normal -8.196099e-001 -6.088586e-004 -5.729217e-001
    outer loop
      vertex -2.632748e+001  0.000000e+000 -1.438277e+001
      vertex -2.345494e+001  2.000000e+002 -1.870469e+001
      vertex -2.255155e+001 -1.421085e-014 -1.978453e+001
    endloop
  endfacet
  facet normal -9.965298e-001  3.058073e-018 -8.323687e-002
    outer loop
      vertex -3.000000e+001  0.000000e+000 -7.347880e-015
      vertex -3.000000e+001  2.000000e+002  0.000000e+000
      vertex -2.958430e+001 -1.421085e-014 -4.976884e+000
    endloop
  endfacet
  facet normal -9.937119e-001  7.207270e-004 -1.119645e-001
    outer loop
      vertex -2.958430e+001 -1.421085e-014 -4.976884e+000
      vertex -3.000000e+001  2.000000e+002  0.000000e+000
      vertex -2.924784e+001  2.000000e+002 -6.675628e+000
    endloop
  endfacet
  facet normal -9.689122e-001 -4.713775e-004 -2.474038e-001
    outer loop
      vertex -2.958430e+001 -1.421085e-014 -4.976884e+000
      vertex -2.924784e+001  2.000000e+002 -6.675628e+000
      vertex -2.834871e+001 -1.421085e-014 -9.815841e+000
    endloop
  endfacet
  facet normal  9.937122e-001  0.000000e+000 -1.119645e-001
    outer loop
      vertex  3.000000e+001  2.000000e+002  3.673940e-015
      vertex  3.000000e+001  0.000000e+000  3.673940e-015
      vertex  2.924784e+001  2.000000e+002 -6.675628e+000
    endloop
  endfacet
  facet normal  9.939489e-001  7.166032e-005 -1.098443e-001
    outer loop
      vertex  2.924784e+001  2.000000e+002 -6.675628e+000
      vertex  3.000000e+001  0.000000e+000  3.673940e-015
      vertex  2.927605e+001 -1.421085e-014 -6.550774e+000
    endloop
  endfacet
  facet normal  9.438833e-001 -7.301417e-005 -3.302790e-001
    outer loop
      vertex  2.924784e+001  2.000000e+002 -6.675628e+000
      vertex  2.927605e+001 -1.421085e-014 -6.550774e+000
      vertex  2.702907e+001  2.000000e+002 -1.301651e+001
    endloop
  endfacet
  facet normal  9.459777e-001  1.460264e-004 -3.242314e-001
    outer loop
      vertex  2.702907e+001  2.000000e+002 -1.301651e+001
      vertex  2.927605e+001 -1.421085e-014 -6.550774e+000
      vertex  2.713916e+001 -1.421085e-014 -1.278539e+001
    endloop
  endfacet
  facet normal  8.523511e-001 -1.351765e-004 -5.229699e-001
    outer loop
      vertex  2.702907e+001  2.000000e+002 -1.301651e+001
      vertex  2.713916e+001 -1.421085e-014 -1.278539e+001
      vertex  2.369244e+001 -1.421085e-014 -1.840294e+001
    endloop
  endfacet
  facet normal  9.438829e-001  9.423723e-004  3.302789e-001
    outer loop
      vertex  2.924784e+001  2.000000e+002  6.675628e+000
      vertex  2.702907e+001  2.000000e+002  1.301651e+001
      vertex  2.834871e+001 -1.421085e-014  9.815841e+000
    endloop
  endfacet
  facet normal  7.071066e-001  6.238071e-004  7.071066e-001
    outer loop
      vertex  2.255155e+001 -1.421085e-014  1.978453e+001
      vertex  2.345494e+001  2.000000e+002  1.870469e+001
      vertex  1.870469e+001  2.000000e+002  2.345494e+001
    endloop
  endfacet
  facet normal  6.747289e-001 -5.671112e-004  7.380654e-001
    outer loop
      vertex  2.255155e+001 -1.421085e-014  1.978453e+001
      vertex  1.870469e+001  2.000000e+002  2.345494e+001
      vertex  1.768721e+001 -1.421085e-014  2.423144e+001
    endloop
  endfacet
  facet normal  5.320319e-001  5.807134e-004  8.467242e-001
    outer loop
      vertex  1.768721e+001 -1.421085e-014  2.423144e+001
      vertex  1.870469e+001  2.000000e+002  2.345494e+001
      vertex  1.301651e+001  2.000000e+002  2.702907e+001
    endloop
  endfacet
  facet normal  4.972830e-001 -5.226444e-004  8.675882e-001
    outer loop
      vertex  1.768721e+001 -1.421085e-014  2.423144e+001
      vertex  1.301651e+001  2.000000e+002  2.702907e+001
      vertex  1.196923e+001 -1.421085e-014  2.750886e+001
    endloop
  endfacet
  facet normal  3.302790e-001  5.348842e-004  9.438832e-001
    outer loop
      vertex  1.196923e+001 -1.421085e-014  2.750886e+001
      vertex  1.301651e+001  2.000000e+002  2.702907e+001
      vertex  6.675628e+000  2.000000e+002  2.924784e+001
    endloop
  endfacet
  facet normal  2.958371e-001 -4.754558e-004  9.552382e-001
    outer loop
      vertex  1.196923e+001 -1.421085e-014  2.750886e+001
      vertex  6.675628e+000  2.000000e+002  2.924784e+001
      vertex  5.673587e+000 -1.421085e-014  2.945862e+001
    endloop
  endfacet
  facet normal  1.119645e-001  4.863323e-004  9.937121e-001
    outer loop
      vertex  5.673587e+000 -1.421085e-014  2.945862e+001
      vertex  6.675628e+000  2.000000e+002  2.924784e+001
      vertex -1.836970e-015  2.000000e+002  3.000000e+001
    endloop
  endfacet
  facet normal  8.011311e-002 -4.255459e-004  9.967856e-001
    outer loop
      vertex  5.673587e+000 -1.421085e-014  2.945862e+001
      vertex -1.836970e-015  2.000000e+002  3.000000e+001
      vertex -8.958852e-001 -1.421085e-014  2.998662e+001
    endloop
  endfacet
  facet normal -1.119645e-001  4.350571e-004  9.937121e-001
    outer loop
      vertex -8.958852e-001 -1.421085e-014  2.998662e+001
      vertex -1.836970e-015  2.000000e+002  3.000000e+001
      vertex -6.675628e+000  2.000000e+002  2.924784e+001
    endloop
  endfacet
  facet normal -1.394773e-001 -3.729067e-004  9.902251e-001
    outer loop
      vertex -8.958852e-001 -1.421085e-014  2.998662e+001
      vertex -6.675628e+000  2.000000e+002  2.924784e+001
      vertex -7.422119e+000 -1.421085e-014  2.906737e+001
    endloop
  endfacet
  facet normal -3.302790e-001  3.810669e-004  9.438832e-001
    outer loop
      vertex -7.422119e+000 -1.421085e-014  2.906737e+001
      vertex -6.675628e+000  2.000000e+002  2.924784e+001
      vertex -1.301651e+001  2.000000e+002  2.702907e+001
    endloop
  endfacet
  facet normal -3.523364e-001 -3.175555e-004  9.358733e-001
    outer loop
      vertex -7.422119e+000 -1.421085e-014  2.906737e+001
      vertex -1.301651e+001  2.000000e+002  2.702907e+001
      vertex -1.359014e+001 -1.421085e-014  2.674524e+001
    endloop
  endfacet
  facet normal -5.320320e-001  3.243473e-004  8.467242e-001
    outer loop
      vertex -1.359014e+001 -1.421085e-014  2.674524e+001
      vertex -1.301651e+001  2.000000e+002  2.702907e+001
      vertex -1.870469e+001  2.000000e+002  2.345494e+001
    endloop
  endfacet
  facet normal -5.481904e-001 -2.594811e-004  8.363537e-001
    outer loop
      vertex -1.359014e+001 -1.421085e-014  2.674524e+001
      vertex -1.870469e+001  2.000000e+002  2.345494e+001
      vertex -1.910226e+001 -1.421085e-014  2.313231e+001
    endloop
  endfacet
  facet normal -7.071068e-001  2.649115e-004  7.071068e-001
    outer loop
      vertex -1.910226e+001 -1.421085e-014  2.313231e+001
      vertex -1.870469e+001  2.000000e+002  2.345494e+001
      vertex -2.345494e+001  2.000000e+002  1.870469e+001
    endloop
  endfacet
  facet normal -7.175872e-001 -1.986858e-004  6.964687e-001
    outer loop
      vertex -1.910226e+001 -1.421085e-014  2.313231e+001
      vertex -2.345494e+001  2.000000e+002  1.870469e+001
      vertex -2.369244e+001 -1.421085e-014  1.840294e+001
    endloop
  endfacet
  facet normal -8.467242e-001  2.027598e-004  5.320320e-001
    outer loop
      vertex -2.369244e+001 -1.421085e-014  1.840294e+001
      vertex -2.345494e+001  2.000000e+002  1.870469e+001
      vertex -2.702907e+001  2.000000e+002  1.301651e+001
    endloop
  endfacet
  facet normal  9.144428e-001 -4.431024e-004  4.047147e-001
    outer loop
      vertex  2.632748e+001  0.000000e+000  1.438277e+001
      vertex  2.834871e+001 -1.421085e-014  9.815841e+000
      vertex  2.702907e+001  2.000000e+002  1.301651e+001
    endloop
  endfacet
  facet normal  8.467242e-001  6.641892e-004  5.320319e-001
    outer loop
      vertex  2.632748e+001  0.000000e+000  1.438277e+001
      vertex  2.702907e+001  2.000000e+002  1.301651e+001
      vertex  2.345494e+001  2.000000e+002  1.870469e+001
    endloop
  endfacet
  facet normal  8.196099e-001 -6.088586e-004  5.729217e-001
    outer loop
      vertex  2.632748e+001  0.000000e+000  1.438277e+001
      vertex  2.345494e+001  2.000000e+002  1.870469e+001
      vertex  2.255155e+001 -1.421085e-014  1.978453e+001
    endloop
  endfacet
  facet normal  9.965298e-001  0.000000e+000  8.323687e-002
    outer loop
      vertex  3.000000e+001  0.000000e+000  3.673940e-015
      vertex  3.000000e+001  2.000000e+002  3.673940e-015
      vertex  2.958430e+001 -1.421085e-014  4.976884e+000
    endloop
  endfacet
  facet normal  9.937119e-001  7.207270e-004  1.119645e-001
    outer loop
      vertex  2.958430e+001 -1.421085e-014  4.976884e+000
      vertex  3.000000e+001  2.000000e+002  3.673940e-015
      vertex  2.924784e+001  2.000000e+002  6.675628e+000
    endloop
  endfacet
  facet normal  9.689122e-001 -4.713775e-004  2.474038e-001
    outer loop
      vertex  2.958430e+001 -1.421085e-014  4.976884e+000
      vertex  2.924784e+001  2.000000e+002  6.675628e+000
      vertex  2.834871e+001 -1.421085e-014  9.815841e+000
    endloop
  endfacet
  facet normal -9.937122e-001 -4.113509e-018  1.119645e-001
    outer loop
      vertex -3.000000e+001  2.000000e+002  0.000000e+000
      vertex -3.000000e+001  0.000000e+000 -7.347880e-015
      vertex -2.924784e+001  2.000000e+002  6.675628e+000
    endloop
  endfacet
  facet normal -9.939489e-001  7.166032e-005  1.098443e-001
    outer loop
      vertex -2.924784e+001  2.000000e+002  6.675628e+000
      vertex -3.000000e+001  0.000000e+000 -7.347880e-015
      vertex -2.927605e+001 -1.421085e-014  6.550774e+000
    endloop
  endfacet
  facet normal -9.438833e-001 -7.301417e-005  3.302790e-001
    outer loop
      vertex -2.924784e+001  2.000000e+002  6.675628e+000
      vertex -2.927605e+001 -1.421085e-014  6.550774e+000
      vertex -2.702907e+001  2.000000e+002  1.301651e+001
    endloop
  endfacet
  facet normal -9.459777e-001  1.460264e-004  3.242314e-001
    outer loop
      vertex -2.702907e+001  2.000000e+002  1.301651e+001
      vertex -2.927605e+001 -1.421085e-014  6.550774e+000
      vertex -2.713916e+001 -1.421085e-014  1.278539e+001
    endloop
  endfacet
  facet normal -8.523511e-001 -1.351765e-004  5.229699e-001
    outer loop
      vertex -2.702907e+001  2.000000e+002  1.301651e+001
      vertex -2.713916e+001 -1.421085e-014  1.278539e+001
      vertex -2.369244e+001 -1.421085e-014  1.840294e+001
    endloop
  endfacet
endsolid CATIA STL
