solid CATIA STL
  facet normal  0.000000e+000  1.000000e+000  0.000000e+000
    outer loop
      vertex  1.020000e+002  1.700000e+001  1.175000e+002
      vertex  1.200000e+002  1.700000e+001  1.175000e+002
      vertex  1.200000e+002  1.700000e+001  1.030000e+002
    endloop
  endfacet
  facet normal  0.000000e+000  1.000000e+000  0.000000e+000
    outer loop
      vertex  1.020000e+002  1.700000e+001  1.175000e+002
      vertex  1.200000e+002  1.700000e+001  1.030000e+002
      vertex  1.200000e+002  1.700000e+001  7.300000e+001
    endloop
  endfacet
  facet normal  0.000000e+000  1.000000e+000  0.000000e+000
    outer loop
      vertex  1.020000e+002  1.700000e+001  1.175000e+002
      vertex  1.200000e+002  1.700000e+001  7.300000e+001
      vertex  1.200000e+002  1.700000e+001  1.500000e+001
    endloop
  endfacet
  facet normal  0.000000e+000  1.000000e+000  0.000000e+000
    outer loop
      vertex  1.020000e+002  1.700000e+001  1.175000e+002
      vertex  1.200000e+002  1.700000e+001  1.500000e+001
      vertex  1.200000e+002  1.700000e+001 -1.500000e+001
    endloop
  endfacet
  facet normal  0.000000e+000  1.000000e+000  0.000000e+000
    outer loop
      vertex  1.020000e+002  1.700000e+001  1.175000e+002
      vertex  1.200000e+002  1.700000e+001 -1.500000e+001
      vertex  1.200000e+002  1.700000e+001 -7.300000e+001
    endloop
  endfacet
  facet normal  0.000000e+000  1.000000e+000  0.000000e+000
    outer loop
      vertex  1.020000e+002  1.700000e+001  1.175000e+002
      vertex  1.200000e+002  1.700000e+001 -7.300000e+001
      vertex  1.200000e+002  1.700000e+001 -1.030000e+002
    endloop
  endfacet
  facet normal  0.000000e+000  1.000000e+000  0.000000e+000
    outer loop
      vertex  1.020000e+002  1.700000e+001  1.175000e+002
      vertex  1.200000e+002  1.700000e+001 -1.030000e+002
      vertex  1.200000e+002  1.700000e+001 -1.175000e+002
    endloop
  endfacet
  facet normal  0.000000e+000  1.000000e+000  0.000000e+000
    outer loop
      vertex  1.020000e+002  1.700000e+001  1.175000e+002
      vertex  1.200000e+002  1.700000e+001 -1.175000e+002
      vertex  1.020000e+002  1.700000e+001 -1.175000e+002
    endloop
  endfacet
  facet normal  0.000000e+000  9.999999e-001  -0.000000e+000
    outer loop
      vertex  1.420000e+002  1.700000e+001 -7.300000e+001
      vertex  1.420000e+002  1.700000e+001 -1.030000e+002
      vertex  1.200000e+002  1.700000e+001 -7.300000e+001
    endloop
  endfacet
  facet normal  0.000000e+000  9.999999e-001  0.000000e+000
    outer loop
      vertex  1.200000e+002  1.700000e+001 -7.300000e+001
      vertex  1.420000e+002  1.700000e+001 -1.030000e+002
      vertex  1.200000e+002  1.700000e+001 -1.030000e+002
    endloop
  endfacet
  facet normal  0.000000e+000  9.999999e-001  -0.000000e+000
    outer loop
      vertex  1.420000e+002  1.700000e+001  1.500000e+001
      vertex  1.420000e+002  1.700000e+001 -1.500000e+001
      vertex  1.200000e+002  1.700000e+001  1.500000e+001
    endloop
  endfacet
  facet normal  0.000000e+000  9.999999e-001  0.000000e+000
    outer loop
      vertex  1.200000e+002  1.700000e+001  1.500000e+001
      vertex  1.420000e+002  1.700000e+001 -1.500000e+001
      vertex  1.200000e+002  1.700000e+001 -1.500000e+001
    endloop
  endfacet
  facet normal  0.000000e+000  9.999999e-001  -0.000000e+000
    outer loop
      vertex  1.420000e+002  1.700000e+001  1.030000e+002
      vertex  1.420000e+002  1.700000e+001  7.300000e+001
      vertex  1.200000e+002  1.700000e+001  1.030000e+002
    endloop
  endfacet
  facet normal  0.000000e+000  9.999999e-001  0.000000e+000
    outer loop
      vertex  1.200000e+002  1.700000e+001  1.030000e+002
      vertex  1.420000e+002  1.700000e+001  7.300000e+001
      vertex  1.200000e+002  1.700000e+001  7.300000e+001
    endloop
  endfacet
  facet normal  0.000000e+000 -1.000000e+000  0.000000e+000
    outer loop
      vertex  1.020000e+002 -1.700000e+001  1.175000e+002
      vertex  1.020000e+002 -1.700000e+001 -1.175000e+002
      vertex  1.200000e+002 -1.700000e+001 -1.175000e+002
    endloop
  endfacet
  facet normal  0.000000e+000 -1.000000e+000  0.000000e+000
    outer loop
      vertex  1.020000e+002 -1.700000e+001  1.175000e+002
      vertex  1.200000e+002 -1.700000e+001 -1.175000e+002
      vertex  1.200000e+002 -1.700000e+001 -1.030000e+002
    endloop
  endfacet
  facet normal  0.000000e+000 -1.000000e+000  0.000000e+000
    outer loop
      vertex  1.020000e+002 -1.700000e+001  1.175000e+002
      vertex  1.200000e+002 -1.700000e+001 -1.030000e+002
      vertex  1.200000e+002 -1.700000e+001 -7.300000e+001
    endloop
  endfacet
  facet normal  0.000000e+000 -1.000000e+000  0.000000e+000
    outer loop
      vertex  1.020000e+002 -1.700000e+001  1.175000e+002
      vertex  1.200000e+002 -1.700000e+001 -7.300000e+001
      vertex  1.200000e+002 -1.700000e+001 -1.500000e+001
    endloop
  endfacet
  facet normal  0.000000e+000 -1.000000e+000  0.000000e+000
    outer loop
      vertex  1.020000e+002 -1.700000e+001  1.175000e+002
      vertex  1.200000e+002 -1.700000e+001 -1.500000e+001
      vertex  1.200000e+002 -1.700000e+001  1.500000e+001
    endloop
  endfacet
  facet normal  0.000000e+000 -1.000000e+000  0.000000e+000
    outer loop
      vertex  1.020000e+002 -1.700000e+001  1.175000e+002
      vertex  1.200000e+002 -1.700000e+001  1.500000e+001
      vertex  1.200000e+002 -1.700000e+001  7.300000e+001
    endloop
  endfacet
  facet normal  0.000000e+000 -1.000000e+000  0.000000e+000
    outer loop
      vertex  1.020000e+002 -1.700000e+001  1.175000e+002
      vertex  1.200000e+002 -1.700000e+001  7.300000e+001
      vertex  1.200000e+002 -1.700000e+001  1.030000e+002
    endloop
  endfacet
  facet normal  0.000000e+000 -1.000000e+000  0.000000e+000
    outer loop
      vertex  1.020000e+002 -1.700000e+001  1.175000e+002
      vertex  1.200000e+002 -1.700000e+001  1.030000e+002
      vertex  1.200000e+002 -1.700000e+001  1.175000e+002
    endloop
  endfacet
  facet normal  0.000000e+000 -9.999999e-001  0.000000e+000
    outer loop
      vertex  1.200000e+002 -1.700000e+001 -1.030000e+002
      vertex  1.420000e+002 -1.700000e+001 -1.030000e+002
      vertex  1.200000e+002 -1.700000e+001 -7.300000e+001
    endloop
  endfacet
  facet normal  0.000000e+000 -9.999999e-001  0.000000e+000
    outer loop
      vertex  1.200000e+002 -1.700000e+001 -7.300000e+001
      vertex  1.420000e+002 -1.700000e+001 -1.030000e+002
      vertex  1.420000e+002 -1.700000e+001 -7.300000e+001
    endloop
  endfacet
  facet normal  0.000000e+000 -9.999999e-001  0.000000e+000
    outer loop
      vertex  1.200000e+002 -1.700000e+001 -1.500000e+001
      vertex  1.420000e+002 -1.700000e+001 -1.500000e+001
      vertex  1.200000e+002 -1.700000e+001  1.500000e+001
    endloop
  endfacet
  facet normal  0.000000e+000 -9.999999e-001  0.000000e+000
    outer loop
      vertex  1.200000e+002 -1.700000e+001  1.500000e+001
      vertex  1.420000e+002 -1.700000e+001 -1.500000e+001
      vertex  1.420000e+002 -1.700000e+001  1.500000e+001
    endloop
  endfacet
  facet normal  0.000000e+000 -9.999999e-001  0.000000e+000
    outer loop
      vertex  1.200000e+002 -1.700000e+001  7.300000e+001
      vertex  1.420000e+002 -1.700000e+001  7.300000e+001
      vertex  1.200000e+002 -1.700000e+001  1.030000e+002
    endloop
  endfacet
  facet normal  0.000000e+000 -9.999999e-001  0.000000e+000
    outer loop
      vertex  1.200000e+002 -1.700000e+001  1.030000e+002
      vertex  1.420000e+002 -1.700000e+001  7.300000e+001
      vertex  1.420000e+002 -1.700000e+001  1.030000e+002
    endloop
  endfacet
  facet normal  0.000000e+000 -9.999999e-001  -0.000000e+000
    outer loop
      vertex  1.420000e+002  1.100000e+001  7.300000e+001
      vertex  1.420000e+002  1.100000e+001  1.030000e+002
      vertex  1.378496e+002  1.100000e+001  8.933513e+001
    endloop
  endfacet
  facet normal  0.000000e+000 -1.000000e+000  0.000000e+000
    outer loop
      vertex  1.420000e+002  1.100000e+001  7.300000e+001
      vertex  1.378496e+002  1.100000e+001  8.933513e+001
      vertex  1.378496e+002  1.100000e+001  8.666487e+001
    endloop
  endfacet
  facet normal  0.000000e+000 -1.000000e+000  -0.000000e+000
    outer loop
      vertex  1.420000e+002  1.100000e+001  7.300000e+001
      vertex  1.378496e+002  1.100000e+001  8.666487e+001
      vertex  1.366910e+002  1.100000e+001  8.425906e+001
    endloop
  endfacet
  facet normal  0.000000e+000 -1.000000e+000  -0.000000e+000
    outer loop
      vertex  1.420000e+002  1.100000e+001  7.300000e+001
      vertex  1.366910e+002  1.100000e+001  8.425906e+001
      vertex  1.346033e+002  1.100000e+001  8.259418e+001
    endloop
  endfacet
  facet normal  0.000000e+000 -9.999999e-001  -0.000000e+000
    outer loop
      vertex  1.420000e+002  1.100000e+001  7.300000e+001
      vertex  1.346033e+002  1.100000e+001  8.259418e+001
      vertex  1.320000e+002  1.100000e+001  8.200000e+001
    endloop
  endfacet
  facet normal  0.000000e+000 -1.000000e+000  -0.000000e+000
    outer loop
      vertex  1.420000e+002  1.100000e+001  7.300000e+001
      vertex  1.320000e+002  1.100000e+001  8.200000e+001
      vertex  1.200000e+002  1.100000e+001  7.300000e+001
    endloop
  endfacet
  facet normal  0.000000e+000 -1.000000e+000  0.000000e+000
    outer loop
      vertex  1.200000e+002  1.100000e+001  1.030000e+002
      vertex  1.200000e+002  1.100000e+001  7.300000e+001
      vertex  1.261504e+002  1.100000e+001  8.666487e+001
    endloop
  endfacet
  facet normal  0.000000e+000 -1.000000e+000  0.000000e+000
    outer loop
      vertex  1.200000e+002  1.100000e+001  1.030000e+002
      vertex  1.261504e+002  1.100000e+001  8.666487e+001
      vertex  1.261504e+002  1.100000e+001  8.933513e+001
    endloop
  endfacet
  facet normal  0.000000e+000 -1.000000e+000  0.000000e+000
    outer loop
      vertex  1.200000e+002  1.100000e+001  1.030000e+002
      vertex  1.261504e+002  1.100000e+001  8.933513e+001
      vertex  1.273090e+002  1.100000e+001  9.174094e+001
    endloop
  endfacet
  facet normal  0.000000e+000 -1.000000e+000  0.000000e+000
    outer loop
      vertex  1.200000e+002  1.100000e+001  1.030000e+002
      vertex  1.273090e+002  1.100000e+001  9.174094e+001
      vertex  1.293967e+002  1.100000e+001  9.340582e+001
    endloop
  endfacet
  facet normal  0.000000e+000 -1.000000e+000  0.000000e+000
    outer loop
      vertex  1.200000e+002  1.100000e+001  1.030000e+002
      vertex  1.293967e+002  1.100000e+001  9.340582e+001
      vertex  1.320000e+002  1.100000e+001  9.400000e+001
    endloop
  endfacet
  facet normal  0.000000e+000 -1.000000e+000  0.000000e+000
    outer loop
      vertex  1.200000e+002  1.100000e+001  1.030000e+002
      vertex  1.320000e+002  1.100000e+001  9.400000e+001
      vertex  1.420000e+002  1.100000e+001  1.030000e+002
    endloop
  endfacet
  facet normal  -0.000000e+000 -1.000000e+000  0.000000e+000
    outer loop
      vertex  1.200000e+002  1.100000e+001  7.300000e+001
      vertex  1.320000e+002  1.100000e+001  8.200000e+001
      vertex  1.293967e+002  1.100000e+001  8.259418e+001
    endloop
  endfacet
  facet normal  -0.000000e+000 -1.000000e+000  0.000000e+000
    outer loop
      vertex  1.200000e+002  1.100000e+001  7.300000e+001
      vertex  1.293967e+002  1.100000e+001  8.259418e+001
      vertex  1.273090e+002  1.100000e+001  8.425906e+001
    endloop
  endfacet
  facet normal  -0.000000e+000 -9.999999e-001  0.000000e+000
    outer loop
      vertex  1.200000e+002  1.100000e+001  7.300000e+001
      vertex  1.273090e+002  1.100000e+001  8.425906e+001
      vertex  1.261504e+002  1.100000e+001  8.666487e+001
    endloop
  endfacet
  facet normal  0.000000e+000 -9.999999e-001  0.000000e+000
    outer loop
      vertex  1.420000e+002  1.100000e+001  1.030000e+002
      vertex  1.320000e+002  1.100000e+001  9.400000e+001
      vertex  1.346033e+002  1.100000e+001  9.340582e+001
    endloop
  endfacet
  facet normal  0.000000e+000 -1.000000e+000  0.000000e+000
    outer loop
      vertex  1.420000e+002  1.100000e+001  1.030000e+002
      vertex  1.346033e+002  1.100000e+001  9.340582e+001
      vertex  1.366910e+002  1.100000e+001  9.174094e+001
    endloop
  endfacet
  facet normal  0.000000e+000 -1.000000e+000  0.000000e+000
    outer loop
      vertex  1.420000e+002  1.100000e+001  1.030000e+002
      vertex  1.366910e+002  1.100000e+001  9.174094e+001
      vertex  1.378496e+002  1.100000e+001  8.933513e+001
    endloop
  endfacet
  facet normal  0.000000e+000  1.000000e+000  0.000000e+000
    outer loop
      vertex  1.200000e+002 -1.100000e+001  7.300000e+001
      vertex  1.200000e+002 -1.100000e+001  1.030000e+002
      vertex  1.261504e+002 -1.100000e+001  8.933513e+001
    endloop
  endfacet
  facet normal  0.000000e+000  1.000000e+000  0.000000e+000
    outer loop
      vertex  1.200000e+002 -1.100000e+001  7.300000e+001
      vertex  1.261504e+002 -1.100000e+001  8.933513e+001
      vertex  1.261504e+002 -1.100000e+001  8.666487e+001
    endloop
  endfacet
  facet normal  0.000000e+000  1.000000e+000  0.000000e+000
    outer loop
      vertex  1.200000e+002 -1.100000e+001  7.300000e+001
      vertex  1.261504e+002 -1.100000e+001  8.666487e+001
      vertex  1.273090e+002 -1.100000e+001  8.425906e+001
    endloop
  endfacet
  facet normal  0.000000e+000  1.000000e+000  0.000000e+000
    outer loop
      vertex  1.200000e+002 -1.100000e+001  7.300000e+001
      vertex  1.273090e+002 -1.100000e+001  8.425906e+001
      vertex  1.293967e+002 -1.100000e+001  8.259418e+001
    endloop
  endfacet
  facet normal  0.000000e+000  1.000000e+000  0.000000e+000
    outer loop
      vertex  1.200000e+002 -1.100000e+001  7.300000e+001
      vertex  1.293967e+002 -1.100000e+001  8.259418e+001
      vertex  1.320000e+002 -1.100000e+001  8.200000e+001
    endloop
  endfacet
  facet normal  0.000000e+000  1.000000e+000  0.000000e+000
    outer loop
      vertex  1.200000e+002 -1.100000e+001  7.300000e+001
      vertex  1.320000e+002 -1.100000e+001  8.200000e+001
      vertex  1.420000e+002 -1.100000e+001  7.300000e+001
    endloop
  endfacet
  facet normal  0.000000e+000  9.999999e-001  -0.000000e+000
    outer loop
      vertex  1.420000e+002 -1.100000e+001  1.030000e+002
      vertex  1.420000e+002 -1.100000e+001  7.300000e+001
      vertex  1.378496e+002 -1.100000e+001  8.666487e+001
    endloop
  endfacet
  facet normal  0.000000e+000  1.000000e+000  0.000000e+000
    outer loop
      vertex  1.420000e+002 -1.100000e+001  1.030000e+002
      vertex  1.378496e+002 -1.100000e+001  8.666487e+001
      vertex  1.378496e+002 -1.100000e+001  8.933513e+001
    endloop
  endfacet
  facet normal  0.000000e+000  1.000000e+000  -0.000000e+000
    outer loop
      vertex  1.420000e+002 -1.100000e+001  1.030000e+002
      vertex  1.378496e+002 -1.100000e+001  8.933513e+001
      vertex  1.366910e+002 -1.100000e+001  9.174094e+001
    endloop
  endfacet
  facet normal  0.000000e+000  1.000000e+000  -0.000000e+000
    outer loop
      vertex  1.420000e+002 -1.100000e+001  1.030000e+002
      vertex  1.366910e+002 -1.100000e+001  9.174094e+001
      vertex  1.346033e+002 -1.100000e+001  9.340582e+001
    endloop
  endfacet
  facet normal  0.000000e+000  9.999999e-001  -0.000000e+000
    outer loop
      vertex  1.420000e+002 -1.100000e+001  1.030000e+002
      vertex  1.346033e+002 -1.100000e+001  9.340582e+001
      vertex  1.320000e+002 -1.100000e+001  9.400000e+001
    endloop
  endfacet
  facet normal  0.000000e+000  1.000000e+000  -0.000000e+000
    outer loop
      vertex  1.420000e+002 -1.100000e+001  1.030000e+002
      vertex  1.320000e+002 -1.100000e+001  9.400000e+001
      vertex  1.200000e+002 -1.100000e+001  1.030000e+002
    endloop
  endfacet
  facet normal  -0.000000e+000  9.999999e-001  0.000000e+000
    outer loop
      vertex  1.420000e+002 -1.100000e+001  7.300000e+001
      vertex  1.320000e+002 -1.100000e+001  8.200000e+001
      vertex  1.346033e+002 -1.100000e+001  8.259418e+001
    endloop
  endfacet
  facet normal  -0.000000e+000  1.000000e+000  0.000000e+000
    outer loop
      vertex  1.420000e+002 -1.100000e+001  7.300000e+001
      vertex  1.346033e+002 -1.100000e+001  8.259418e+001
      vertex  1.366910e+002 -1.100000e+001  8.425906e+001
    endloop
  endfacet
  facet normal  -0.000000e+000  1.000000e+000  0.000000e+000
    outer loop
      vertex  1.420000e+002 -1.100000e+001  7.300000e+001
      vertex  1.366910e+002 -1.100000e+001  8.425906e+001
      vertex  1.378496e+002 -1.100000e+001  8.666487e+001
    endloop
  endfacet
  facet normal  0.000000e+000  1.000000e+000  0.000000e+000
    outer loop
      vertex  1.200000e+002 -1.100000e+001  1.030000e+002
      vertex  1.320000e+002 -1.100000e+001  9.400000e+001
      vertex  1.293967e+002 -1.100000e+001  9.340582e+001
    endloop
  endfacet
  facet normal  0.000000e+000  1.000000e+000  0.000000e+000
    outer loop
      vertex  1.200000e+002 -1.100000e+001  1.030000e+002
      vertex  1.293967e+002 -1.100000e+001  9.340582e+001
      vertex  1.273090e+002 -1.100000e+001  9.174094e+001
    endloop
  endfacet
  facet normal  0.000000e+000  9.999999e-001  0.000000e+000
    outer loop
      vertex  1.200000e+002 -1.100000e+001  1.030000e+002
      vertex  1.273090e+002 -1.100000e+001  9.174094e+001
      vertex  1.261504e+002 -1.100000e+001  8.933513e+001
    endloop
  endfacet
  facet normal  2.225203e-001  0.000000e+000 -9.749281e-001
    outer loop
      vertex  1.320000e+002 -1.100000e+001  8.200000e+001
      vertex  1.320000e+002  1.100000e+001  8.200000e+001
      vertex  1.346033e+002 -1.100000e+001  8.259418e+001
    endloop
  endfacet
  facet normal  2.225203e-001  0.000000e+000 -9.749281e-001
    outer loop
      vertex  1.346033e+002 -1.100000e+001  8.259418e+001
      vertex  1.320000e+002  1.100000e+001  8.200000e+001
      vertex  1.346033e+002  1.100000e+001  8.259418e+001
    endloop
  endfacet
  facet normal  6.234897e-001  0.000000e+000 -7.818315e-001
    outer loop
      vertex  1.346033e+002 -1.100000e+001  8.259418e+001
      vertex  1.346033e+002  1.100000e+001  8.259418e+001
      vertex  1.366910e+002 -1.100000e+001  8.425906e+001
    endloop
  endfacet
  facet normal  6.234897e-001  0.000000e+000 -7.818315e-001
    outer loop
      vertex  1.366910e+002 -1.100000e+001  8.425906e+001
      vertex  1.346033e+002  1.100000e+001  8.259418e+001
      vertex  1.366910e+002  1.100000e+001  8.425906e+001
    endloop
  endfacet
  facet normal  9.009699e-001  0.000000e+000 -4.338818e-001
    outer loop
      vertex  1.366910e+002 -1.100000e+001  8.425906e+001
      vertex  1.366910e+002  1.100000e+001  8.425906e+001
      vertex  1.378496e+002 -1.100000e+001  8.666487e+001
    endloop
  endfacet
  facet normal  9.009699e-001  0.000000e+000 -4.338818e-001
    outer loop
      vertex  1.378496e+002 -1.100000e+001  8.666487e+001
      vertex  1.366910e+002  1.100000e+001  8.425906e+001
      vertex  1.378496e+002  1.100000e+001  8.666487e+001
    endloop
  endfacet
  facet normal  9.999999e-001  0.000000e+000  0.000000e+000
    outer loop
      vertex  1.378496e+002 -1.100000e+001  8.666487e+001
      vertex  1.378496e+002  1.100000e+001  8.666487e+001
      vertex  1.378496e+002 -1.100000e+001  8.933513e+001
    endloop
  endfacet
  facet normal  9.999999e-001  -0.000000e+000  0.000000e+000
    outer loop
      vertex  1.378496e+002 -1.100000e+001  8.933513e+001
      vertex  1.378496e+002  1.100000e+001  8.666487e+001
      vertex  1.378496e+002  1.100000e+001  8.933513e+001
    endloop
  endfacet
  facet normal  9.009699e-001  0.000000e+000  4.338818e-001
    outer loop
      vertex  1.378496e+002 -1.100000e+001  8.933513e+001
      vertex  1.378496e+002  1.100000e+001  8.933513e+001
      vertex  1.366910e+002 -1.100000e+001  9.174094e+001
    endloop
  endfacet
  facet normal  9.009699e-001  -0.000000e+000  4.338818e-001
    outer loop
      vertex  1.366910e+002 -1.100000e+001  9.174094e+001
      vertex  1.378496e+002  1.100000e+001  8.933513e+001
      vertex  1.366910e+002  1.100000e+001  9.174094e+001
    endloop
  endfacet
  facet normal  6.234897e-001  0.000000e+000  7.818315e-001
    outer loop
      vertex  1.366910e+002 -1.100000e+001  9.174094e+001
      vertex  1.366910e+002  1.100000e+001  9.174094e+001
      vertex  1.346033e+002 -1.100000e+001  9.340582e+001
    endloop
  endfacet
  facet normal  6.234897e-001  -0.000000e+000  7.818315e-001
    outer loop
      vertex  1.346033e+002 -1.100000e+001  9.340582e+001
      vertex  1.366910e+002  1.100000e+001  9.174094e+001
      vertex  1.346033e+002  1.100000e+001  9.340582e+001
    endloop
  endfacet
  facet normal  2.225203e-001  0.000000e+000  9.749281e-001
    outer loop
      vertex  1.346033e+002 -1.100000e+001  9.340582e+001
      vertex  1.346033e+002  1.100000e+001  9.340582e+001
      vertex  1.320000e+002 -1.100000e+001  9.400000e+001
    endloop
  endfacet
  facet normal  2.225203e-001  -0.000000e+000  9.749281e-001
    outer loop
      vertex  1.320000e+002 -1.100000e+001  9.400000e+001
      vertex  1.346033e+002  1.100000e+001  9.340582e+001
      vertex  1.320000e+002  1.100000e+001  9.400000e+001
    endloop
  endfacet
  facet normal -2.225203e-001  0.000000e+000  9.749281e-001
    outer loop
      vertex  1.320000e+002 -1.100000e+001  9.400000e+001
      vertex  1.320000e+002  1.100000e+001  9.400000e+001
      vertex  1.293967e+002 -1.100000e+001  9.340582e+001
    endloop
  endfacet
  facet normal -2.225203e-001  0.000000e+000  9.749281e-001
    outer loop
      vertex  1.293967e+002 -1.100000e+001  9.340582e+001
      vertex  1.320000e+002  1.100000e+001  9.400000e+001
      vertex  1.293967e+002  1.100000e+001  9.340582e+001
    endloop
  endfacet
  facet normal -6.234912e-001  0.000000e+000  7.818304e-001
    outer loop
      vertex  1.293967e+002 -1.100000e+001  9.340582e+001
      vertex  1.293967e+002  1.100000e+001  9.340582e+001
      vertex  1.273090e+002 -1.100000e+001  9.174094e+001
    endloop
  endfacet
  facet normal -6.234912e-001  0.000000e+000  7.818304e-001
    outer loop
      vertex  1.273090e+002 -1.100000e+001  9.174094e+001
      vertex  1.293967e+002  1.100000e+001  9.340582e+001
      vertex  1.273090e+002  1.100000e+001  9.174094e+001
    endloop
  endfacet
  facet normal -9.009676e-001  0.000000e+000  4.338864e-001
    outer loop
      vertex  1.273090e+002 -1.100000e+001  9.174094e+001
      vertex  1.273090e+002  1.100000e+001  9.174094e+001
      vertex  1.261504e+002 -1.100000e+001  8.933513e+001
    endloop
  endfacet
  facet normal -9.009676e-001  0.000000e+000  4.338864e-001
    outer loop
      vertex  1.261504e+002 -1.100000e+001  8.933513e+001
      vertex  1.273090e+002  1.100000e+001  9.174094e+001
      vertex  1.261504e+002  1.100000e+001  8.933513e+001
    endloop
  endfacet
  facet normal -9.999999e-001  -0.000000e+000  0.000000e+000
    outer loop
      vertex  1.261504e+002 -1.100000e+001  8.933513e+001
      vertex  1.261504e+002  1.100000e+001  8.933513e+001
      vertex  1.261504e+002 -1.100000e+001  8.666487e+001
    endloop
  endfacet
  facet normal -9.999999e-001  0.000000e+000  0.000000e+000
    outer loop
      vertex  1.261504e+002 -1.100000e+001  8.666487e+001
      vertex  1.261504e+002  1.100000e+001  8.933513e+001
      vertex  1.261504e+002  1.100000e+001  8.666487e+001
    endloop
  endfacet
  facet normal -9.009676e-001  -0.000000e+000 -4.338864e-001
    outer loop
      vertex  1.261504e+002 -1.100000e+001  8.666487e+001
      vertex  1.261504e+002  1.100000e+001  8.666487e+001
      vertex  1.273090e+002 -1.100000e+001  8.425906e+001
    endloop
  endfacet
  facet normal -9.009676e-001  0.000000e+000 -4.338864e-001
    outer loop
      vertex  1.273090e+002 -1.100000e+001  8.425906e+001
      vertex  1.261504e+002  1.100000e+001  8.666487e+001
      vertex  1.273090e+002  1.100000e+001  8.425906e+001
    endloop
  endfacet
  facet normal -6.234912e-001  -0.000000e+000 -7.818304e-001
    outer loop
      vertex  1.273090e+002 -1.100000e+001  8.425906e+001
      vertex  1.273090e+002  1.100000e+001  8.425906e+001
      vertex  1.293967e+002 -1.100000e+001  8.259418e+001
    endloop
  endfacet
  facet normal -6.234912e-001  0.000000e+000 -7.818304e-001
    outer loop
      vertex  1.293967e+002 -1.100000e+001  8.259418e+001
      vertex  1.273090e+002  1.100000e+001  8.425906e+001
      vertex  1.293967e+002  1.100000e+001  8.259418e+001
    endloop
  endfacet
  facet normal -2.225203e-001  -0.000000e+000 -9.749281e-001
    outer loop
      vertex  1.293967e+002 -1.100000e+001  8.259418e+001
      vertex  1.293967e+002  1.100000e+001  8.259418e+001
      vertex  1.320000e+002 -1.100000e+001  8.200000e+001
    endloop
  endfacet
  facet normal -2.225203e-001  0.000000e+000 -9.749281e-001
    outer loop
      vertex  1.320000e+002 -1.100000e+001  8.200000e+001
      vertex  1.293967e+002  1.100000e+001  8.259418e+001
      vertex  1.320000e+002  1.100000e+001  8.200000e+001
    endloop
  endfacet
  facet normal  0.000000e+000  0.000000e+000  1.000000e+000
    outer loop
      vertex  1.200000e+002 -1.700000e+001  1.030000e+002
      vertex  1.420000e+002 -1.700000e+001  1.030000e+002
      vertex  1.200000e+002 -1.100000e+001  1.030000e+002
    endloop
  endfacet
  facet normal  -0.000000e+000  0.000000e+000  1.000000e+000
    outer loop
      vertex  1.200000e+002 -1.100000e+001  1.030000e+002
      vertex  1.420000e+002 -1.700000e+001  1.030000e+002
      vertex  1.420000e+002 -1.100000e+001  1.030000e+002
    endloop
  endfacet
  facet normal  0.000000e+000  0.000000e+000 -1.000000e+000
    outer loop
      vertex  1.200000e+002 -1.700000e+001  7.300000e+001
      vertex  1.200000e+002 -1.100000e+001  7.300000e+001
      vertex  1.420000e+002 -1.700000e+001  7.300000e+001
    endloop
  endfacet
  facet normal  0.000000e+000  0.000000e+000 -1.000000e+000
    outer loop
      vertex  1.420000e+002 -1.700000e+001  7.300000e+001
      vertex  1.200000e+002 -1.100000e+001  7.300000e+001
      vertex  1.420000e+002 -1.100000e+001  7.300000e+001
    endloop
  endfacet
  facet normal  1.000000e+000  -0.000000e+000  0.000000e+000
    outer loop
      vertex  1.200000e+002  1.700000e+001  1.175000e+002
      vertex  1.200000e+002 -1.700000e+001  1.175000e+002
      vertex  1.200000e+002 -1.700000e+001  1.030000e+002
    endloop
  endfacet
  facet normal  1.000000e+000  0.000000e+000  0.000000e+000
    outer loop
      vertex  1.200000e+002  1.700000e+001  1.175000e+002
      vertex  1.200000e+002 -1.700000e+001  1.030000e+002
      vertex  1.200000e+002 -1.100000e+001  1.030000e+002
    endloop
  endfacet
  facet normal  1.000000e+000  0.000000e+000  0.000000e+000
    outer loop
      vertex  1.200000e+002  1.700000e+001  1.175000e+002
      vertex  1.200000e+002 -1.100000e+001  1.030000e+002
      vertex  1.200000e+002  1.100000e+001  1.030000e+002
    endloop
  endfacet
  facet normal  1.000000e+000  0.000000e+000  0.000000e+000
    outer loop
      vertex  1.200000e+002  1.700000e+001  1.175000e+002
      vertex  1.200000e+002  1.100000e+001  1.030000e+002
      vertex  1.200000e+002  1.700000e+001  1.030000e+002
    endloop
  endfacet
  facet normal  1.000000e+000  0.000000e+000  0.000000e+000
    outer loop
      vertex  1.200000e+002  1.700000e+001  7.300000e+001
      vertex  1.200000e+002 -1.700000e+001  1.500000e+001
      vertex  1.200000e+002 -1.100000e+001  1.500000e+001
    endloop
  endfacet
  facet normal  1.000000e+000  0.000000e+000  0.000000e+000
    outer loop
      vertex  1.200000e+002  1.700000e+001  7.300000e+001
      vertex  1.200000e+002 -1.100000e+001  1.500000e+001
      vertex  1.200000e+002  1.100000e+001  1.500000e+001
    endloop
  endfacet
  facet normal  1.000000e+000  0.000000e+000  0.000000e+000
    outer loop
      vertex  1.200000e+002  1.700000e+001  7.300000e+001
      vertex  1.200000e+002  1.100000e+001  1.500000e+001
      vertex  1.200000e+002  1.700000e+001  1.500000e+001
    endloop
  endfacet
  facet normal  1.000000e+000  0.000000e+000  0.000000e+000
    outer loop
      vertex  1.200000e+002 -1.700000e+001  1.500000e+001
      vertex  1.200000e+002  1.700000e+001  7.300000e+001
      vertex  1.200000e+002  1.100000e+001  7.300000e+001
    endloop
  endfacet
  facet normal  1.000000e+000  0.000000e+000  0.000000e+000
    outer loop
      vertex  1.200000e+002 -1.700000e+001  1.500000e+001
      vertex  1.200000e+002  1.100000e+001  7.300000e+001
      vertex  1.200000e+002 -1.100000e+001  7.300000e+001
    endloop
  endfacet
  facet normal  1.000000e+000  0.000000e+000  0.000000e+000
    outer loop
      vertex  1.200000e+002 -1.700000e+001  1.500000e+001
      vertex  1.200000e+002 -1.100000e+001  7.300000e+001
      vertex  1.200000e+002 -1.700000e+001  7.300000e+001
    endloop
  endfacet
  facet normal  1.000000e+000  0.000000e+000  0.000000e+000
    outer loop
      vertex  1.200000e+002  1.700000e+001 -1.500000e+001
      vertex  1.200000e+002 -1.700000e+001 -7.300000e+001
      vertex  1.200000e+002 -1.100000e+001 -7.300000e+001
    endloop
  endfacet
  facet normal  1.000000e+000  0.000000e+000  0.000000e+000
    outer loop
      vertex  1.200000e+002  1.700000e+001 -1.500000e+001
      vertex  1.200000e+002 -1.100000e+001 -7.300000e+001
      vertex  1.200000e+002  1.100000e+001 -7.300000e+001
    endloop
  endfacet
  facet normal  1.000000e+000  0.000000e+000  0.000000e+000
    outer loop
      vertex  1.200000e+002  1.700000e+001 -1.500000e+001
      vertex  1.200000e+002  1.100000e+001 -7.300000e+001
      vertex  1.200000e+002  1.700000e+001 -7.300000e+001
    endloop
  endfacet
  facet normal  1.000000e+000  0.000000e+000  0.000000e+000
    outer loop
      vertex  1.200000e+002 -1.700000e+001 -7.300000e+001
      vertex  1.200000e+002  1.700000e+001 -1.500000e+001
      vertex  1.200000e+002  1.100000e+001 -1.500000e+001
    endloop
  endfacet
  facet normal  1.000000e+000  0.000000e+000  0.000000e+000
    outer loop
      vertex  1.200000e+002 -1.700000e+001 -7.300000e+001
      vertex  1.200000e+002  1.100000e+001 -1.500000e+001
      vertex  1.200000e+002 -1.100000e+001 -1.500000e+001
    endloop
  endfacet
  facet normal  1.000000e+000  0.000000e+000  0.000000e+000
    outer loop
      vertex  1.200000e+002 -1.700000e+001 -7.300000e+001
      vertex  1.200000e+002 -1.100000e+001 -1.500000e+001
      vertex  1.200000e+002 -1.700000e+001 -1.500000e+001
    endloop
  endfacet
  facet normal  1.000000e+000  0.000000e+000  -0.000000e+000
    outer loop
      vertex  1.200000e+002 -1.700000e+001 -1.175000e+002
      vertex  1.200000e+002  1.700000e+001 -1.175000e+002
      vertex  1.200000e+002  1.700000e+001 -1.030000e+002
    endloop
  endfacet
  facet normal  1.000000e+000  0.000000e+000  0.000000e+000
    outer loop
      vertex  1.200000e+002 -1.700000e+001 -1.175000e+002
      vertex  1.200000e+002  1.700000e+001 -1.030000e+002
      vertex  1.200000e+002  1.100000e+001 -1.030000e+002
    endloop
  endfacet
  facet normal  1.000000e+000  0.000000e+000  0.000000e+000
    outer loop
      vertex  1.200000e+002 -1.700000e+001 -1.175000e+002
      vertex  1.200000e+002  1.100000e+001 -1.030000e+002
      vertex  1.200000e+002 -1.100000e+001 -1.030000e+002
    endloop
  endfacet
  facet normal  1.000000e+000  0.000000e+000  0.000000e+000
    outer loop
      vertex  1.200000e+002 -1.700000e+001 -1.175000e+002
      vertex  1.200000e+002 -1.100000e+001 -1.030000e+002
      vertex  1.200000e+002 -1.700000e+001 -1.030000e+002
    endloop
  endfacet
  facet normal  9.999999e-001  0.000000e+000  0.000000e+000
    outer loop
      vertex  1.200000e+002 -1.100000e+001  7.300000e+001
      vertex  1.200000e+002  1.100000e+001  7.300000e+001
      vertex  1.200000e+002 -1.100000e+001  1.030000e+002
    endloop
  endfacet
  facet normal  9.999999e-001  -0.000000e+000  0.000000e+000
    outer loop
      vertex  1.200000e+002 -1.100000e+001  1.030000e+002
      vertex  1.200000e+002  1.100000e+001  7.300000e+001
      vertex  1.200000e+002  1.100000e+001  1.030000e+002
    endloop
  endfacet
  facet normal  9.999999e-001  0.000000e+000  0.000000e+000
    outer loop
      vertex  1.200000e+002 -1.100000e+001 -1.500000e+001
      vertex  1.200000e+002  1.100000e+001 -1.500000e+001
      vertex  1.200000e+002 -1.100000e+001  1.500000e+001
    endloop
  endfacet
  facet normal  9.999999e-001  -0.000000e+000  0.000000e+000
    outer loop
      vertex  1.200000e+002 -1.100000e+001  1.500000e+001
      vertex  1.200000e+002  1.100000e+001 -1.500000e+001
      vertex  1.200000e+002  1.100000e+001  1.500000e+001
    endloop
  endfacet
  facet normal  9.999999e-001  0.000000e+000  0.000000e+000
    outer loop
      vertex  1.200000e+002 -1.100000e+001 -1.030000e+002
      vertex  1.200000e+002  1.100000e+001 -1.030000e+002
      vertex  1.200000e+002 -1.100000e+001 -7.300000e+001
    endloop
  endfacet
  facet normal  9.999999e-001  -0.000000e+000  0.000000e+000
    outer loop
      vertex  1.200000e+002 -1.100000e+001 -7.300000e+001
      vertex  1.200000e+002  1.100000e+001 -1.030000e+002
      vertex  1.200000e+002  1.100000e+001 -7.300000e+001
    endloop
  endfacet
  facet normal  1.000000e+000  0.000000e+000  0.000000e+000
    outer loop
      vertex  1.420000e+002 -1.700000e+001  7.300000e+001
      vertex  1.420000e+002 -1.100000e+001  7.300000e+001
      vertex  1.420000e+002 -1.700000e+001  1.030000e+002
    endloop
  endfacet
  facet normal  1.000000e+000  -0.000000e+000  0.000000e+000
    outer loop
      vertex  1.420000e+002 -1.700000e+001  1.030000e+002
      vertex  1.420000e+002 -1.100000e+001  7.300000e+001
      vertex  1.420000e+002 -1.100000e+001  1.030000e+002
    endloop
  endfacet
  facet normal  0.000000e+000  0.000000e+000  1.000000e+000
    outer loop
      vertex  1.200000e+002  1.100000e+001  1.030000e+002
      vertex  1.420000e+002  1.100000e+001  1.030000e+002
      vertex  1.200000e+002  1.700000e+001  1.030000e+002
    endloop
  endfacet
  facet normal  -0.000000e+000  0.000000e+000  1.000000e+000
    outer loop
      vertex  1.200000e+002  1.700000e+001  1.030000e+002
      vertex  1.420000e+002  1.100000e+001  1.030000e+002
      vertex  1.420000e+002  1.700000e+001  1.030000e+002
    endloop
  endfacet
  facet normal  0.000000e+000  0.000000e+000 -1.000000e+000
    outer loop
      vertex  1.200000e+002  1.100000e+001  7.300000e+001
      vertex  1.200000e+002  1.700000e+001  7.300000e+001
      vertex  1.420000e+002  1.100000e+001  7.300000e+001
    endloop
  endfacet
  facet normal  0.000000e+000  0.000000e+000 -1.000000e+000
    outer loop
      vertex  1.420000e+002  1.100000e+001  7.300000e+001
      vertex  1.200000e+002  1.700000e+001  7.300000e+001
      vertex  1.420000e+002  1.700000e+001  7.300000e+001
    endloop
  endfacet
  facet normal  1.000000e+000  0.000000e+000  0.000000e+000
    outer loop
      vertex  1.420000e+002  1.100000e+001  7.300000e+001
      vertex  1.420000e+002  1.700000e+001  7.300000e+001
      vertex  1.420000e+002  1.100000e+001  1.030000e+002
    endloop
  endfacet
  facet normal  1.000000e+000  -0.000000e+000  0.000000e+000
    outer loop
      vertex  1.420000e+002  1.100000e+001  1.030000e+002
      vertex  1.420000e+002  1.700000e+001  7.300000e+001
      vertex  1.420000e+002  1.700000e+001  1.030000e+002
    endloop
  endfacet
  facet normal  0.000000e+000 -9.999999e-001  -0.000000e+000
    outer loop
      vertex  1.420000e+002  1.100000e+001 -1.500000e+001
      vertex  1.420000e+002  1.100000e+001  1.500000e+001
      vertex  1.378496e+002  1.100000e+001  1.335126e+000
    endloop
  endfacet
  facet normal  0.000000e+000 -1.000000e+000  0.000000e+000
    outer loop
      vertex  1.420000e+002  1.100000e+001 -1.500000e+001
      vertex  1.378496e+002  1.100000e+001  1.335126e+000
      vertex  1.378496e+002  1.100000e+001 -1.335126e+000
    endloop
  endfacet
  facet normal  0.000000e+000 -1.000000e+000  -0.000000e+000
    outer loop
      vertex  1.420000e+002  1.100000e+001 -1.500000e+001
      vertex  1.378496e+002  1.100000e+001 -1.335126e+000
      vertex  1.366910e+002  1.100000e+001 -3.740939e+000
    endloop
  endfacet
  facet normal  0.000000e+000 -1.000000e+000  -0.000000e+000
    outer loop
      vertex  1.420000e+002  1.100000e+001 -1.500000e+001
      vertex  1.366910e+002  1.100000e+001 -3.740939e+000
      vertex  1.346033e+002  1.100000e+001 -5.405813e+000
    endloop
  endfacet
  facet normal  0.000000e+000 -1.000000e+000  -0.000000e+000
    outer loop
      vertex  1.420000e+002  1.100000e+001 -1.500000e+001
      vertex  1.346033e+002  1.100000e+001 -5.405813e+000
      vertex  1.320000e+002  1.100000e+001 -6.000000e+000
    endloop
  endfacet
  facet normal  0.000000e+000 -1.000000e+000  -0.000000e+000
    outer loop
      vertex  1.420000e+002  1.100000e+001 -1.500000e+001
      vertex  1.320000e+002  1.100000e+001 -6.000000e+000
      vertex  1.200000e+002  1.100000e+001 -1.500000e+001
    endloop
  endfacet
  facet normal  0.000000e+000 -1.000000e+000  0.000000e+000
    outer loop
      vertex  1.200000e+002  1.100000e+001  1.500000e+001
      vertex  1.200000e+002  1.100000e+001 -1.500000e+001
      vertex  1.261504e+002  1.100000e+001 -1.335126e+000
    endloop
  endfacet
  facet normal  0.000000e+000 -1.000000e+000  0.000000e+000
    outer loop
      vertex  1.200000e+002  1.100000e+001  1.500000e+001
      vertex  1.261504e+002  1.100000e+001 -1.335126e+000
      vertex  1.261504e+002  1.100000e+001  1.335126e+000
    endloop
  endfacet
  facet normal  0.000000e+000 -1.000000e+000  0.000000e+000
    outer loop
      vertex  1.200000e+002  1.100000e+001  1.500000e+001
      vertex  1.261504e+002  1.100000e+001  1.335126e+000
      vertex  1.273090e+002  1.100000e+001  3.740939e+000
    endloop
  endfacet
  facet normal  0.000000e+000 -1.000000e+000  0.000000e+000
    outer loop
      vertex  1.200000e+002  1.100000e+001  1.500000e+001
      vertex  1.273090e+002  1.100000e+001  3.740939e+000
      vertex  1.293967e+002  1.100000e+001  5.405813e+000
    endloop
  endfacet
  facet normal  0.000000e+000 -9.999999e-001  0.000000e+000
    outer loop
      vertex  1.200000e+002  1.100000e+001  1.500000e+001
      vertex  1.293967e+002  1.100000e+001  5.405813e+000
      vertex  1.320000e+002  1.100000e+001  6.000000e+000
    endloop
  endfacet
  facet normal  0.000000e+000 -1.000000e+000  0.000000e+000
    outer loop
      vertex  1.200000e+002  1.100000e+001  1.500000e+001
      vertex  1.320000e+002  1.100000e+001  6.000000e+000
      vertex  1.420000e+002  1.100000e+001  1.500000e+001
    endloop
  endfacet
  facet normal  -0.000000e+000 -9.999999e-001  0.000000e+000
    outer loop
      vertex  1.200000e+002  1.100000e+001 -1.500000e+001
      vertex  1.320000e+002  1.100000e+001 -6.000000e+000
      vertex  1.293967e+002  1.100000e+001 -5.405813e+000
    endloop
  endfacet
  facet normal  -0.000000e+000 -1.000000e+000  0.000000e+000
    outer loop
      vertex  1.200000e+002  1.100000e+001 -1.500000e+001
      vertex  1.293967e+002  1.100000e+001 -5.405813e+000
      vertex  1.273090e+002  1.100000e+001 -3.740939e+000
    endloop
  endfacet
  facet normal  -0.000000e+000 -1.000000e+000  0.000000e+000
    outer loop
      vertex  1.200000e+002  1.100000e+001 -1.500000e+001
      vertex  1.273090e+002  1.100000e+001 -3.740939e+000
      vertex  1.261504e+002  1.100000e+001 -1.335126e+000
    endloop
  endfacet
  facet normal  0.000000e+000 -1.000000e+000  0.000000e+000
    outer loop
      vertex  1.420000e+002  1.100000e+001  1.500000e+001
      vertex  1.320000e+002  1.100000e+001  6.000000e+000
      vertex  1.346033e+002  1.100000e+001  5.405813e+000
    endloop
  endfacet
  facet normal  0.000000e+000 -1.000000e+000  0.000000e+000
    outer loop
      vertex  1.420000e+002  1.100000e+001  1.500000e+001
      vertex  1.346033e+002  1.100000e+001  5.405813e+000
      vertex  1.366910e+002  1.100000e+001  3.740939e+000
    endloop
  endfacet
  facet normal  0.000000e+000 -1.000000e+000  0.000000e+000
    outer loop
      vertex  1.420000e+002  1.100000e+001  1.500000e+001
      vertex  1.366910e+002  1.100000e+001  3.740939e+000
      vertex  1.378496e+002  1.100000e+001  1.335126e+000
    endloop
  endfacet
  facet normal  0.000000e+000  1.000000e+000  0.000000e+000
    outer loop
      vertex  1.200000e+002 -1.100000e+001 -1.500000e+001
      vertex  1.200000e+002 -1.100000e+001  1.500000e+001
      vertex  1.261504e+002 -1.100000e+001  1.335126e+000
    endloop
  endfacet
  facet normal  0.000000e+000  1.000000e+000  0.000000e+000
    outer loop
      vertex  1.200000e+002 -1.100000e+001 -1.500000e+001
      vertex  1.261504e+002 -1.100000e+001  1.335126e+000
      vertex  1.261504e+002 -1.100000e+001 -1.335126e+000
    endloop
  endfacet
  facet normal  0.000000e+000  1.000000e+000  0.000000e+000
    outer loop
      vertex  1.200000e+002 -1.100000e+001 -1.500000e+001
      vertex  1.261504e+002 -1.100000e+001 -1.335126e+000
      vertex  1.273090e+002 -1.100000e+001 -3.740939e+000
    endloop
  endfacet
  facet normal  0.000000e+000  1.000000e+000  0.000000e+000
    outer loop
      vertex  1.200000e+002 -1.100000e+001 -1.500000e+001
      vertex  1.273090e+002 -1.100000e+001 -3.740939e+000
      vertex  1.293967e+002 -1.100000e+001 -5.405813e+000
    endloop
  endfacet
  facet normal  0.000000e+000  9.999999e-001  0.000000e+000
    outer loop
      vertex  1.200000e+002 -1.100000e+001 -1.500000e+001
      vertex  1.293967e+002 -1.100000e+001 -5.405813e+000
      vertex  1.320000e+002 -1.100000e+001 -6.000000e+000
    endloop
  endfacet
  facet normal  0.000000e+000  1.000000e+000  0.000000e+000
    outer loop
      vertex  1.200000e+002 -1.100000e+001 -1.500000e+001
      vertex  1.320000e+002 -1.100000e+001 -6.000000e+000
      vertex  1.420000e+002 -1.100000e+001 -1.500000e+001
    endloop
  endfacet
  facet normal  0.000000e+000  9.999999e-001  -0.000000e+000
    outer loop
      vertex  1.420000e+002 -1.100000e+001  1.500000e+001
      vertex  1.420000e+002 -1.100000e+001 -1.500000e+001
      vertex  1.378496e+002 -1.100000e+001 -1.335126e+000
    endloop
  endfacet
  facet normal  0.000000e+000  1.000000e+000  0.000000e+000
    outer loop
      vertex  1.420000e+002 -1.100000e+001  1.500000e+001
      vertex  1.378496e+002 -1.100000e+001 -1.335126e+000
      vertex  1.378496e+002 -1.100000e+001  1.335126e+000
    endloop
  endfacet
  facet normal  0.000000e+000  1.000000e+000  -0.000000e+000
    outer loop
      vertex  1.420000e+002 -1.100000e+001  1.500000e+001
      vertex  1.378496e+002 -1.100000e+001  1.335126e+000
      vertex  1.366910e+002 -1.100000e+001  3.740939e+000
    endloop
  endfacet
  facet normal  0.000000e+000  1.000000e+000  -0.000000e+000
    outer loop
      vertex  1.420000e+002 -1.100000e+001  1.500000e+001
      vertex  1.366910e+002 -1.100000e+001  3.740939e+000
      vertex  1.346033e+002 -1.100000e+001  5.405813e+000
    endloop
  endfacet
  facet normal  0.000000e+000  1.000000e+000  -0.000000e+000
    outer loop
      vertex  1.420000e+002 -1.100000e+001  1.500000e+001
      vertex  1.346033e+002 -1.100000e+001  5.405813e+000
      vertex  1.320000e+002 -1.100000e+001  6.000000e+000
    endloop
  endfacet
  facet normal  0.000000e+000  1.000000e+000  -0.000000e+000
    outer loop
      vertex  1.420000e+002 -1.100000e+001  1.500000e+001
      vertex  1.320000e+002 -1.100000e+001  6.000000e+000
      vertex  1.200000e+002 -1.100000e+001  1.500000e+001
    endloop
  endfacet
  facet normal  -0.000000e+000  1.000000e+000  0.000000e+000
    outer loop
      vertex  1.420000e+002 -1.100000e+001 -1.500000e+001
      vertex  1.320000e+002 -1.100000e+001 -6.000000e+000
      vertex  1.346033e+002 -1.100000e+001 -5.405813e+000
    endloop
  endfacet
  facet normal  -0.000000e+000  1.000000e+000  0.000000e+000
    outer loop
      vertex  1.420000e+002 -1.100000e+001 -1.500000e+001
      vertex  1.346033e+002 -1.100000e+001 -5.405813e+000
      vertex  1.366910e+002 -1.100000e+001 -3.740939e+000
    endloop
  endfacet
  facet normal  -0.000000e+000  1.000000e+000  0.000000e+000
    outer loop
      vertex  1.420000e+002 -1.100000e+001 -1.500000e+001
      vertex  1.366910e+002 -1.100000e+001 -3.740939e+000
      vertex  1.378496e+002 -1.100000e+001 -1.335126e+000
    endloop
  endfacet
  facet normal  0.000000e+000  9.999999e-001  0.000000e+000
    outer loop
      vertex  1.200000e+002 -1.100000e+001  1.500000e+001
      vertex  1.320000e+002 -1.100000e+001  6.000000e+000
      vertex  1.293967e+002 -1.100000e+001  5.405813e+000
    endloop
  endfacet
  facet normal  0.000000e+000  1.000000e+000  0.000000e+000
    outer loop
      vertex  1.200000e+002 -1.100000e+001  1.500000e+001
      vertex  1.293967e+002 -1.100000e+001  5.405813e+000
      vertex  1.273090e+002 -1.100000e+001  3.740939e+000
    endloop
  endfacet
  facet normal  0.000000e+000  1.000000e+000  0.000000e+000
    outer loop
      vertex  1.200000e+002 -1.100000e+001  1.500000e+001
      vertex  1.273090e+002 -1.100000e+001  3.740939e+000
      vertex  1.261504e+002 -1.100000e+001  1.335126e+000
    endloop
  endfacet
  facet normal  2.225210e-001  0.000000e+000 -9.749280e-001
    outer loop
      vertex  1.320000e+002 -1.100000e+001 -6.000000e+000
      vertex  1.320000e+002  1.100000e+001 -6.000000e+000
      vertex  1.346033e+002 -1.100000e+001 -5.405813e+000
    endloop
  endfacet
  facet normal  2.225210e-001  0.000000e+000 -9.749280e-001
    outer loop
      vertex  1.346033e+002 -1.100000e+001 -5.405813e+000
      vertex  1.320000e+002  1.100000e+001 -6.000000e+000
      vertex  1.346033e+002  1.100000e+001 -5.405813e+000
    endloop
  endfacet
  facet normal  6.234887e-001  0.000000e+000 -7.818323e-001
    outer loop
      vertex  1.346033e+002 -1.100000e+001 -5.405813e+000
      vertex  1.346033e+002  1.100000e+001 -5.405813e+000
      vertex  1.366910e+002 -1.100000e+001 -3.740939e+000
    endloop
  endfacet
  facet normal  6.234887e-001  0.000000e+000 -7.818323e-001
    outer loop
      vertex  1.366910e+002 -1.100000e+001 -3.740939e+000
      vertex  1.346033e+002  1.100000e+001 -5.405813e+000
      vertex  1.366910e+002  1.100000e+001 -3.740939e+000
    endloop
  endfacet
  facet normal  9.009702e-001  0.000000e+000 -4.338809e-001
    outer loop
      vertex  1.366910e+002 -1.100000e+001 -3.740939e+000
      vertex  1.366910e+002  1.100000e+001 -3.740939e+000
      vertex  1.378496e+002 -1.100000e+001 -1.335126e+000
    endloop
  endfacet
  facet normal  9.009702e-001  0.000000e+000 -4.338809e-001
    outer loop
      vertex  1.378496e+002 -1.100000e+001 -1.335126e+000
      vertex  1.366910e+002  1.100000e+001 -3.740939e+000
      vertex  1.378496e+002  1.100000e+001 -1.335126e+000
    endloop
  endfacet
  facet normal  9.999999e-001  0.000000e+000  0.000000e+000
    outer loop
      vertex  1.378496e+002 -1.100000e+001 -1.335126e+000
      vertex  1.378496e+002  1.100000e+001 -1.335126e+000
      vertex  1.378496e+002 -1.100000e+001  1.335126e+000
    endloop
  endfacet
  facet normal  9.999999e-001  -0.000000e+000  0.000000e+000
    outer loop
      vertex  1.378496e+002 -1.100000e+001  1.335126e+000
      vertex  1.378496e+002  1.100000e+001 -1.335126e+000
      vertex  1.378496e+002  1.100000e+001  1.335126e+000
    endloop
  endfacet
  facet normal  9.009702e-001  0.000000e+000  4.338809e-001
    outer loop
      vertex  1.378496e+002 -1.100000e+001  1.335126e+000
      vertex  1.378496e+002  1.100000e+001  1.335126e+000
      vertex  1.366910e+002 -1.100000e+001  3.740939e+000
    endloop
  endfacet
  facet normal  9.009702e-001  -0.000000e+000  4.338809e-001
    outer loop
      vertex  1.366910e+002 -1.100000e+001  3.740939e+000
      vertex  1.378496e+002  1.100000e+001  1.335126e+000
      vertex  1.366910e+002  1.100000e+001  3.740939e+000
    endloop
  endfacet
  facet normal  6.234887e-001  0.000000e+000  7.818323e-001
    outer loop
      vertex  1.366910e+002 -1.100000e+001  3.740939e+000
      vertex  1.366910e+002  1.100000e+001  3.740939e+000
      vertex  1.346033e+002 -1.100000e+001  5.405813e+000
    endloop
  endfacet
  facet normal  6.234887e-001  -0.000000e+000  7.818323e-001
    outer loop
      vertex  1.346033e+002 -1.100000e+001  5.405813e+000
      vertex  1.366910e+002  1.100000e+001  3.740939e+000
      vertex  1.346033e+002  1.100000e+001  5.405813e+000
    endloop
  endfacet
  facet normal  2.225210e-001  0.000000e+000  9.749280e-001
    outer loop
      vertex  1.346033e+002 -1.100000e+001  5.405813e+000
      vertex  1.346033e+002  1.100000e+001  5.405813e+000
      vertex  1.320000e+002 -1.100000e+001  6.000000e+000
    endloop
  endfacet
  facet normal  2.225210e-001  -0.000000e+000  9.749280e-001
    outer loop
      vertex  1.320000e+002 -1.100000e+001  6.000000e+000
      vertex  1.346033e+002  1.100000e+001  5.405813e+000
      vertex  1.320000e+002  1.100000e+001  6.000000e+000
    endloop
  endfacet
  facet normal -2.225210e-001  0.000000e+000  9.749280e-001
    outer loop
      vertex  1.320000e+002 -1.100000e+001  6.000000e+000
      vertex  1.320000e+002  1.100000e+001  6.000000e+000
      vertex  1.293967e+002 -1.100000e+001  5.405813e+000
    endloop
  endfacet
  facet normal -2.225210e-001  0.000000e+000  9.749280e-001
    outer loop
      vertex  1.293967e+002 -1.100000e+001  5.405813e+000
      vertex  1.320000e+002  1.100000e+001  6.000000e+000
      vertex  1.293967e+002  1.100000e+001  5.405813e+000
    endloop
  endfacet
  facet normal -6.234901e-001  0.000000e+000  7.818312e-001
    outer loop
      vertex  1.293967e+002 -1.100000e+001  5.405813e+000
      vertex  1.293967e+002  1.100000e+001  5.405813e+000
      vertex  1.273090e+002 -1.100000e+001  3.740939e+000
    endloop
  endfacet
  facet normal -6.234901e-001  0.000000e+000  7.818312e-001
    outer loop
      vertex  1.273090e+002 -1.100000e+001  3.740939e+000
      vertex  1.293967e+002  1.100000e+001  5.405813e+000
      vertex  1.273090e+002  1.100000e+001  3.740939e+000
    endloop
  endfacet
  facet normal -9.009680e-001  0.000000e+000  4.338855e-001
    outer loop
      vertex  1.273090e+002 -1.100000e+001  3.740939e+000
      vertex  1.273090e+002  1.100000e+001  3.740939e+000
      vertex  1.261504e+002 -1.100000e+001  1.335126e+000
    endloop
  endfacet
  facet normal -9.009680e-001  0.000000e+000  4.338855e-001
    outer loop
      vertex  1.261504e+002 -1.100000e+001  1.335126e+000
      vertex  1.273090e+002  1.100000e+001  3.740939e+000
      vertex  1.261504e+002  1.100000e+001  1.335126e+000
    endloop
  endfacet
  facet normal -9.999999e-001  -0.000000e+000  0.000000e+000
    outer loop
      vertex  1.261504e+002 -1.100000e+001  1.335126e+000
      vertex  1.261504e+002  1.100000e+001  1.335126e+000
      vertex  1.261504e+002 -1.100000e+001 -1.335126e+000
    endloop
  endfacet
  facet normal -9.999999e-001  0.000000e+000  0.000000e+000
    outer loop
      vertex  1.261504e+002 -1.100000e+001 -1.335126e+000
      vertex  1.261504e+002  1.100000e+001  1.335126e+000
      vertex  1.261504e+002  1.100000e+001 -1.335126e+000
    endloop
  endfacet
  facet normal -9.009680e-001  -0.000000e+000 -4.338855e-001
    outer loop
      vertex  1.261504e+002 -1.100000e+001 -1.335126e+000
      vertex  1.261504e+002  1.100000e+001 -1.335126e+000
      vertex  1.273090e+002 -1.100000e+001 -3.740939e+000
    endloop
  endfacet
  facet normal -9.009680e-001  0.000000e+000 -4.338855e-001
    outer loop
      vertex  1.273090e+002 -1.100000e+001 -3.740939e+000
      vertex  1.261504e+002  1.100000e+001 -1.335126e+000
      vertex  1.273090e+002  1.100000e+001 -3.740939e+000
    endloop
  endfacet
  facet normal -6.234901e-001  -0.000000e+000 -7.818312e-001
    outer loop
      vertex  1.273090e+002 -1.100000e+001 -3.740939e+000
      vertex  1.273090e+002  1.100000e+001 -3.740939e+000
      vertex  1.293967e+002 -1.100000e+001 -5.405813e+000
    endloop
  endfacet
  facet normal -6.234901e-001  0.000000e+000 -7.818312e-001
    outer loop
      vertex  1.293967e+002 -1.100000e+001 -5.405813e+000
      vertex  1.273090e+002  1.100000e+001 -3.740939e+000
      vertex  1.293967e+002  1.100000e+001 -5.405813e+000
    endloop
  endfacet
  facet normal -2.225210e-001  -0.000000e+000 -9.749280e-001
    outer loop
      vertex  1.293967e+002 -1.100000e+001 -5.405813e+000
      vertex  1.293967e+002  1.100000e+001 -5.405813e+000
      vertex  1.320000e+002 -1.100000e+001 -6.000000e+000
    endloop
  endfacet
  facet normal -2.225210e-001  0.000000e+000 -9.749280e-001
    outer loop
      vertex  1.320000e+002 -1.100000e+001 -6.000000e+000
      vertex  1.293967e+002  1.100000e+001 -5.405813e+000
      vertex  1.320000e+002  1.100000e+001 -6.000000e+000
    endloop
  endfacet
  facet normal  0.000000e+000  0.000000e+000  1.000000e+000
    outer loop
      vertex  1.200000e+002 -1.700000e+001  1.500000e+001
      vertex  1.420000e+002 -1.700000e+001  1.500000e+001
      vertex  1.200000e+002 -1.100000e+001  1.500000e+001
    endloop
  endfacet
  facet normal  -0.000000e+000  0.000000e+000  1.000000e+000
    outer loop
      vertex  1.200000e+002 -1.100000e+001  1.500000e+001
      vertex  1.420000e+002 -1.700000e+001  1.500000e+001
      vertex  1.420000e+002 -1.100000e+001  1.500000e+001
    endloop
  endfacet
  facet normal  0.000000e+000  0.000000e+000 -1.000000e+000
    outer loop
      vertex  1.200000e+002 -1.700000e+001 -1.500000e+001
      vertex  1.200000e+002 -1.100000e+001 -1.500000e+001
      vertex  1.420000e+002 -1.700000e+001 -1.500000e+001
    endloop
  endfacet
  facet normal  0.000000e+000  0.000000e+000 -1.000000e+000
    outer loop
      vertex  1.420000e+002 -1.700000e+001 -1.500000e+001
      vertex  1.200000e+002 -1.100000e+001 -1.500000e+001
      vertex  1.420000e+002 -1.100000e+001 -1.500000e+001
    endloop
  endfacet
  facet normal  1.000000e+000  0.000000e+000  0.000000e+000
    outer loop
      vertex  1.420000e+002 -1.700000e+001 -1.500000e+001
      vertex  1.420000e+002 -1.100000e+001 -1.500000e+001
      vertex  1.420000e+002 -1.700000e+001  1.500000e+001
    endloop
  endfacet
  facet normal  1.000000e+000  -0.000000e+000  0.000000e+000
    outer loop
      vertex  1.420000e+002 -1.700000e+001  1.500000e+001
      vertex  1.420000e+002 -1.100000e+001 -1.500000e+001
      vertex  1.420000e+002 -1.100000e+001  1.500000e+001
    endloop
  endfacet
  facet normal  0.000000e+000  0.000000e+000  1.000000e+000
    outer loop
      vertex  1.200000e+002  1.100000e+001  1.500000e+001
      vertex  1.420000e+002  1.100000e+001  1.500000e+001
      vertex  1.200000e+002  1.700000e+001  1.500000e+001
    endloop
  endfacet
  facet normal  -0.000000e+000  0.000000e+000  1.000000e+000
    outer loop
      vertex  1.200000e+002  1.700000e+001  1.500000e+001
      vertex  1.420000e+002  1.100000e+001  1.500000e+001
      vertex  1.420000e+002  1.700000e+001  1.500000e+001
    endloop
  endfacet
  facet normal  0.000000e+000  0.000000e+000 -1.000000e+000
    outer loop
      vertex  1.200000e+002  1.100000e+001 -1.500000e+001
      vertex  1.200000e+002  1.700000e+001 -1.500000e+001
      vertex  1.420000e+002  1.100000e+001 -1.500000e+001
    endloop
  endfacet
  facet normal  0.000000e+000  0.000000e+000 -1.000000e+000
    outer loop
      vertex  1.420000e+002  1.100000e+001 -1.500000e+001
      vertex  1.200000e+002  1.700000e+001 -1.500000e+001
      vertex  1.420000e+002  1.700000e+001 -1.500000e+001
    endloop
  endfacet
  facet normal  1.000000e+000  0.000000e+000  0.000000e+000
    outer loop
      vertex  1.420000e+002  1.100000e+001 -1.500000e+001
      vertex  1.420000e+002  1.700000e+001 -1.500000e+001
      vertex  1.420000e+002  1.100000e+001  1.500000e+001
    endloop
  endfacet
  facet normal  1.000000e+000  -0.000000e+000  0.000000e+000
    outer loop
      vertex  1.420000e+002  1.100000e+001  1.500000e+001
      vertex  1.420000e+002  1.700000e+001 -1.500000e+001
      vertex  1.420000e+002  1.700000e+001  1.500000e+001
    endloop
  endfacet
  facet normal  0.000000e+000 -1.000000e+000  0.000000e+000
    outer loop
      vertex  1.420000e+002  1.100000e+001 -7.300000e+001
      vertex  1.200000e+002  1.100000e+001 -7.300000e+001
      vertex  1.346033e+002  1.100000e+001 -8.259418e+001
    endloop
  endfacet
  facet normal  0.000000e+000 -1.000000e+000  0.000000e+000
    outer loop
      vertex  1.420000e+002  1.100000e+001 -7.300000e+001
      vertex  1.346033e+002  1.100000e+001 -8.259418e+001
      vertex  1.366910e+002  1.100000e+001 -8.425906e+001
    endloop
  endfacet
  facet normal  0.000000e+000 -1.000000e+000  0.000000e+000
    outer loop
      vertex  1.420000e+002  1.100000e+001 -7.300000e+001
      vertex  1.366910e+002  1.100000e+001 -8.425906e+001
      vertex  1.378496e+002  1.100000e+001 -8.666487e+001
    endloop
  endfacet
  facet normal  0.000000e+000 -1.000000e+000  0.000000e+000
    outer loop
      vertex  1.420000e+002  1.100000e+001 -7.300000e+001
      vertex  1.378496e+002  1.100000e+001 -8.666487e+001
      vertex  1.378496e+002  1.100000e+001 -8.933513e+001
    endloop
  endfacet
  facet normal  0.000000e+000 -9.999999e-001  0.000000e+000
    outer loop
      vertex  1.420000e+002  1.100000e+001 -7.300000e+001
      vertex  1.378496e+002  1.100000e+001 -8.933513e+001
      vertex  1.420000e+002  1.100000e+001 -1.030000e+002
    endloop
  endfacet
  facet normal  0.000000e+000 -1.000000e+000  0.000000e+000
    outer loop
      vertex  1.200000e+002  1.100000e+001 -1.030000e+002
      vertex  1.346033e+002  1.100000e+001 -9.340582e+001
      vertex  1.320000e+002  1.100000e+001 -9.400000e+001
    endloop
  endfacet
  facet normal  -0.000000e+000 -1.000000e+000  0.000000e+000
    outer loop
      vertex  1.200000e+002  1.100000e+001 -1.030000e+002
      vertex  1.320000e+002  1.100000e+001 -9.400000e+001
      vertex  1.293967e+002  1.100000e+001 -9.340582e+001
    endloop
  endfacet
  facet normal  -0.000000e+000 -1.000000e+000  0.000000e+000
    outer loop
      vertex  1.200000e+002  1.100000e+001 -1.030000e+002
      vertex  1.293967e+002  1.100000e+001 -9.340582e+001
      vertex  1.273090e+002  1.100000e+001 -9.174094e+001
    endloop
  endfacet
  facet normal  -0.000000e+000 -9.999999e-001  0.000000e+000
    outer loop
      vertex  1.200000e+002  1.100000e+001 -1.030000e+002
      vertex  1.273090e+002  1.100000e+001 -9.174094e+001
      vertex  1.261504e+002  1.100000e+001 -8.933513e+001
    endloop
  endfacet
  facet normal  -0.000000e+000 -1.000000e+000  0.000000e+000
    outer loop
      vertex  1.200000e+002  1.100000e+001 -1.030000e+002
      vertex  1.261504e+002  1.100000e+001 -8.933513e+001
      vertex  1.261504e+002  1.100000e+001 -8.666487e+001
    endloop
  endfacet
  facet normal  -0.000000e+000 -1.000000e+000  0.000000e+000
    outer loop
      vertex  1.200000e+002  1.100000e+001 -1.030000e+002
      vertex  1.261504e+002  1.100000e+001 -8.666487e+001
      vertex  1.200000e+002  1.100000e+001 -7.300000e+001
    endloop
  endfacet
  facet normal  0.000000e+000 -1.000000e+000  -0.000000e+000
    outer loop
      vertex  1.420000e+002  1.100000e+001 -1.030000e+002
      vertex  1.378496e+002  1.100000e+001 -8.933513e+001
      vertex  1.366910e+002  1.100000e+001 -9.174094e+001
    endloop
  endfacet
  facet normal  0.000000e+000 -1.000000e+000  -0.000000e+000
    outer loop
      vertex  1.420000e+002  1.100000e+001 -1.030000e+002
      vertex  1.366910e+002  1.100000e+001 -9.174094e+001
      vertex  1.346033e+002  1.100000e+001 -9.340582e+001
    endloop
  endfacet
  facet normal  0.000000e+000 -1.000000e+000  -0.000000e+000
    outer loop
      vertex  1.420000e+002  1.100000e+001 -1.030000e+002
      vertex  1.346033e+002  1.100000e+001 -9.340582e+001
      vertex  1.200000e+002  1.100000e+001 -1.030000e+002
    endloop
  endfacet
  facet normal  0.000000e+000 -1.000000e+000  0.000000e+000
    outer loop
      vertex  1.200000e+002  1.100000e+001 -7.300000e+001
      vertex  1.261504e+002  1.100000e+001 -8.666487e+001
      vertex  1.273090e+002  1.100000e+001 -8.425906e+001
    endloop
  endfacet
  facet normal  0.000000e+000 -1.000000e+000  0.000000e+000
    outer loop
      vertex  1.200000e+002  1.100000e+001 -7.300000e+001
      vertex  1.273090e+002  1.100000e+001 -8.425906e+001
      vertex  1.293967e+002  1.100000e+001 -8.259418e+001
    endloop
  endfacet
  facet normal  0.000000e+000 -1.000000e+000  0.000000e+000
    outer loop
      vertex  1.200000e+002  1.100000e+001 -7.300000e+001
      vertex  1.293967e+002  1.100000e+001 -8.259418e+001
      vertex  1.320000e+002  1.100000e+001 -8.200000e+001
    endloop
  endfacet
  facet normal  0.000000e+000 -1.000000e+000  0.000000e+000
    outer loop
      vertex  1.200000e+002  1.100000e+001 -7.300000e+001
      vertex  1.320000e+002  1.100000e+001 -8.200000e+001
      vertex  1.346033e+002  1.100000e+001 -8.259418e+001
    endloop
  endfacet
  facet normal  0.000000e+000  1.000000e+000  0.000000e+000
    outer loop
      vertex  1.200000e+002 -1.100000e+001 -7.300000e+001
      vertex  1.420000e+002 -1.100000e+001 -7.300000e+001
      vertex  1.293967e+002 -1.100000e+001 -8.259418e+001
    endloop
  endfacet
  facet normal  0.000000e+000  1.000000e+000  0.000000e+000
    outer loop
      vertex  1.200000e+002 -1.100000e+001 -7.300000e+001
      vertex  1.293967e+002 -1.100000e+001 -8.259418e+001
      vertex  1.273090e+002 -1.100000e+001 -8.425906e+001
    endloop
  endfacet
  facet normal  0.000000e+000  9.999999e-001  0.000000e+000
    outer loop
      vertex  1.200000e+002 -1.100000e+001 -7.300000e+001
      vertex  1.273090e+002 -1.100000e+001 -8.425906e+001
      vertex  1.261504e+002 -1.100000e+001 -8.666487e+001
    endloop
  endfacet
  facet normal  0.000000e+000  1.000000e+000  0.000000e+000
    outer loop
      vertex  1.200000e+002 -1.100000e+001 -7.300000e+001
      vertex  1.261504e+002 -1.100000e+001 -8.666487e+001
      vertex  1.200000e+002 -1.100000e+001 -1.030000e+002
    endloop
  endfacet
  facet normal  0.000000e+000  1.000000e+000  0.000000e+000
    outer loop
      vertex  1.420000e+002 -1.100000e+001 -1.030000e+002
      vertex  1.293967e+002 -1.100000e+001 -9.340582e+001
      vertex  1.320000e+002 -1.100000e+001 -9.400000e+001
    endloop
  endfacet
  facet normal  -0.000000e+000  9.999999e-001  0.000000e+000
    outer loop
      vertex  1.420000e+002 -1.100000e+001 -1.030000e+002
      vertex  1.320000e+002 -1.100000e+001 -9.400000e+001
      vertex  1.346033e+002 -1.100000e+001 -9.340582e+001
    endloop
  endfacet
  facet normal  -0.000000e+000  1.000000e+000  0.000000e+000
    outer loop
      vertex  1.420000e+002 -1.100000e+001 -1.030000e+002
      vertex  1.346033e+002 -1.100000e+001 -9.340582e+001
      vertex  1.366910e+002 -1.100000e+001 -9.174094e+001
    endloop
  endfacet
  facet normal  -0.000000e+000  1.000000e+000  0.000000e+000
    outer loop
      vertex  1.420000e+002 -1.100000e+001 -1.030000e+002
      vertex  1.366910e+002 -1.100000e+001 -9.174094e+001
      vertex  1.378496e+002 -1.100000e+001 -8.933513e+001
    endloop
  endfacet
  facet normal  -0.000000e+000  1.000000e+000  0.000000e+000
    outer loop
      vertex  1.420000e+002 -1.100000e+001 -1.030000e+002
      vertex  1.378496e+002 -1.100000e+001 -8.933513e+001
      vertex  1.378496e+002 -1.100000e+001 -8.666487e+001
    endloop
  endfacet
  facet normal  -0.000000e+000  9.999999e-001  0.000000e+000
    outer loop
      vertex  1.420000e+002 -1.100000e+001 -1.030000e+002
      vertex  1.378496e+002 -1.100000e+001 -8.666487e+001
      vertex  1.420000e+002 -1.100000e+001 -7.300000e+001
    endloop
  endfacet
  facet normal  0.000000e+000  1.000000e+000  0.000000e+000
    outer loop
      vertex  1.200000e+002 -1.100000e+001 -1.030000e+002
      vertex  1.261504e+002 -1.100000e+001 -8.666487e+001
      vertex  1.261504e+002 -1.100000e+001 -8.933513e+001
    endloop
  endfacet
  facet normal  0.000000e+000  1.000000e+000  0.000000e+000
    outer loop
      vertex  1.200000e+002 -1.100000e+001 -1.030000e+002
      vertex  1.261504e+002 -1.100000e+001 -8.933513e+001
      vertex  1.273090e+002 -1.100000e+001 -9.174094e+001
    endloop
  endfacet
  facet normal  0.000000e+000  1.000000e+000  0.000000e+000
    outer loop
      vertex  1.200000e+002 -1.100000e+001 -1.030000e+002
      vertex  1.273090e+002 -1.100000e+001 -9.174094e+001
      vertex  1.293967e+002 -1.100000e+001 -9.340582e+001
    endloop
  endfacet
  facet normal  0.000000e+000  1.000000e+000  0.000000e+000
    outer loop
      vertex  1.200000e+002 -1.100000e+001 -1.030000e+002
      vertex  1.293967e+002 -1.100000e+001 -9.340582e+001
      vertex  1.420000e+002 -1.100000e+001 -1.030000e+002
    endloop
  endfacet
  facet normal  0.000000e+000  1.000000e+000  -0.000000e+000
    outer loop
      vertex  1.420000e+002 -1.100000e+001 -7.300000e+001
      vertex  1.378496e+002 -1.100000e+001 -8.666487e+001
      vertex  1.366910e+002 -1.100000e+001 -8.425906e+001
    endloop
  endfacet
  facet normal  0.000000e+000  1.000000e+000  -0.000000e+000
    outer loop
      vertex  1.420000e+002 -1.100000e+001 -7.300000e+001
      vertex  1.366910e+002 -1.100000e+001 -8.425906e+001
      vertex  1.346033e+002 -1.100000e+001 -8.259418e+001
    endloop
  endfacet
  facet normal  0.000000e+000  9.999999e-001  -0.000000e+000
    outer loop
      vertex  1.420000e+002 -1.100000e+001 -7.300000e+001
      vertex  1.346033e+002 -1.100000e+001 -8.259418e+001
      vertex  1.320000e+002 -1.100000e+001 -8.200000e+001
    endloop
  endfacet
  facet normal  0.000000e+000  1.000000e+000  -0.000000e+000
    outer loop
      vertex  1.420000e+002 -1.100000e+001 -7.300000e+001
      vertex  1.320000e+002 -1.100000e+001 -8.200000e+001
      vertex  1.293967e+002 -1.100000e+001 -8.259418e+001
    endloop
  endfacet
  facet normal  2.225203e-001  0.000000e+000 -9.749281e-001
    outer loop
      vertex  1.320000e+002 -1.100000e+001 -9.400000e+001
      vertex  1.320000e+002  1.100000e+001 -9.400000e+001
      vertex  1.346033e+002 -1.100000e+001 -9.340582e+001
    endloop
  endfacet
  facet normal  2.225203e-001  0.000000e+000 -9.749281e-001
    outer loop
      vertex  1.346033e+002 -1.100000e+001 -9.340582e+001
      vertex  1.320000e+002  1.100000e+001 -9.400000e+001
      vertex  1.346033e+002  1.100000e+001 -9.340582e+001
    endloop
  endfacet
  facet normal  6.234897e-001  0.000000e+000 -7.818315e-001
    outer loop
      vertex  1.346033e+002 -1.100000e+001 -9.340582e+001
      vertex  1.346033e+002  1.100000e+001 -9.340582e+001
      vertex  1.366910e+002 -1.100000e+001 -9.174094e+001
    endloop
  endfacet
  facet normal  6.234897e-001  0.000000e+000 -7.818315e-001
    outer loop
      vertex  1.366910e+002 -1.100000e+001 -9.174094e+001
      vertex  1.346033e+002  1.100000e+001 -9.340582e+001
      vertex  1.366910e+002  1.100000e+001 -9.174094e+001
    endloop
  endfacet
  facet normal  9.009699e-001  0.000000e+000 -4.338818e-001
    outer loop
      vertex  1.366910e+002 -1.100000e+001 -9.174094e+001
      vertex  1.366910e+002  1.100000e+001 -9.174094e+001
      vertex  1.378496e+002 -1.100000e+001 -8.933513e+001
    endloop
  endfacet
  facet normal  9.009699e-001  0.000000e+000 -4.338818e-001
    outer loop
      vertex  1.378496e+002 -1.100000e+001 -8.933513e+001
      vertex  1.366910e+002  1.100000e+001 -9.174094e+001
      vertex  1.378496e+002  1.100000e+001 -8.933513e+001
    endloop
  endfacet
  facet normal  9.999999e-001  0.000000e+000  0.000000e+000
    outer loop
      vertex  1.378496e+002 -1.100000e+001 -8.933513e+001
      vertex  1.378496e+002  1.100000e+001 -8.933513e+001
      vertex  1.378496e+002 -1.100000e+001 -8.666487e+001
    endloop
  endfacet
  facet normal  9.999999e-001  -0.000000e+000  0.000000e+000
    outer loop
      vertex  1.378496e+002 -1.100000e+001 -8.666487e+001
      vertex  1.378496e+002  1.100000e+001 -8.933513e+001
      vertex  1.378496e+002  1.100000e+001 -8.666487e+001
    endloop
  endfacet
  facet normal  9.009699e-001  0.000000e+000  4.338818e-001
    outer loop
      vertex  1.378496e+002 -1.100000e+001 -8.666487e+001
      vertex  1.378496e+002  1.100000e+001 -8.666487e+001
      vertex  1.366910e+002 -1.100000e+001 -8.425906e+001
    endloop
  endfacet
  facet normal  9.009699e-001  -0.000000e+000  4.338818e-001
    outer loop
      vertex  1.366910e+002 -1.100000e+001 -8.425906e+001
      vertex  1.378496e+002  1.100000e+001 -8.666487e+001
      vertex  1.366910e+002  1.100000e+001 -8.425906e+001
    endloop
  endfacet
  facet normal  6.234897e-001  0.000000e+000  7.818315e-001
    outer loop
      vertex  1.366910e+002 -1.100000e+001 -8.425906e+001
      vertex  1.366910e+002  1.100000e+001 -8.425906e+001
      vertex  1.346033e+002 -1.100000e+001 -8.259418e+001
    endloop
  endfacet
  facet normal  6.234897e-001  -0.000000e+000  7.818315e-001
    outer loop
      vertex  1.346033e+002 -1.100000e+001 -8.259418e+001
      vertex  1.366910e+002  1.100000e+001 -8.425906e+001
      vertex  1.346033e+002  1.100000e+001 -8.259418e+001
    endloop
  endfacet
  facet normal  2.225203e-001  0.000000e+000  9.749281e-001
    outer loop
      vertex  1.346033e+002 -1.100000e+001 -8.259418e+001
      vertex  1.346033e+002  1.100000e+001 -8.259418e+001
      vertex  1.320000e+002 -1.100000e+001 -8.200000e+001
    endloop
  endfacet
  facet normal  2.225203e-001  -0.000000e+000  9.749281e-001
    outer loop
      vertex  1.320000e+002 -1.100000e+001 -8.200000e+001
      vertex  1.346033e+002  1.100000e+001 -8.259418e+001
      vertex  1.320000e+002  1.100000e+001 -8.200000e+001
    endloop
  endfacet
  facet normal -2.225203e-001  0.000000e+000  9.749281e-001
    outer loop
      vertex  1.320000e+002 -1.100000e+001 -8.200000e+001
      vertex  1.320000e+002  1.100000e+001 -8.200000e+001
      vertex  1.293967e+002 -1.100000e+001 -8.259418e+001
    endloop
  endfacet
  facet normal -2.225203e-001  0.000000e+000  9.749281e-001
    outer loop
      vertex  1.293967e+002 -1.100000e+001 -8.259418e+001
      vertex  1.320000e+002  1.100000e+001 -8.200000e+001
      vertex  1.293967e+002  1.100000e+001 -8.259418e+001
    endloop
  endfacet
  facet normal -6.234912e-001  0.000000e+000  7.818304e-001
    outer loop
      vertex  1.293967e+002 -1.100000e+001 -8.259418e+001
      vertex  1.293967e+002  1.100000e+001 -8.259418e+001
      vertex  1.273090e+002 -1.100000e+001 -8.425906e+001
    endloop
  endfacet
  facet normal -6.234912e-001  0.000000e+000  7.818304e-001
    outer loop
      vertex  1.273090e+002 -1.100000e+001 -8.425906e+001
      vertex  1.293967e+002  1.100000e+001 -8.259418e+001
      vertex  1.273090e+002  1.100000e+001 -8.425906e+001
    endloop
  endfacet
  facet normal -9.009676e-001  0.000000e+000  4.338864e-001
    outer loop
      vertex  1.273090e+002 -1.100000e+001 -8.425906e+001
      vertex  1.273090e+002  1.100000e+001 -8.425906e+001
      vertex  1.261504e+002 -1.100000e+001 -8.666487e+001
    endloop
  endfacet
  facet normal -9.009676e-001  0.000000e+000  4.338864e-001
    outer loop
      vertex  1.261504e+002 -1.100000e+001 -8.666487e+001
      vertex  1.273090e+002  1.100000e+001 -8.425906e+001
      vertex  1.261504e+002  1.100000e+001 -8.666487e+001
    endloop
  endfacet
  facet normal -9.999999e-001  -0.000000e+000  0.000000e+000
    outer loop
      vertex  1.261504e+002 -1.100000e+001 -8.666487e+001
      vertex  1.261504e+002  1.100000e+001 -8.666487e+001
      vertex  1.261504e+002 -1.100000e+001 -8.933513e+001
    endloop
  endfacet
  facet normal -9.999999e-001  0.000000e+000  0.000000e+000
    outer loop
      vertex  1.261504e+002 -1.100000e+001 -8.933513e+001
      vertex  1.261504e+002  1.100000e+001 -8.666487e+001
      vertex  1.261504e+002  1.100000e+001 -8.933513e+001
    endloop
  endfacet
  facet normal -9.009676e-001  -0.000000e+000 -4.338864e-001
    outer loop
      vertex  1.261504e+002 -1.100000e+001 -8.933513e+001
      vertex  1.261504e+002  1.100000e+001 -8.933513e+001
      vertex  1.273090e+002 -1.100000e+001 -9.174094e+001
    endloop
  endfacet
  facet normal -9.009676e-001  0.000000e+000 -4.338864e-001
    outer loop
      vertex  1.273090e+002 -1.100000e+001 -9.174094e+001
      vertex  1.261504e+002  1.100000e+001 -8.933513e+001
      vertex  1.273090e+002  1.100000e+001 -9.174094e+001
    endloop
  endfacet
  facet normal -6.234912e-001  -0.000000e+000 -7.818304e-001
    outer loop
      vertex  1.273090e+002 -1.100000e+001 -9.174094e+001
      vertex  1.273090e+002  1.100000e+001 -9.174094e+001
      vertex  1.293967e+002 -1.100000e+001 -9.340582e+001
    endloop
  endfacet
  facet normal -6.234912e-001  0.000000e+000 -7.818304e-001
    outer loop
      vertex  1.293967e+002 -1.100000e+001 -9.340582e+001
      vertex  1.273090e+002  1.100000e+001 -9.174094e+001
      vertex  1.293967e+002  1.100000e+001 -9.340582e+001
    endloop
  endfacet
  facet normal -2.225203e-001  -0.000000e+000 -9.749281e-001
    outer loop
      vertex  1.293967e+002 -1.100000e+001 -9.340582e+001
      vertex  1.293967e+002  1.100000e+001 -9.340582e+001
      vertex  1.320000e+002 -1.100000e+001 -9.400000e+001
    endloop
  endfacet
  facet normal -2.225203e-001  0.000000e+000 -9.749281e-001
    outer loop
      vertex  1.320000e+002 -1.100000e+001 -9.400000e+001
      vertex  1.293967e+002  1.100000e+001 -9.340582e+001
      vertex  1.320000e+002  1.100000e+001 -9.400000e+001
    endloop
  endfacet
  facet normal  0.000000e+000  0.000000e+000  1.000000e+000
    outer loop
      vertex  1.200000e+002 -1.700000e+001 -7.300000e+001
      vertex  1.420000e+002 -1.700000e+001 -7.300000e+001
      vertex  1.200000e+002 -1.100000e+001 -7.300000e+001
    endloop
  endfacet
  facet normal  -0.000000e+000  0.000000e+000  1.000000e+000
    outer loop
      vertex  1.200000e+002 -1.100000e+001 -7.300000e+001
      vertex  1.420000e+002 -1.700000e+001 -7.300000e+001
      vertex  1.420000e+002 -1.100000e+001 -7.300000e+001
    endloop
  endfacet
  facet normal  0.000000e+000  0.000000e+000 -1.000000e+000
    outer loop
      vertex  1.200000e+002 -1.700000e+001 -1.030000e+002
      vertex  1.200000e+002 -1.100000e+001 -1.030000e+002
      vertex  1.420000e+002 -1.700000e+001 -1.030000e+002
    endloop
  endfacet
  facet normal  0.000000e+000  0.000000e+000 -1.000000e+000
    outer loop
      vertex  1.420000e+002 -1.700000e+001 -1.030000e+002
      vertex  1.200000e+002 -1.100000e+001 -1.030000e+002
      vertex  1.420000e+002 -1.100000e+001 -1.030000e+002
    endloop
  endfacet
  facet normal  1.000000e+000  0.000000e+000  0.000000e+000
    outer loop
      vertex  1.420000e+002 -1.700000e+001 -7.300000e+001
      vertex  1.420000e+002 -1.700000e+001 -1.030000e+002
      vertex  1.420000e+002 -1.100000e+001 -7.300000e+001
    endloop
  endfacet
  facet normal  1.000000e+000  0.000000e+000  0.000000e+000
    outer loop
      vertex  1.420000e+002 -1.100000e+001 -7.300000e+001
      vertex  1.420000e+002 -1.700000e+001 -1.030000e+002
      vertex  1.420000e+002 -1.100000e+001 -1.030000e+002
    endloop
  endfacet
  facet normal  0.000000e+000  0.000000e+000  1.000000e+000
    outer loop
      vertex  1.200000e+002  1.100000e+001 -7.300000e+001
      vertex  1.420000e+002  1.100000e+001 -7.300000e+001
      vertex  1.200000e+002  1.700000e+001 -7.300000e+001
    endloop
  endfacet
  facet normal  -0.000000e+000  0.000000e+000  1.000000e+000
    outer loop
      vertex  1.200000e+002  1.700000e+001 -7.300000e+001
      vertex  1.420000e+002  1.100000e+001 -7.300000e+001
      vertex  1.420000e+002  1.700000e+001 -7.300000e+001
    endloop
  endfacet
  facet normal  0.000000e+000  0.000000e+000 -1.000000e+000
    outer loop
      vertex  1.200000e+002  1.100000e+001 -1.030000e+002
      vertex  1.200000e+002  1.700000e+001 -1.030000e+002
      vertex  1.420000e+002  1.100000e+001 -1.030000e+002
    endloop
  endfacet
  facet normal  0.000000e+000  0.000000e+000 -1.000000e+000
    outer loop
      vertex  1.420000e+002  1.100000e+001 -1.030000e+002
      vertex  1.200000e+002  1.700000e+001 -1.030000e+002
      vertex  1.420000e+002  1.700000e+001 -1.030000e+002
    endloop
  endfacet
  facet normal  1.000000e+000  0.000000e+000  0.000000e+000
    outer loop
      vertex  1.420000e+002  1.100000e+001 -1.030000e+002
      vertex  1.420000e+002  1.700000e+001 -1.030000e+002
      vertex  1.420000e+002  1.100000e+001 -7.300000e+001
    endloop
  endfacet
  facet normal  1.000000e+000  -0.000000e+000  0.000000e+000
    outer loop
      vertex  1.420000e+002  1.100000e+001 -7.300000e+001
      vertex  1.420000e+002  1.700000e+001 -1.030000e+002
      vertex  1.420000e+002  1.700000e+001 -7.300000e+001
    endloop
  endfacet
  facet normal -1.000000e+000  0.000000e+000  0.000000e+000
    outer loop
      vertex  1.020000e+002  1.700000e+001  1.175000e+002
      vertex  1.020000e+002  1.700000e+001 -1.175000e+002
      vertex  1.020000e+002  8.000000e+000  0.000000e+000
    endloop
  endfacet
  facet normal -1.000000e+000  0.000000e+000  0.000000e+000
    outer loop
      vertex  1.020000e+002  1.700000e+001  1.175000e+002
      vertex  1.020000e+002  8.000000e+000  0.000000e+000
      vertex  1.020000e+002  7.391036e+000  3.061467e+000
    endloop
  endfacet
  facet normal -1.000000e+000  0.000000e+000  0.000000e+000
    outer loop
      vertex  1.020000e+002  1.700000e+001  1.175000e+002
      vertex  1.020000e+002  7.391036e+000  3.061467e+000
      vertex  1.020000e+002  5.656854e+000  5.656854e+000
    endloop
  endfacet
  facet normal -1.000000e+000  0.000000e+000  0.000000e+000
    outer loop
      vertex  1.020000e+002  1.700000e+001  1.175000e+002
      vertex  1.020000e+002  5.656854e+000  5.656854e+000
      vertex  1.020000e+002  3.061467e+000  7.391036e+000
    endloop
  endfacet
  facet normal -1.000000e+000  0.000000e+000  0.000000e+000
    outer loop
      vertex  1.020000e+002  1.700000e+001  1.175000e+002
      vertex  1.020000e+002  3.061467e+000  7.391036e+000
      vertex  1.020000e+002 -3.552714e-015  8.000000e+000
    endloop
  endfacet
  facet normal -1.000000e+000  0.000000e+000  0.000000e+000
    outer loop
      vertex  1.020000e+002  1.700000e+001  1.175000e+002
      vertex  1.020000e+002 -3.552714e-015  8.000000e+000
      vertex  1.020000e+002 -1.700000e+001  1.175000e+002
    endloop
  endfacet
  facet normal -1.000000e+000  0.000000e+000  0.000000e+000
    outer loop
      vertex  1.020000e+002  1.700000e+001 -1.175000e+002
      vertex  1.020000e+002 -1.700000e+001 -1.175000e+002
      vertex  1.020000e+002  0.000000e+000 -8.000000e+000
    endloop
  endfacet
  facet normal -1.000000e+000  0.000000e+000  0.000000e+000
    outer loop
      vertex  1.020000e+002  1.700000e+001 -1.175000e+002
      vertex  1.020000e+002  0.000000e+000 -8.000000e+000
      vertex  1.020000e+002  3.061467e+000 -7.391036e+000
    endloop
  endfacet
  facet normal -9.999999e-001  0.000000e+000  0.000000e+000
    outer loop
      vertex  1.020000e+002  1.700000e+001 -1.175000e+002
      vertex  1.020000e+002  3.061467e+000 -7.391036e+000
      vertex  1.020000e+002  5.656854e+000 -5.656854e+000
    endloop
  endfacet
  facet normal -1.000000e+000  0.000000e+000  0.000000e+000
    outer loop
      vertex  1.020000e+002  1.700000e+001 -1.175000e+002
      vertex  1.020000e+002  5.656854e+000 -5.656854e+000
      vertex  1.020000e+002  7.391036e+000 -3.061467e+000
    endloop
  endfacet
  facet normal -1.000000e+000  0.000000e+000  0.000000e+000
    outer loop
      vertex  1.020000e+002  1.700000e+001 -1.175000e+002
      vertex  1.020000e+002  7.391036e+000 -3.061467e+000
      vertex  1.020000e+002  8.000000e+000  0.000000e+000
    endloop
  endfacet
  facet normal -1.000000e+000  0.000000e+000  -0.000000e+000
    outer loop
      vertex  1.020000e+002 -1.700000e+001 -1.175000e+002
      vertex  1.020000e+002 -8.000000e+000  9.797175e-016
      vertex  1.020000e+002 -7.391036e+000 -3.061467e+000
    endloop
  endfacet
  facet normal -1.000000e+000  0.000000e+000  -0.000000e+000
    outer loop
      vertex  1.020000e+002 -1.700000e+001 -1.175000e+002
      vertex  1.020000e+002 -7.391036e+000 -3.061467e+000
      vertex  1.020000e+002 -5.656854e+000 -5.656854e+000
    endloop
  endfacet
  facet normal -1.000000e+000  0.000000e+000  -0.000000e+000
    outer loop
      vertex  1.020000e+002 -1.700000e+001 -1.175000e+002
      vertex  1.020000e+002 -5.656854e+000 -5.656854e+000
      vertex  1.020000e+002 -3.061467e+000 -7.391036e+000
    endloop
  endfacet
  facet normal -1.000000e+000  0.000000e+000  -0.000000e+000
    outer loop
      vertex  1.020000e+002 -1.700000e+001 -1.175000e+002
      vertex  1.020000e+002 -3.061467e+000 -7.391036e+000
      vertex  1.020000e+002  0.000000e+000 -8.000000e+000
    endloop
  endfacet
  facet normal -1.000000e+000  -0.000000e+000  0.000000e+000
    outer loop
      vertex  1.020000e+002 -1.700000e+001  1.175000e+002
      vertex  1.020000e+002 -3.552714e-015  8.000000e+000
      vertex  1.020000e+002 -3.061467e+000  7.391036e+000
    endloop
  endfacet
  facet normal -9.999999e-001  -0.000000e+000  0.000000e+000
    outer loop
      vertex  1.020000e+002 -1.700000e+001  1.175000e+002
      vertex  1.020000e+002 -3.061467e+000  7.391036e+000
      vertex  1.020000e+002 -5.656854e+000  5.656854e+000
    endloop
  endfacet
  facet normal -1.000000e+000  -0.000000e+000  0.000000e+000
    outer loop
      vertex  1.020000e+002 -1.700000e+001  1.175000e+002
      vertex  1.020000e+002 -5.656854e+000  5.656854e+000
      vertex  1.020000e+002 -7.391036e+000  3.061467e+000
    endloop
  endfacet
  facet normal -1.000000e+000  -0.000000e+000  0.000000e+000
    outer loop
      vertex  1.020000e+002 -1.700000e+001  1.175000e+002
      vertex  1.020000e+002 -7.391036e+000  3.061467e+000
      vertex  1.020000e+002 -8.000000e+000  9.797175e-016
    endloop
  endfacet
  facet normal -1.000000e+000  -0.000000e+000  0.000000e+000
    outer loop
      vertex  1.020000e+002 -1.700000e+001  1.175000e+002
      vertex  1.020000e+002 -8.000000e+000  9.797175e-016
      vertex  1.020000e+002 -1.700000e+001 -1.175000e+002
    endloop
  endfacet
  facet normal  0.000000e+000 -9.807854e-001  1.950904e-001
    outer loop
      vertex  5.700000e+001 -8.000000e+000  9.797175e-016
      vertex  1.020000e+002 -8.000000e+000  9.797175e-016
      vertex  5.700000e+001 -7.391036e+000  3.061467e+000
    endloop
  endfacet
  facet normal  0.000000e+000 -9.807854e-001  1.950904e-001
    outer loop
      vertex  5.700000e+001 -7.391036e+000  3.061467e+000
      vertex  1.020000e+002 -8.000000e+000  9.797175e-016
      vertex  1.020000e+002 -7.391036e+000  3.061467e+000
    endloop
  endfacet
  facet normal  0.000000e+000 -8.314697e-001  5.555702e-001
    outer loop
      vertex  5.700000e+001 -7.391036e+000  3.061467e+000
      vertex  1.020000e+002 -7.391036e+000  3.061467e+000
      vertex  5.700000e+001 -5.656854e+000  5.656854e+000
    endloop
  endfacet
  facet normal  0.000000e+000 -8.314697e-001  5.555702e-001
    outer loop
      vertex  5.700000e+001 -5.656854e+000  5.656854e+000
      vertex  1.020000e+002 -7.391036e+000  3.061467e+000
      vertex  1.020000e+002 -5.656854e+000  5.656854e+000
    endloop
  endfacet
  facet normal  0.000000e+000 -5.555702e-001  8.314697e-001
    outer loop
      vertex  5.700000e+001 -5.656854e+000  5.656854e+000
      vertex  1.020000e+002 -5.656854e+000  5.656854e+000
      vertex  5.700000e+001 -3.061467e+000  7.391036e+000
    endloop
  endfacet
  facet normal  0.000000e+000 -5.555702e-001  8.314697e-001
    outer loop
      vertex  5.700000e+001 -3.061467e+000  7.391036e+000
      vertex  1.020000e+002 -5.656854e+000  5.656854e+000
      vertex  1.020000e+002 -3.061467e+000  7.391036e+000
    endloop
  endfacet
  facet normal  0.000000e+000 -1.950904e-001  9.807854e-001
    outer loop
      vertex  5.700000e+001 -3.061467e+000  7.391036e+000
      vertex  1.020000e+002 -3.061467e+000  7.391036e+000
      vertex  5.700000e+001  4.898587e-016  8.000000e+000
    endloop
  endfacet
  facet normal -1.752593e-017 -1.950904e-001  9.807854e-001
    outer loop
      vertex  5.700000e+001  4.898587e-016  8.000000e+000
      vertex  1.020000e+002 -3.061467e+000  7.391036e+000
      vertex  1.020000e+002 -3.552714e-015  8.000000e+000
    endloop
  endfacet
  facet normal  1.752593e-017  1.950904e-001  9.807854e-001
    outer loop
      vertex  5.700000e+001  4.898587e-016  8.000000e+000
      vertex  1.020000e+002 -3.552714e-015  8.000000e+000
      vertex  5.700000e+001  3.061467e+000  7.391036e+000
    endloop
  endfacet
  facet normal  -0.000000e+000  1.950904e-001  9.807854e-001
    outer loop
      vertex  5.700000e+001  3.061467e+000  7.391036e+000
      vertex  1.020000e+002 -3.552714e-015  8.000000e+000
      vertex  1.020000e+002  3.061467e+000  7.391036e+000
    endloop
  endfacet
  facet normal  0.000000e+000  5.555702e-001  8.314697e-001
    outer loop
      vertex  5.700000e+001  3.061467e+000  7.391036e+000
      vertex  1.020000e+002  3.061467e+000  7.391036e+000
      vertex  5.700000e+001  5.656854e+000  5.656854e+000
    endloop
  endfacet
  facet normal  -0.000000e+000  5.555702e-001  8.314697e-001
    outer loop
      vertex  5.700000e+001  5.656854e+000  5.656854e+000
      vertex  1.020000e+002  3.061467e+000  7.391036e+000
      vertex  1.020000e+002  5.656854e+000  5.656854e+000
    endloop
  endfacet
  facet normal  0.000000e+000  8.314697e-001  5.555702e-001
    outer loop
      vertex  5.700000e+001  5.656854e+000  5.656854e+000
      vertex  1.020000e+002  5.656854e+000  5.656854e+000
      vertex  5.700000e+001  7.391036e+000  3.061467e+000
    endloop
  endfacet
  facet normal  -0.000000e+000  8.314697e-001  5.555702e-001
    outer loop
      vertex  5.700000e+001  7.391036e+000  3.061467e+000
      vertex  1.020000e+002  5.656854e+000  5.656854e+000
      vertex  1.020000e+002  7.391036e+000  3.061467e+000
    endloop
  endfacet
  facet normal  0.000000e+000  9.807854e-001  1.950904e-001
    outer loop
      vertex  5.700000e+001  7.391036e+000  3.061467e+000
      vertex  1.020000e+002  7.391036e+000  3.061467e+000
      vertex  5.700000e+001  8.000000e+000  0.000000e+000
    endloop
  endfacet
  facet normal  -0.000000e+000  9.807854e-001  1.950904e-001
    outer loop
      vertex  5.700000e+001  8.000000e+000  0.000000e+000
      vertex  1.020000e+002  7.391036e+000  3.061467e+000
      vertex  1.020000e+002  8.000000e+000  0.000000e+000
    endloop
  endfacet
  facet normal  0.000000e+000  9.807854e-001 -1.950904e-001
    outer loop
      vertex  5.700000e+001  8.000000e+000  0.000000e+000
      vertex  1.020000e+002  8.000000e+000  0.000000e+000
      vertex  5.700000e+001  7.391036e+000 -3.061467e+000
    endloop
  endfacet
  facet normal  0.000000e+000  9.807854e-001 -1.950904e-001
    outer loop
      vertex  5.700000e+001  7.391036e+000 -3.061467e+000
      vertex  1.020000e+002  8.000000e+000  0.000000e+000
      vertex  1.020000e+002  7.391036e+000 -3.061467e+000
    endloop
  endfacet
  facet normal  0.000000e+000  8.314697e-001 -5.555702e-001
    outer loop
      vertex  5.700000e+001  7.391036e+000 -3.061467e+000
      vertex  1.020000e+002  7.391036e+000 -3.061467e+000
      vertex  5.700000e+001  5.656854e+000 -5.656854e+000
    endloop
  endfacet
  facet normal  0.000000e+000  8.314697e-001 -5.555702e-001
    outer loop
      vertex  5.700000e+001  5.656854e+000 -5.656854e+000
      vertex  1.020000e+002  7.391036e+000 -3.061467e+000
      vertex  1.020000e+002  5.656854e+000 -5.656854e+000
    endloop
  endfacet
  facet normal  0.000000e+000  5.555702e-001 -8.314697e-001
    outer loop
      vertex  5.700000e+001  5.656854e+000 -5.656854e+000
      vertex  1.020000e+002  5.656854e+000 -5.656854e+000
      vertex  5.700000e+001  3.061467e+000 -7.391036e+000
    endloop
  endfacet
  facet normal  0.000000e+000  5.555702e-001 -8.314697e-001
    outer loop
      vertex  5.700000e+001  3.061467e+000 -7.391036e+000
      vertex  1.020000e+002  5.656854e+000 -5.656854e+000
      vertex  1.020000e+002  3.061467e+000 -7.391036e+000
    endloop
  endfacet
  facet normal  0.000000e+000  1.950904e-001 -9.807854e-001
    outer loop
      vertex  5.700000e+001  3.061467e+000 -7.391036e+000
      vertex  1.020000e+002  3.061467e+000 -7.391036e+000
      vertex  5.700000e+001 -1.469576e-015 -8.000000e+000
    endloop
  endfacet
  facet normal -6.371115e-018  1.950904e-001 -9.807854e-001
    outer loop
      vertex  5.700000e+001 -1.469576e-015 -8.000000e+000
      vertex  1.020000e+002  3.061467e+000 -7.391036e+000
      vertex  1.020000e+002  0.000000e+000 -8.000000e+000
    endloop
  endfacet
  facet normal  6.371115e-018 -1.950904e-001 -9.807854e-001
    outer loop
      vertex  5.700000e+001 -1.469576e-015 -8.000000e+000
      vertex  1.020000e+002  0.000000e+000 -8.000000e+000
      vertex  5.700000e+001 -3.061467e+000 -7.391036e+000
    endloop
  endfacet
  facet normal  0.000000e+000 -1.950904e-001 -9.807854e-001
    outer loop
      vertex  5.700000e+001 -3.061467e+000 -7.391036e+000
      vertex  1.020000e+002  0.000000e+000 -8.000000e+000
      vertex  1.020000e+002 -3.061467e+000 -7.391036e+000
    endloop
  endfacet
  facet normal  -0.000000e+000 -5.555702e-001 -8.314697e-001
    outer loop
      vertex  5.700000e+001 -3.061467e+000 -7.391036e+000
      vertex  1.020000e+002 -3.061467e+000 -7.391036e+000
      vertex  5.700000e+001 -5.656854e+000 -5.656854e+000
    endloop
  endfacet
  facet normal  0.000000e+000 -5.555702e-001 -8.314697e-001
    outer loop
      vertex  5.700000e+001 -5.656854e+000 -5.656854e+000
      vertex  1.020000e+002 -3.061467e+000 -7.391036e+000
      vertex  1.020000e+002 -5.656854e+000 -5.656854e+000
    endloop
  endfacet
  facet normal  -0.000000e+000 -8.314697e-001 -5.555702e-001
    outer loop
      vertex  5.700000e+001 -5.656854e+000 -5.656854e+000
      vertex  1.020000e+002 -5.656854e+000 -5.656854e+000
      vertex  5.700000e+001 -7.391036e+000 -3.061467e+000
    endloop
  endfacet
  facet normal  0.000000e+000 -8.314697e-001 -5.555702e-001
    outer loop
      vertex  5.700000e+001 -7.391036e+000 -3.061467e+000
      vertex  1.020000e+002 -5.656854e+000 -5.656854e+000
      vertex  1.020000e+002 -7.391036e+000 -3.061467e+000
    endloop
  endfacet
  facet normal  -0.000000e+000 -9.807854e-001 -1.950904e-001
    outer loop
      vertex  5.700000e+001 -7.391036e+000 -3.061467e+000
      vertex  1.020000e+002 -7.391036e+000 -3.061467e+000
      vertex  5.700000e+001 -8.000000e+000  9.797175e-016
    endloop
  endfacet
  facet normal  0.000000e+000 -9.807854e-001 -1.950904e-001
    outer loop
      vertex  5.700000e+001 -8.000000e+000  9.797175e-016
      vertex  1.020000e+002 -7.391036e+000 -3.061467e+000
      vertex  1.020000e+002 -8.000000e+000  9.797175e-016
    endloop
  endfacet
  facet normal -1.000000e+000  0.000000e+000  0.000000e+000
    outer loop
      vertex  5.700000e+001  4.898587e-016  8.000000e+000
      vertex  5.700000e+001  3.061467e+000  7.391036e+000
      vertex  5.700000e+001 -3.061467e+000  7.391036e+000
    endloop
  endfacet
  facet normal -1.000000e+000  0.000000e+000  0.000000e+000
    outer loop
      vertex  5.700000e+001 -1.469576e-015 -8.000000e+000
      vertex  5.700000e+001 -3.061467e+000 -7.391036e+000
      vertex  5.700000e+001  3.061467e+000 -7.391036e+000
    endloop
  endfacet
  facet normal -1.000000e+000  0.000000e+000  0.000000e+000
    outer loop
      vertex  5.700000e+001  3.061467e+000 -7.391036e+000
      vertex  5.700000e+001 -3.061467e+000 -7.391036e+000
      vertex  5.700000e+001 -5.656854e+000 -5.656854e+000
    endloop
  endfacet
  facet normal -1.000000e+000  0.000000e+000  0.000000e+000
    outer loop
      vertex  5.700000e+001  3.061467e+000 -7.391036e+000
      vertex  5.700000e+001 -5.656854e+000 -5.656854e+000
      vertex  5.700000e+001  5.656854e+000 -5.656854e+000
    endloop
  endfacet
  facet normal -1.000000e+000  0.000000e+000  0.000000e+000
    outer loop
      vertex  5.700000e+001  5.656854e+000 -5.656854e+000
      vertex  5.700000e+001 -5.656854e+000 -5.656854e+000
      vertex  5.700000e+001 -7.391036e+000 -3.061467e+000
    endloop
  endfacet
  facet normal -1.000000e+000  0.000000e+000  0.000000e+000
    outer loop
      vertex  5.700000e+001  5.656854e+000 -5.656854e+000
      vertex  5.700000e+001 -7.391036e+000 -3.061467e+000
      vertex  5.700000e+001  7.391036e+000 -3.061467e+000
    endloop
  endfacet
  facet normal -9.999999e-001  0.000000e+000  0.000000e+000
    outer loop
      vertex  5.700000e+001  7.391036e+000 -3.061467e+000
      vertex  5.700000e+001 -7.391036e+000 -3.061467e+000
      vertex  5.700000e+001 -8.000000e+000  9.797175e-016
    endloop
  endfacet
  facet normal -1.000000e+000  0.000000e+000  0.000000e+000
    outer loop
      vertex  5.700000e+001  7.391036e+000 -3.061467e+000
      vertex  5.700000e+001 -8.000000e+000  9.797175e-016
      vertex  5.700000e+001  8.000000e+000  0.000000e+000
    endloop
  endfacet
  facet normal -1.000000e+000  0.000000e+000  0.000000e+000
    outer loop
      vertex  5.700000e+001  8.000000e+000  0.000000e+000
      vertex  5.700000e+001 -8.000000e+000  9.797175e-016
      vertex  5.700000e+001 -7.391036e+000  3.061467e+000
    endloop
  endfacet
  facet normal -9.999999e-001  0.000000e+000  0.000000e+000
    outer loop
      vertex  5.700000e+001  8.000000e+000  0.000000e+000
      vertex  5.700000e+001 -7.391036e+000  3.061467e+000
      vertex  5.700000e+001  7.391036e+000  3.061467e+000
    endloop
  endfacet
  facet normal -1.000000e+000  0.000000e+000  0.000000e+000
    outer loop
      vertex  5.700000e+001  7.391036e+000  3.061467e+000
      vertex  5.700000e+001 -7.391036e+000  3.061467e+000
      vertex  5.700000e+001 -5.656854e+000  5.656854e+000
    endloop
  endfacet
  facet normal -1.000000e+000  0.000000e+000  0.000000e+000
    outer loop
      vertex  5.700000e+001  7.391036e+000  3.061467e+000
      vertex  5.700000e+001 -5.656854e+000  5.656854e+000
      vertex  5.700000e+001  5.656854e+000  5.656854e+000
    endloop
  endfacet
  facet normal -1.000000e+000  0.000000e+000  0.000000e+000
    outer loop
      vertex  5.700000e+001  5.656854e+000  5.656854e+000
      vertex  5.700000e+001 -5.656854e+000  5.656854e+000
      vertex  5.700000e+001 -3.061467e+000  7.391036e+000
    endloop
  endfacet
  facet normal -1.000000e+000  0.000000e+000  0.000000e+000
    outer loop
      vertex  5.700000e+001  5.656854e+000  5.656854e+000
      vertex  5.700000e+001 -3.061467e+000  7.391036e+000
      vertex  5.700000e+001  3.061467e+000  7.391036e+000
    endloop
  endfacet
  facet normal  0.000000e+000  0.000000e+000  1.000000e+000
    outer loop
      vertex  1.020000e+002 -1.700000e+001  1.175000e+002
      vertex  1.200000e+002 -1.700000e+001  1.175000e+002
      vertex  1.020000e+002  1.700000e+001  1.175000e+002
    endloop
  endfacet
  facet normal  -0.000000e+000  0.000000e+000  1.000000e+000
    outer loop
      vertex  1.020000e+002  1.700000e+001  1.175000e+002
      vertex  1.200000e+002 -1.700000e+001  1.175000e+002
      vertex  1.200000e+002  1.700000e+001  1.175000e+002
    endloop
  endfacet
  facet normal  0.000000e+000  0.000000e+000 -1.000000e+000
    outer loop
      vertex  1.020000e+002 -1.700000e+001 -1.175000e+002
      vertex  1.020000e+002  1.700000e+001 -1.175000e+002
      vertex  1.200000e+002 -1.700000e+001 -1.175000e+002
    endloop
  endfacet
  facet normal  0.000000e+000  0.000000e+000 -1.000000e+000
    outer loop
      vertex  1.200000e+002 -1.700000e+001 -1.175000e+002
      vertex  1.020000e+002  1.700000e+001 -1.175000e+002
      vertex  1.200000e+002  1.700000e+001 -1.175000e+002
    endloop
  endfacet
endsolid CATIA STL
