solid CATIA STL
  facet normal  0.000000e+000 -9.999999e-001  0.000000e+000
    outer loop
      vertex  6.044553e+000 -1.000000e+001 -1.379630e+000
      vertex  5.952838e+000 -1.000000e+001 -2.221629e+001
      vertex  1.150000e+001 -1.000000e+001 -1.991858e+001
    endloop
  endfacet
  facet normal  -0.000000e+000 -1.000000e+000  0.000000e+000
    outer loop
      vertex -4.847355e+000 -1.000000e+001  3.865637e+000
      vertex -2.690079e+000 -1.000000e+001  5.586007e+000
      vertex -5.952838e+000 -1.000000e+001  2.221629e+001
    endloop
  endfacet
  facet normal  0.000000e+000 -9.999999e-001  0.000000e+000
    outer loop
      vertex -5.952838e+000 -1.000000e+001  2.221629e+001
      vertex -6.044553e+000 -1.000000e+001  1.379630e+000
      vertex -4.847355e+000 -1.000000e+001  3.865637e+000
    endloop
  endfacet
  facet normal  0.000000e+000 -9.999999e-001  0.000000e+000
    outer loop
      vertex -6.044553e+000 -1.000000e+001  1.379630e+000
      vertex -5.952838e+000 -1.000000e+001  2.221629e+001
      vertex -1.150000e+001 -1.000000e+001  1.991858e+001
    endloop
  endfacet
  facet normal  0.000000e+000 -1.000000e+000  0.000000e+000
    outer loop
      vertex  0.000000e+000 -1.000000e+001  2.300000e+001
      vertex -5.952838e+000 -1.000000e+001  2.221629e+001
      vertex -2.690079e+000 -1.000000e+001  5.586007e+000
    endloop
  endfacet
  facet normal  0.000000e+000 -1.000000e+000  0.000000e+000
    outer loop
      vertex  0.000000e+000 -1.000000e+001  2.300000e+001
      vertex -2.690079e+000 -1.000000e+001  5.586007e+000
      vertex  0.000000e+000 -1.000000e+001  6.200000e+000
    endloop
  endfacet
  facet normal  0.000000e+000 -1.000000e+000  0.000000e+000
    outer loop
      vertex  0.000000e+000 -1.000000e+001  2.300000e+001
      vertex  0.000000e+000 -1.000000e+001  6.200000e+000
      vertex  2.690079e+000 -1.000000e+001  5.586007e+000
    endloop
  endfacet
  facet normal  0.000000e+000 -1.000000e+000  0.000000e+000
    outer loop
      vertex  0.000000e+000 -1.000000e+001  2.300000e+001
      vertex  2.690079e+000 -1.000000e+001  5.586007e+000
      vertex  4.847355e+000 -1.000000e+001  3.865637e+000
    endloop
  endfacet
  facet normal  0.000000e+000 -1.000000e+000  0.000000e+000
    outer loop
      vertex  0.000000e+000 -1.000000e+001  2.300000e+001
      vertex  4.847355e+000 -1.000000e+001  3.865637e+000
      vertex  6.044553e+000 -1.000000e+001  1.379630e+000
    endloop
  endfacet
  facet normal  0.000000e+000 -1.000000e+000  0.000000e+000
    outer loop
      vertex  0.000000e+000 -1.000000e+001  2.300000e+001
      vertex  6.044553e+000 -1.000000e+001  1.379630e+000
      vertex  5.952838e+000 -1.000000e+001  2.221629e+001
    endloop
  endfacet
  facet normal  -0.000000e+000 -1.000000e+000  0.000000e+000
    outer loop
      vertex  2.816688e-015 -1.000000e+001 -2.300000e+001
      vertex  5.952838e+000 -1.000000e+001 -2.221629e+001
      vertex  6.044553e+000 -1.000000e+001 -1.379630e+000
    endloop
  endfacet
  facet normal  0.000000e+000 -1.000000e+000  0.000000e+000
    outer loop
      vertex  2.816688e-015 -1.000000e+001 -2.300000e+001
      vertex  6.044553e+000 -1.000000e+001 -1.379630e+000
      vertex  4.847355e+000 -1.000000e+001 -3.865637e+000
    endloop
  endfacet
  facet normal  0.000000e+000 -1.000000e+000  0.000000e+000
    outer loop
      vertex  2.816688e-015 -1.000000e+001 -2.300000e+001
      vertex  4.847355e+000 -1.000000e+001 -3.865637e+000
      vertex  2.690079e+000 -1.000000e+001 -5.586007e+000
    endloop
  endfacet
  facet normal  0.000000e+000 -1.000000e+000  0.000000e+000
    outer loop
      vertex  2.816688e-015 -1.000000e+001 -2.300000e+001
      vertex  2.690079e+000 -1.000000e+001 -5.586007e+000
      vertex  7.592810e-016 -1.000000e+001 -6.200000e+000
    endloop
  endfacet
  facet normal  0.000000e+000 -1.000000e+000  0.000000e+000
    outer loop
      vertex -5.952838e+000 -1.000000e+001 -2.221629e+001
      vertex  2.816688e-015 -1.000000e+001 -2.300000e+001
      vertex  7.592810e-016 -1.000000e+001 -6.200000e+000
    endloop
  endfacet
  facet normal  -0.000000e+000 -1.000000e+000  0.000000e+000
    outer loop
      vertex -5.952838e+000 -1.000000e+001 -2.221629e+001
      vertex  7.592810e-016 -1.000000e+001 -6.200000e+000
      vertex -2.690079e+000 -1.000000e+001 -5.586007e+000
    endloop
  endfacet
  facet normal  -0.000000e+000 -1.000000e+000  0.000000e+000
    outer loop
      vertex -5.952838e+000 -1.000000e+001 -2.221629e+001
      vertex -2.690079e+000 -1.000000e+001 -5.586007e+000
      vertex -4.847355e+000 -1.000000e+001 -3.865637e+000
    endloop
  endfacet
  facet normal  -0.000000e+000 -9.999999e-001  0.000000e+000
    outer loop
      vertex -5.952838e+000 -1.000000e+001 -2.221629e+001
      vertex -4.847355e+000 -1.000000e+001 -3.865637e+000
      vertex -6.044553e+000 -1.000000e+001 -1.379630e+000
    endloop
  endfacet
  facet normal  0.000000e+000 -9.999999e-001  -0.000000e+000
    outer loop
      vertex -5.952838e+000 -1.000000e+001 -2.221629e+001
      vertex -6.044553e+000 -1.000000e+001 -1.379630e+000
      vertex -1.150000e+001 -1.000000e+001 -1.991858e+001
    endloop
  endfacet
  facet normal  0.000000e+000 -1.000000e+000  0.000000e+000
    outer loop
      vertex -2.300000e+001 -1.000000e+001 -4.225031e-015
      vertex -2.221629e+001 -1.000000e+001 -5.952838e+000
      vertex -1.991858e+001 -1.000000e+001 -1.150000e+001
    endloop
  endfacet
  facet normal  0.000000e+000 -1.000000e+000  0.000000e+000
    outer loop
      vertex -2.300000e+001 -1.000000e+001 -4.225031e-015
      vertex -1.991858e+001 -1.000000e+001 -1.150000e+001
      vertex -1.626346e+001 -1.000000e+001 -1.626346e+001
    endloop
  endfacet
  facet normal  0.000000e+000 -1.000000e+000  0.000000e+000
    outer loop
      vertex -2.300000e+001 -1.000000e+001 -4.225031e-015
      vertex -1.626346e+001 -1.000000e+001 -1.626346e+001
      vertex -1.150000e+001 -1.000000e+001 -1.991858e+001
    endloop
  endfacet
  facet normal  0.000000e+000 -1.000000e+000  0.000000e+000
    outer loop
      vertex -2.300000e+001 -1.000000e+001 -4.225031e-015
      vertex -1.150000e+001 -1.000000e+001 -1.991858e+001
      vertex -6.044553e+000 -1.000000e+001 -1.379630e+000
    endloop
  endfacet
  facet normal  0.000000e+000 -1.000000e+000  0.000000e+000
    outer loop
      vertex -2.300000e+001 -1.000000e+001 -4.225031e-015
      vertex -6.044553e+000 -1.000000e+001 -1.379630e+000
      vertex -6.044553e+000 -1.000000e+001  1.379630e+000
    endloop
  endfacet
  facet normal  -0.000000e+000 -1.000000e+000  0.000000e+000
    outer loop
      vertex -2.300000e+001 -1.000000e+001 -4.225031e-015
      vertex -6.044553e+000 -1.000000e+001  1.379630e+000
      vertex -1.150000e+001 -1.000000e+001  1.991858e+001
    endloop
  endfacet
  facet normal  0.000000e+000 -1.000000e+000  0.000000e+000
    outer loop
      vertex -2.300000e+001 -1.000000e+001 -4.225031e-015
      vertex -1.150000e+001 -1.000000e+001  1.991858e+001
      vertex -1.626346e+001 -1.000000e+001  1.626346e+001
    endloop
  endfacet
  facet normal  0.000000e+000 -1.000000e+000  0.000000e+000
    outer loop
      vertex -2.300000e+001 -1.000000e+001 -4.225031e-015
      vertex -1.626346e+001 -1.000000e+001  1.626346e+001
      vertex -1.991858e+001 -1.000000e+001  1.150000e+001
    endloop
  endfacet
  facet normal  0.000000e+000 -9.999999e-001  0.000000e+000
    outer loop
      vertex -2.300000e+001 -1.000000e+001 -4.225031e-015
      vertex -1.991858e+001 -1.000000e+001  1.150000e+001
      vertex -2.221629e+001 -1.000000e+001  5.952838e+000
    endloop
  endfacet
  facet normal  0.000000e+000 -9.999999e-001  0.000000e+000
    outer loop
      vertex  1.991858e+001 -1.000000e+001  1.150000e+001
      vertex  6.044553e+000 -1.000000e+001  1.379630e+000
      vertex  2.221629e+001 -1.000000e+001  5.952838e+000
    endloop
  endfacet
  facet normal  0.000000e+000 -1.000000e+000  0.000000e+000
    outer loop
      vertex  2.221629e+001 -1.000000e+001  5.952838e+000
      vertex  6.044553e+000 -1.000000e+001  1.379630e+000
      vertex  6.044553e+000 -1.000000e+001 -1.379630e+000
    endloop
  endfacet
  facet normal  0.000000e+000 -1.000000e+000  0.000000e+000
    outer loop
      vertex  2.221629e+001 -1.000000e+001  5.952838e+000
      vertex  6.044553e+000 -1.000000e+001 -1.379630e+000
      vertex  2.300000e+001 -1.000000e+001  1.408344e-015
    endloop
  endfacet
  facet normal  0.000000e+000 -1.000000e+000  0.000000e+000
    outer loop
      vertex  2.300000e+001 -1.000000e+001  1.408344e-015
      vertex  6.044553e+000 -1.000000e+001 -1.379630e+000
      vertex  1.150000e+001 -1.000000e+001 -1.991858e+001
    endloop
  endfacet
  facet normal  0.000000e+000 -1.000000e+000  0.000000e+000
    outer loop
      vertex  2.300000e+001 -1.000000e+001  1.408344e-015
      vertex  1.150000e+001 -1.000000e+001 -1.991858e+001
      vertex  2.221629e+001 -1.000000e+001 -5.952838e+000
    endloop
  endfacet
  facet normal  0.000000e+000 -1.000000e+000  0.000000e+000
    outer loop
      vertex  2.221629e+001 -1.000000e+001 -5.952838e+000
      vertex  1.150000e+001 -1.000000e+001 -1.991858e+001
      vertex  1.626346e+001 -1.000000e+001 -1.626346e+001
    endloop
  endfacet
  facet normal  0.000000e+000 -1.000000e+000  0.000000e+000
    outer loop
      vertex  2.221629e+001 -1.000000e+001 -5.952838e+000
      vertex  1.626346e+001 -1.000000e+001 -1.626346e+001
      vertex  1.991858e+001 -1.000000e+001 -1.150000e+001
    endloop
  endfacet
  facet normal  0.000000e+000 -9.999999e-001  0.000000e+000
    outer loop
      vertex  5.952838e+000 -1.000000e+001  2.221629e+001
      vertex  6.044553e+000 -1.000000e+001  1.379630e+000
      vertex  1.150000e+001 -1.000000e+001  1.991858e+001
    endloop
  endfacet
  facet normal  0.000000e+000 -1.000000e+000  -0.000000e+000
    outer loop
      vertex  1.150000e+001 -1.000000e+001  1.991858e+001
      vertex  6.044553e+000 -1.000000e+001  1.379630e+000
      vertex  1.991858e+001 -1.000000e+001  1.150000e+001
    endloop
  endfacet
  facet normal  0.000000e+000 -1.000000e+000  0.000000e+000
    outer loop
      vertex  1.150000e+001 -1.000000e+001  1.991858e+001
      vertex  1.991858e+001 -1.000000e+001  1.150000e+001
      vertex  1.626346e+001 -1.000000e+001  1.626346e+001
    endloop
  endfacet
  facet normal  0.000000e+000  9.999999e-001  0.000000e+000
    outer loop
      vertex  1.150000e+001  1.000000e+001 -1.991858e+001
      vertex  5.952838e+000  1.000000e+001 -2.221629e+001
      vertex  6.044553e+000  1.000000e+001 -1.379630e+000
    endloop
  endfacet
  facet normal  0.000000e+000  1.000000e+000  0.000000e+000
    outer loop
      vertex -5.952838e+000  1.000000e+001  2.221629e+001
      vertex -2.690079e+000  1.000000e+001  5.586007e+000
      vertex -4.847355e+000  1.000000e+001  3.865637e+000
    endloop
  endfacet
  facet normal  0.000000e+000  9.999999e-001  0.000000e+000
    outer loop
      vertex -4.847355e+000  1.000000e+001  3.865637e+000
      vertex -6.044553e+000  1.000000e+001  1.379630e+000
      vertex -5.952838e+000  1.000000e+001  2.221629e+001
    endloop
  endfacet
  facet normal  0.000000e+000  9.999999e-001  0.000000e+000
    outer loop
      vertex -1.150000e+001  1.000000e+001  1.991858e+001
      vertex -5.952838e+000  1.000000e+001  2.221629e+001
      vertex -6.044553e+000  1.000000e+001  1.379630e+000
    endloop
  endfacet
  facet normal  0.000000e+000  1.000000e+000  0.000000e+000
    outer loop
      vertex  0.000000e+000  1.000000e+001  2.300000e+001
      vertex  5.952838e+000  1.000000e+001  2.221629e+001
      vertex  6.044553e+000  1.000000e+001  1.379630e+000
    endloop
  endfacet
  facet normal  0.000000e+000  1.000000e+000  0.000000e+000
    outer loop
      vertex  0.000000e+000  1.000000e+001  2.300000e+001
      vertex  6.044553e+000  1.000000e+001  1.379630e+000
      vertex  4.847355e+000  1.000000e+001  3.865637e+000
    endloop
  endfacet
  facet normal  0.000000e+000  1.000000e+000  0.000000e+000
    outer loop
      vertex  0.000000e+000  1.000000e+001  2.300000e+001
      vertex  4.847355e+000  1.000000e+001  3.865637e+000
      vertex  2.690079e+000  1.000000e+001  5.586007e+000
    endloop
  endfacet
  facet normal  0.000000e+000  1.000000e+000  0.000000e+000
    outer loop
      vertex  0.000000e+000  1.000000e+001  2.300000e+001
      vertex  2.690079e+000  1.000000e+001  5.586007e+000
      vertex  0.000000e+000  1.000000e+001  6.200000e+000
    endloop
  endfacet
  facet normal  0.000000e+000  1.000000e+000  -0.000000e+000
    outer loop
      vertex  0.000000e+000  1.000000e+001  2.300000e+001
      vertex  0.000000e+000  1.000000e+001  6.200000e+000
      vertex -2.690079e+000  1.000000e+001  5.586007e+000
    endloop
  endfacet
  facet normal  0.000000e+000  1.000000e+000  -0.000000e+000
    outer loop
      vertex  0.000000e+000  1.000000e+001  2.300000e+001
      vertex -2.690079e+000  1.000000e+001  5.586007e+000
      vertex -5.952838e+000  1.000000e+001  2.221629e+001
    endloop
  endfacet
  facet normal  -0.000000e+000  1.000000e+000  0.000000e+000
    outer loop
      vertex  2.816688e-015  1.000000e+001 -2.300000e+001
      vertex  7.592810e-016  1.000000e+001 -6.200000e+000
      vertex  2.690079e+000  1.000000e+001 -5.586007e+000
    endloop
  endfacet
  facet normal  -0.000000e+000  1.000000e+000  0.000000e+000
    outer loop
      vertex  2.816688e-015  1.000000e+001 -2.300000e+001
      vertex  2.690079e+000  1.000000e+001 -5.586007e+000
      vertex  4.847355e+000  1.000000e+001 -3.865637e+000
    endloop
  endfacet
  facet normal  -0.000000e+000  1.000000e+000  0.000000e+000
    outer loop
      vertex  2.816688e-015  1.000000e+001 -2.300000e+001
      vertex  4.847355e+000  1.000000e+001 -3.865637e+000
      vertex  6.044553e+000  1.000000e+001 -1.379630e+000
    endloop
  endfacet
  facet normal  0.000000e+000  1.000000e+000  0.000000e+000
    outer loop
      vertex  2.816688e-015  1.000000e+001 -2.300000e+001
      vertex  6.044553e+000  1.000000e+001 -1.379630e+000
      vertex  5.952838e+000  1.000000e+001 -2.221629e+001
    endloop
  endfacet
  facet normal  -0.000000e+000  9.999999e-001  0.000000e+000
    outer loop
      vertex -5.952838e+000  1.000000e+001 -2.221629e+001
      vertex -1.150000e+001  1.000000e+001 -1.991858e+001
      vertex -6.044553e+000  1.000000e+001 -1.379630e+000
    endloop
  endfacet
  facet normal  0.000000e+000  9.999999e-001  0.000000e+000
    outer loop
      vertex -5.952838e+000  1.000000e+001 -2.221629e+001
      vertex -6.044553e+000  1.000000e+001 -1.379630e+000
      vertex -4.847355e+000  1.000000e+001 -3.865637e+000
    endloop
  endfacet
  facet normal  0.000000e+000  1.000000e+000  0.000000e+000
    outer loop
      vertex -5.952838e+000  1.000000e+001 -2.221629e+001
      vertex -4.847355e+000  1.000000e+001 -3.865637e+000
      vertex -2.690079e+000  1.000000e+001 -5.586007e+000
    endloop
  endfacet
  facet normal  0.000000e+000  1.000000e+000  0.000000e+000
    outer loop
      vertex -5.952838e+000  1.000000e+001 -2.221629e+001
      vertex -2.690079e+000  1.000000e+001 -5.586007e+000
      vertex  7.592810e-016  1.000000e+001 -6.200000e+000
    endloop
  endfacet
  facet normal  0.000000e+000  1.000000e+000  0.000000e+000
    outer loop
      vertex -5.952838e+000  1.000000e+001 -2.221629e+001
      vertex  7.592810e-016  1.000000e+001 -6.200000e+000
      vertex  2.816688e-015  1.000000e+001 -2.300000e+001
    endloop
  endfacet
  facet normal  -0.000000e+000  1.000000e+000  0.000000e+000
    outer loop
      vertex -2.300000e+001  1.000000e+001 -4.225031e-015
      vertex -2.221629e+001  1.000000e+001  5.952838e+000
      vertex -1.991858e+001  1.000000e+001  1.150000e+001
    endloop
  endfacet
  facet normal  -0.000000e+000  1.000000e+000  0.000000e+000
    outer loop
      vertex -2.300000e+001  1.000000e+001 -4.225031e-015
      vertex -1.991858e+001  1.000000e+001  1.150000e+001
      vertex -1.626346e+001  1.000000e+001  1.626346e+001
    endloop
  endfacet
  facet normal  -0.000000e+000  1.000000e+000  0.000000e+000
    outer loop
      vertex -2.300000e+001  1.000000e+001 -4.225031e-015
      vertex -1.626346e+001  1.000000e+001  1.626346e+001
      vertex -1.150000e+001  1.000000e+001  1.991858e+001
    endloop
  endfacet
  facet normal  0.000000e+000  1.000000e+000  0.000000e+000
    outer loop
      vertex -2.300000e+001  1.000000e+001 -4.225031e-015
      vertex -1.150000e+001  1.000000e+001  1.991858e+001
      vertex -6.044553e+000  1.000000e+001  1.379630e+000
    endloop
  endfacet
  facet normal  0.000000e+000  1.000000e+000  0.000000e+000
    outer loop
      vertex -2.300000e+001  1.000000e+001 -4.225031e-015
      vertex -6.044553e+000  1.000000e+001  1.379630e+000
      vertex -6.044553e+000  1.000000e+001 -1.379630e+000
    endloop
  endfacet
  facet normal  0.000000e+000  1.000000e+000  0.000000e+000
    outer loop
      vertex -2.300000e+001  1.000000e+001 -4.225031e-015
      vertex -6.044553e+000  1.000000e+001 -1.379630e+000
      vertex -1.150000e+001  1.000000e+001 -1.991858e+001
    endloop
  endfacet
  facet normal  0.000000e+000  1.000000e+000  0.000000e+000
    outer loop
      vertex -2.300000e+001  1.000000e+001 -4.225031e-015
      vertex -1.150000e+001  1.000000e+001 -1.991858e+001
      vertex -1.626346e+001  1.000000e+001 -1.626346e+001
    endloop
  endfacet
  facet normal  0.000000e+000  1.000000e+000  0.000000e+000
    outer loop
      vertex -2.300000e+001  1.000000e+001 -4.225031e-015
      vertex -1.626346e+001  1.000000e+001 -1.626346e+001
      vertex -1.991858e+001  1.000000e+001 -1.150000e+001
    endloop
  endfacet
  facet normal  0.000000e+000  9.999999e-001  0.000000e+000
    outer loop
      vertex -2.300000e+001  1.000000e+001 -4.225031e-015
      vertex -1.991858e+001  1.000000e+001 -1.150000e+001
      vertex -2.221629e+001  1.000000e+001 -5.952838e+000
    endloop
  endfacet
  facet normal  0.000000e+000  1.000000e+000  0.000000e+000
    outer loop
      vertex  1.991858e+001  1.000000e+001 -1.150000e+001
      vertex  1.626346e+001  1.000000e+001 -1.626346e+001
      vertex  2.221629e+001  1.000000e+001 -5.952838e+000
    endloop
  endfacet
  facet normal  0.000000e+000  1.000000e+000  0.000000e+000
    outer loop
      vertex  2.221629e+001  1.000000e+001 -5.952838e+000
      vertex  1.626346e+001  1.000000e+001 -1.626346e+001
      vertex  1.150000e+001  1.000000e+001 -1.991858e+001
    endloop
  endfacet
  facet normal  0.000000e+000  1.000000e+000  0.000000e+000
    outer loop
      vertex  2.221629e+001  1.000000e+001 -5.952838e+000
      vertex  1.150000e+001  1.000000e+001 -1.991858e+001
      vertex  2.300000e+001  1.000000e+001  1.408344e-015
    endloop
  endfacet
  facet normal  0.000000e+000  1.000000e+000  0.000000e+000
    outer loop
      vertex  2.300000e+001  1.000000e+001  1.408344e-015
      vertex  1.150000e+001  1.000000e+001 -1.991858e+001
      vertex  6.044553e+000  1.000000e+001 -1.379630e+000
    endloop
  endfacet
  facet normal  0.000000e+000  1.000000e+000  0.000000e+000
    outer loop
      vertex  2.300000e+001  1.000000e+001  1.408344e-015
      vertex  6.044553e+000  1.000000e+001 -1.379630e+000
      vertex  2.221629e+001  1.000000e+001  5.952838e+000
    endloop
  endfacet
  facet normal  0.000000e+000  1.000000e+000  0.000000e+000
    outer loop
      vertex  2.221629e+001  1.000000e+001  5.952838e+000
      vertex  6.044553e+000  1.000000e+001 -1.379630e+000
      vertex  6.044553e+000  1.000000e+001  1.379630e+000
    endloop
  endfacet
  facet normal  0.000000e+000  9.999999e-001  0.000000e+000
    outer loop
      vertex  2.221629e+001  1.000000e+001  5.952838e+000
      vertex  6.044553e+000  1.000000e+001  1.379630e+000
      vertex  1.991858e+001  1.000000e+001  1.150000e+001
    endloop
  endfacet
  facet normal  0.000000e+000  1.000000e+000  0.000000e+000
    outer loop
      vertex  1.626346e+001  1.000000e+001  1.626346e+001
      vertex  1.991858e+001  1.000000e+001  1.150000e+001
      vertex  1.150000e+001  1.000000e+001  1.991858e+001
    endloop
  endfacet
  facet normal  0.000000e+000  1.000000e+000  0.000000e+000
    outer loop
      vertex  1.150000e+001  1.000000e+001  1.991858e+001
      vertex  1.991858e+001  1.000000e+001  1.150000e+001
      vertex  6.044553e+000  1.000000e+001  1.379630e+000
    endloop
  endfacet
  facet normal  0.000000e+000  9.999999e-001  -0.000000e+000
    outer loop
      vertex  1.150000e+001  1.000000e+001  1.991858e+001
      vertex  6.044553e+000  1.000000e+001  1.379630e+000
      vertex  5.952838e+000  1.000000e+001  2.221629e+001
    endloop
  endfacet
  facet normal -9.009688e-001  0.000000e+000  4.338837e-001
    outer loop
      vertex  6.044553e+000 -1.000000e+001 -1.379630e+000
      vertex  4.847355e+000  1.000000e+001 -3.865637e+000
      vertex  4.847355e+000 -1.000000e+001 -3.865637e+000
    endloop
  endfacet
  facet normal -6.234897e-001  0.000000e+000  7.818314e-001
    outer loop
      vertex  4.847355e+000 -1.000000e+001 -3.865637e+000
      vertex  4.847355e+000  1.000000e+001 -3.865637e+000
      vertex  2.690079e+000  1.000000e+001 -5.586007e+000
    endloop
  endfacet
  facet normal -6.234897e-001  0.000000e+000  7.818314e-001
    outer loop
      vertex  4.847355e+000 -1.000000e+001 -3.865637e+000
      vertex  2.690079e+000  1.000000e+001 -5.586007e+000
      vertex  2.690079e+000 -1.000000e+001 -5.586007e+000
    endloop
  endfacet
  facet normal -2.225208e-001  0.000000e+000  9.749278e-001
    outer loop
      vertex  2.690079e+000 -1.000000e+001 -5.586007e+000
      vertex  2.690079e+000  1.000000e+001 -5.586007e+000
      vertex  7.592810e-016  1.000000e+001 -6.200000e+000
    endloop
  endfacet
  facet normal -2.225208e-001  0.000000e+000  9.749278e-001
    outer loop
      vertex  2.690079e+000 -1.000000e+001 -5.586007e+000
      vertex  7.592810e-016  1.000000e+001 -6.200000e+000
      vertex  7.592810e-016 -1.000000e+001 -6.200000e+000
    endloop
  endfacet
  facet normal -9.009688e-001  0.000000e+000  4.338837e-001
    outer loop
      vertex  4.847355e+000  1.000000e+001 -3.865637e+000
      vertex  6.044553e+000 -1.000000e+001 -1.379630e+000
      vertex  6.044553e+000  1.000000e+001 -1.379630e+000
    endloop
  endfacet
  facet normal -1.000000e+000  0.000000e+000  0.000000e+000
    outer loop
      vertex  6.044553e+000  1.000000e+001 -1.379630e+000
      vertex  6.044553e+000 -1.000000e+001 -1.379630e+000
      vertex  6.044553e+000 -1.000000e+001  1.379630e+000
    endloop
  endfacet
  facet normal -1.000000e+000  0.000000e+000  0.000000e+000
    outer loop
      vertex  6.044553e+000  1.000000e+001 -1.379630e+000
      vertex  6.044553e+000 -1.000000e+001  1.379630e+000
      vertex  6.044553e+000  1.000000e+001  1.379630e+000
    endloop
  endfacet
  facet normal -9.009688e-001  -0.000000e+000 -4.338837e-001
    outer loop
      vertex  6.044553e+000  1.000000e+001  1.379630e+000
      vertex  6.044553e+000 -1.000000e+001  1.379630e+000
      vertex  4.847355e+000 -1.000000e+001  3.865637e+000
    endloop
  endfacet
  facet normal -9.009688e-001  0.000000e+000 -4.338837e-001
    outer loop
      vertex  6.044553e+000  1.000000e+001  1.379630e+000
      vertex  4.847355e+000 -1.000000e+001  3.865637e+000
      vertex  4.847355e+000  1.000000e+001  3.865637e+000
    endloop
  endfacet
  facet normal -6.234897e-001  -0.000000e+000 -7.818314e-001
    outer loop
      vertex  4.847355e+000  1.000000e+001  3.865637e+000
      vertex  4.847355e+000 -1.000000e+001  3.865637e+000
      vertex  2.690079e+000 -1.000000e+001  5.586007e+000
    endloop
  endfacet
  facet normal -6.234897e-001  0.000000e+000 -7.818314e-001
    outer loop
      vertex  4.847355e+000  1.000000e+001  3.865637e+000
      vertex  2.690079e+000 -1.000000e+001  5.586007e+000
      vertex  2.690079e+000  1.000000e+001  5.586007e+000
    endloop
  endfacet
  facet normal -2.225208e-001  -0.000000e+000 -9.749278e-001
    outer loop
      vertex  2.690079e+000  1.000000e+001  5.586007e+000
      vertex  2.690079e+000 -1.000000e+001  5.586007e+000
      vertex  0.000000e+000 -1.000000e+001  6.200000e+000
    endloop
  endfacet
  facet normal -2.225208e-001  0.000000e+000 -9.749278e-001
    outer loop
      vertex  2.690079e+000  1.000000e+001  5.586007e+000
      vertex  0.000000e+000 -1.000000e+001  6.200000e+000
      vertex  0.000000e+000  1.000000e+001  6.200000e+000
    endloop
  endfacet
  facet normal  9.009688e-001  0.000000e+000 -4.338837e-001
    outer loop
      vertex -6.044553e+000 -1.000000e+001  1.379630e+000
      vertex -4.847355e+000  1.000000e+001  3.865637e+000
      vertex -4.847355e+000 -1.000000e+001  3.865637e+000
    endloop
  endfacet
  facet normal  6.234897e-001  0.000000e+000 -7.818314e-001
    outer loop
      vertex -4.847355e+000 -1.000000e+001  3.865637e+000
      vertex -4.847355e+000  1.000000e+001  3.865637e+000
      vertex -2.690079e+000  1.000000e+001  5.586007e+000
    endloop
  endfacet
  facet normal  6.234897e-001  0.000000e+000 -7.818314e-001
    outer loop
      vertex -4.847355e+000 -1.000000e+001  3.865637e+000
      vertex -2.690079e+000  1.000000e+001  5.586007e+000
      vertex -2.690079e+000 -1.000000e+001  5.586007e+000
    endloop
  endfacet
  facet normal  2.225208e-001  0.000000e+000 -9.749278e-001
    outer loop
      vertex -2.690079e+000 -1.000000e+001  5.586007e+000
      vertex -2.690079e+000  1.000000e+001  5.586007e+000
      vertex  0.000000e+000  1.000000e+001  6.200000e+000
    endloop
  endfacet
  facet normal  2.225208e-001  0.000000e+000 -9.749278e-001
    outer loop
      vertex -2.690079e+000 -1.000000e+001  5.586007e+000
      vertex  0.000000e+000  1.000000e+001  6.200000e+000
      vertex  0.000000e+000 -1.000000e+001  6.200000e+000
    endloop
  endfacet
  facet normal  9.009688e-001  0.000000e+000 -4.338837e-001
    outer loop
      vertex -4.847355e+000  1.000000e+001  3.865637e+000
      vertex -6.044553e+000 -1.000000e+001  1.379630e+000
      vertex -6.044553e+000  1.000000e+001  1.379630e+000
    endloop
  endfacet
  facet normal  1.000000e+000  0.000000e+000  0.000000e+000
    outer loop
      vertex -6.044553e+000  1.000000e+001  1.379630e+000
      vertex -6.044553e+000 -1.000000e+001  1.379630e+000
      vertex -6.044553e+000 -1.000000e+001 -1.379630e+000
    endloop
  endfacet
  facet normal  1.000000e+000  0.000000e+000  0.000000e+000
    outer loop
      vertex -6.044553e+000  1.000000e+001  1.379630e+000
      vertex -6.044553e+000 -1.000000e+001 -1.379630e+000
      vertex -6.044553e+000  1.000000e+001 -1.379630e+000
    endloop
  endfacet
  facet normal  9.009688e-001  0.000000e+000  4.338837e-001
    outer loop
      vertex -6.044553e+000  1.000000e+001 -1.379630e+000
      vertex -6.044553e+000 -1.000000e+001 -1.379630e+000
      vertex -4.847355e+000 -1.000000e+001 -3.865637e+000
    endloop
  endfacet
  facet normal  9.009688e-001  -0.000000e+000  4.338837e-001
    outer loop
      vertex -6.044553e+000  1.000000e+001 -1.379630e+000
      vertex -4.847355e+000 -1.000000e+001 -3.865637e+000
      vertex -4.847355e+000  1.000000e+001 -3.865637e+000
    endloop
  endfacet
  facet normal  6.234897e-001  0.000000e+000  7.818314e-001
    outer loop
      vertex -4.847355e+000  1.000000e+001 -3.865637e+000
      vertex -4.847355e+000 -1.000000e+001 -3.865637e+000
      vertex -2.690079e+000 -1.000000e+001 -5.586007e+000
    endloop
  endfacet
  facet normal  6.234897e-001  -0.000000e+000  7.818314e-001
    outer loop
      vertex -4.847355e+000  1.000000e+001 -3.865637e+000
      vertex -2.690079e+000 -1.000000e+001 -5.586007e+000
      vertex -2.690079e+000  1.000000e+001 -5.586007e+000
    endloop
  endfacet
  facet normal  2.225208e-001  0.000000e+000  9.749278e-001
    outer loop
      vertex -2.690079e+000  1.000000e+001 -5.586007e+000
      vertex -2.690079e+000 -1.000000e+001 -5.586007e+000
      vertex  7.592810e-016 -1.000000e+001 -6.200000e+000
    endloop
  endfacet
  facet normal  2.225208e-001  -0.000000e+000  9.749278e-001
    outer loop
      vertex -2.690079e+000  1.000000e+001 -5.586007e+000
      vertex  7.592810e-016 -1.000000e+001 -6.200000e+000
      vertex  7.592810e-016  1.000000e+001 -6.200000e+000
    endloop
  endfacet
  facet normal -1.305263e-001  0.000000e+000  9.914448e-001
    outer loop
      vertex  0.000000e+000 -1.000000e+001  2.300000e+001
      vertex  0.000000e+000  1.000000e+001  2.300000e+001
      vertex -5.952838e+000 -1.000000e+001  2.221629e+001
    endloop
  endfacet
  facet normal -1.305263e-001  0.000000e+000  9.914448e-001
    outer loop
      vertex -5.952838e+000 -1.000000e+001  2.221629e+001
      vertex  0.000000e+000  1.000000e+001  2.300000e+001
      vertex -5.952838e+000  1.000000e+001  2.221629e+001
    endloop
  endfacet
  facet normal -3.826833e-001  0.000000e+000  9.238796e-001
    outer loop
      vertex -5.952838e+000 -1.000000e+001  2.221629e+001
      vertex -5.952838e+000  1.000000e+001  2.221629e+001
      vertex -1.150000e+001 -1.000000e+001  1.991858e+001
    endloop
  endfacet
  facet normal -3.826833e-001  0.000000e+000  9.238796e-001
    outer loop
      vertex -1.150000e+001 -1.000000e+001  1.991858e+001
      vertex -5.952838e+000  1.000000e+001  2.221629e+001
      vertex -1.150000e+001  1.000000e+001  1.991858e+001
    endloop
  endfacet
  facet normal -6.087614e-001  0.000000e+000  7.933534e-001
    outer loop
      vertex -1.150000e+001 -1.000000e+001  1.991858e+001
      vertex -1.150000e+001  1.000000e+001  1.991858e+001
      vertex -1.626346e+001 -1.000000e+001  1.626346e+001
    endloop
  endfacet
  facet normal -6.087614e-001  0.000000e+000  7.933534e-001
    outer loop
      vertex -1.626346e+001 -1.000000e+001  1.626346e+001
      vertex -1.150000e+001  1.000000e+001  1.991858e+001
      vertex -1.626346e+001  1.000000e+001  1.626346e+001
    endloop
  endfacet
  facet normal -7.933534e-001  0.000000e+000  6.087614e-001
    outer loop
      vertex -1.626346e+001 -1.000000e+001  1.626346e+001
      vertex -1.626346e+001  1.000000e+001  1.626346e+001
      vertex -1.991858e+001 -1.000000e+001  1.150000e+001
    endloop
  endfacet
  facet normal -7.933534e-001  0.000000e+000  6.087614e-001
    outer loop
      vertex -1.991858e+001 -1.000000e+001  1.150000e+001
      vertex -1.626346e+001  1.000000e+001  1.626346e+001
      vertex -1.991858e+001  1.000000e+001  1.150000e+001
    endloop
  endfacet
  facet normal -9.238796e-001  0.000000e+000  3.826833e-001
    outer loop
      vertex -1.991858e+001 -1.000000e+001  1.150000e+001
      vertex -1.991858e+001  1.000000e+001  1.150000e+001
      vertex -2.221629e+001 -1.000000e+001  5.952838e+000
    endloop
  endfacet
  facet normal -9.238796e-001  0.000000e+000  3.826833e-001
    outer loop
      vertex -2.221629e+001 -1.000000e+001  5.952838e+000
      vertex -1.991858e+001  1.000000e+001  1.150000e+001
      vertex -2.221629e+001  1.000000e+001  5.952838e+000
    endloop
  endfacet
  facet normal -9.914448e-001  0.000000e+000  1.305263e-001
    outer loop
      vertex -2.221629e+001 -1.000000e+001  5.952838e+000
      vertex -2.221629e+001  1.000000e+001  5.952838e+000
      vertex -2.300000e+001 -1.000000e+001 -4.225031e-015
    endloop
  endfacet
  facet normal -9.914448e-001  0.000000e+000  1.305263e-001
    outer loop
      vertex -2.300000e+001 -1.000000e+001 -4.225031e-015
      vertex -2.221629e+001  1.000000e+001  5.952838e+000
      vertex -2.300000e+001  1.000000e+001 -4.225031e-015
    endloop
  endfacet
  facet normal -9.914448e-001  -0.000000e+000 -1.305263e-001
    outer loop
      vertex -2.300000e+001 -1.000000e+001 -4.225031e-015
      vertex -2.300000e+001  1.000000e+001 -4.225031e-015
      vertex -2.221629e+001 -1.000000e+001 -5.952838e+000
    endloop
  endfacet
  facet normal -9.914448e-001  0.000000e+000 -1.305263e-001
    outer loop
      vertex -2.221629e+001 -1.000000e+001 -5.952838e+000
      vertex -2.300000e+001  1.000000e+001 -4.225031e-015
      vertex -2.221629e+001  1.000000e+001 -5.952838e+000
    endloop
  endfacet
  facet normal -9.238796e-001  -0.000000e+000 -3.826833e-001
    outer loop
      vertex -2.221629e+001 -1.000000e+001 -5.952838e+000
      vertex -2.221629e+001  1.000000e+001 -5.952838e+000
      vertex -1.991858e+001 -1.000000e+001 -1.150000e+001
    endloop
  endfacet
  facet normal -9.238796e-001  0.000000e+000 -3.826833e-001
    outer loop
      vertex -1.991858e+001 -1.000000e+001 -1.150000e+001
      vertex -2.221629e+001  1.000000e+001 -5.952838e+000
      vertex -1.991858e+001  1.000000e+001 -1.150000e+001
    endloop
  endfacet
  facet normal -7.933534e-001  -0.000000e+000 -6.087614e-001
    outer loop
      vertex -1.991858e+001 -1.000000e+001 -1.150000e+001
      vertex -1.991858e+001  1.000000e+001 -1.150000e+001
      vertex -1.626346e+001 -1.000000e+001 -1.626346e+001
    endloop
  endfacet
  facet normal -7.933534e-001  0.000000e+000 -6.087614e-001
    outer loop
      vertex -1.626346e+001 -1.000000e+001 -1.626346e+001
      vertex -1.991858e+001  1.000000e+001 -1.150000e+001
      vertex -1.626346e+001  1.000000e+001 -1.626346e+001
    endloop
  endfacet
  facet normal -6.087614e-001  -0.000000e+000 -7.933534e-001
    outer loop
      vertex -1.626346e+001 -1.000000e+001 -1.626346e+001
      vertex -1.626346e+001  1.000000e+001 -1.626346e+001
      vertex -1.150000e+001 -1.000000e+001 -1.991858e+001
    endloop
  endfacet
  facet normal -6.087614e-001  0.000000e+000 -7.933534e-001
    outer loop
      vertex -1.150000e+001 -1.000000e+001 -1.991858e+001
      vertex -1.626346e+001  1.000000e+001 -1.626346e+001
      vertex -1.150000e+001  1.000000e+001 -1.991858e+001
    endloop
  endfacet
  facet normal -3.826833e-001  -0.000000e+000 -9.238796e-001
    outer loop
      vertex -1.150000e+001 -1.000000e+001 -1.991858e+001
      vertex -1.150000e+001  1.000000e+001 -1.991858e+001
      vertex -5.952838e+000 -1.000000e+001 -2.221629e+001
    endloop
  endfacet
  facet normal -3.826833e-001  0.000000e+000 -9.238796e-001
    outer loop
      vertex -5.952838e+000 -1.000000e+001 -2.221629e+001
      vertex -1.150000e+001  1.000000e+001 -1.991858e+001
      vertex -5.952838e+000  1.000000e+001 -2.221629e+001
    endloop
  endfacet
  facet normal -1.305263e-001  -0.000000e+000 -9.914448e-001
    outer loop
      vertex -5.952838e+000 -1.000000e+001 -2.221629e+001
      vertex -5.952838e+000  1.000000e+001 -2.221629e+001
      vertex  2.816688e-015 -1.000000e+001 -2.300000e+001
    endloop
  endfacet
  facet normal -1.305263e-001  0.000000e+000 -9.914448e-001
    outer loop
      vertex  2.816688e-015 -1.000000e+001 -2.300000e+001
      vertex -5.952838e+000  1.000000e+001 -2.221629e+001
      vertex  2.816688e-015  1.000000e+001 -2.300000e+001
    endloop
  endfacet
  facet normal  1.305263e-001  0.000000e+000 -9.914448e-001
    outer loop
      vertex  2.816688e-015 -1.000000e+001 -2.300000e+001
      vertex  2.816688e-015  1.000000e+001 -2.300000e+001
      vertex  5.952838e+000 -1.000000e+001 -2.221629e+001
    endloop
  endfacet
  facet normal  1.305263e-001  0.000000e+000 -9.914448e-001
    outer loop
      vertex  5.952838e+000 -1.000000e+001 -2.221629e+001
      vertex  2.816688e-015  1.000000e+001 -2.300000e+001
      vertex  5.952838e+000  1.000000e+001 -2.221629e+001
    endloop
  endfacet
  facet normal  3.826833e-001  0.000000e+000 -9.238796e-001
    outer loop
      vertex  5.952838e+000 -1.000000e+001 -2.221629e+001
      vertex  5.952838e+000  1.000000e+001 -2.221629e+001
      vertex  1.150000e+001 -1.000000e+001 -1.991858e+001
    endloop
  endfacet
  facet normal  3.826833e-001  0.000000e+000 -9.238796e-001
    outer loop
      vertex  1.150000e+001 -1.000000e+001 -1.991858e+001
      vertex  5.952838e+000  1.000000e+001 -2.221629e+001
      vertex  1.150000e+001  1.000000e+001 -1.991858e+001
    endloop
  endfacet
  facet normal  6.087614e-001  0.000000e+000 -7.933534e-001
    outer loop
      vertex  1.150000e+001 -1.000000e+001 -1.991858e+001
      vertex  1.150000e+001  1.000000e+001 -1.991858e+001
      vertex  1.626346e+001 -1.000000e+001 -1.626346e+001
    endloop
  endfacet
  facet normal  6.087614e-001  0.000000e+000 -7.933534e-001
    outer loop
      vertex  1.626346e+001 -1.000000e+001 -1.626346e+001
      vertex  1.150000e+001  1.000000e+001 -1.991858e+001
      vertex  1.626346e+001  1.000000e+001 -1.626346e+001
    endloop
  endfacet
  facet normal  7.933534e-001  0.000000e+000 -6.087614e-001
    outer loop
      vertex  1.626346e+001 -1.000000e+001 -1.626346e+001
      vertex  1.626346e+001  1.000000e+001 -1.626346e+001
      vertex  1.991858e+001 -1.000000e+001 -1.150000e+001
    endloop
  endfacet
  facet normal  7.933534e-001  0.000000e+000 -6.087614e-001
    outer loop
      vertex  1.991858e+001 -1.000000e+001 -1.150000e+001
      vertex  1.626346e+001  1.000000e+001 -1.626346e+001
      vertex  1.991858e+001  1.000000e+001 -1.150000e+001
    endloop
  endfacet
  facet normal  9.238796e-001  0.000000e+000 -3.826833e-001
    outer loop
      vertex  1.991858e+001 -1.000000e+001 -1.150000e+001
      vertex  1.991858e+001  1.000000e+001 -1.150000e+001
      vertex  2.221629e+001 -1.000000e+001 -5.952838e+000
    endloop
  endfacet
  facet normal  9.238796e-001  0.000000e+000 -3.826833e-001
    outer loop
      vertex  2.221629e+001 -1.000000e+001 -5.952838e+000
      vertex  1.991858e+001  1.000000e+001 -1.150000e+001
      vertex  2.221629e+001  1.000000e+001 -5.952838e+000
    endloop
  endfacet
  facet normal  9.914448e-001  0.000000e+000 -1.305263e-001
    outer loop
      vertex  2.221629e+001 -1.000000e+001 -5.952838e+000
      vertex  2.221629e+001  1.000000e+001 -5.952838e+000
      vertex  2.300000e+001 -1.000000e+001  1.408344e-015
    endloop
  endfacet
  facet normal  9.914448e-001  0.000000e+000 -1.305263e-001
    outer loop
      vertex  2.300000e+001 -1.000000e+001  1.408344e-015
      vertex  2.221629e+001  1.000000e+001 -5.952838e+000
      vertex  2.300000e+001  1.000000e+001  1.408344e-015
    endloop
  endfacet
  facet normal  9.914448e-001  0.000000e+000  1.305263e-001
    outer loop
      vertex  2.300000e+001 -1.000000e+001  1.408344e-015
      vertex  2.300000e+001  1.000000e+001  1.408344e-015
      vertex  2.221629e+001 -1.000000e+001  5.952838e+000
    endloop
  endfacet
  facet normal  9.914448e-001  -0.000000e+000  1.305263e-001
    outer loop
      vertex  2.221629e+001 -1.000000e+001  5.952838e+000
      vertex  2.300000e+001  1.000000e+001  1.408344e-015
      vertex  2.221629e+001  1.000000e+001  5.952838e+000
    endloop
  endfacet
  facet normal  9.238796e-001  0.000000e+000  3.826833e-001
    outer loop
      vertex  2.221629e+001 -1.000000e+001  5.952838e+000
      vertex  2.221629e+001  1.000000e+001  5.952838e+000
      vertex  1.991858e+001 -1.000000e+001  1.150000e+001
    endloop
  endfacet
  facet normal  9.238796e-001  -0.000000e+000  3.826833e-001
    outer loop
      vertex  1.991858e+001 -1.000000e+001  1.150000e+001
      vertex  2.221629e+001  1.000000e+001  5.952838e+000
      vertex  1.991858e+001  1.000000e+001  1.150000e+001
    endloop
  endfacet
  facet normal  7.933534e-001  0.000000e+000  6.087614e-001
    outer loop
      vertex  1.991858e+001 -1.000000e+001  1.150000e+001
      vertex  1.991858e+001  1.000000e+001  1.150000e+001
      vertex  1.626346e+001 -1.000000e+001  1.626346e+001
    endloop
  endfacet
  facet normal  7.933534e-001  -0.000000e+000  6.087614e-001
    outer loop
      vertex  1.626346e+001 -1.000000e+001  1.626346e+001
      vertex  1.991858e+001  1.000000e+001  1.150000e+001
      vertex  1.626346e+001  1.000000e+001  1.626346e+001
    endloop
  endfacet
  facet normal  6.087614e-001  0.000000e+000  7.933534e-001
    outer loop
      vertex  1.626346e+001 -1.000000e+001  1.626346e+001
      vertex  1.626346e+001  1.000000e+001  1.626346e+001
      vertex  1.150000e+001 -1.000000e+001  1.991858e+001
    endloop
  endfacet
  facet normal  6.087614e-001  -0.000000e+000  7.933534e-001
    outer loop
      vertex  1.150000e+001 -1.000000e+001  1.991858e+001
      vertex  1.626346e+001  1.000000e+001  1.626346e+001
      vertex  1.150000e+001  1.000000e+001  1.991858e+001
    endloop
  endfacet
  facet normal  3.826833e-001  0.000000e+000  9.238796e-001
    outer loop
      vertex  1.150000e+001 -1.000000e+001  1.991858e+001
      vertex  1.150000e+001  1.000000e+001  1.991858e+001
      vertex  5.952838e+000 -1.000000e+001  2.221629e+001
    endloop
  endfacet
  facet normal  3.826833e-001  -0.000000e+000  9.238796e-001
    outer loop
      vertex  5.952838e+000 -1.000000e+001  2.221629e+001
      vertex  1.150000e+001  1.000000e+001  1.991858e+001
      vertex  5.952838e+000  1.000000e+001  2.221629e+001
    endloop
  endfacet
  facet normal  1.305263e-001  0.000000e+000  9.914448e-001
    outer loop
      vertex  5.952838e+000 -1.000000e+001  2.221629e+001
      vertex  5.952838e+000  1.000000e+001  2.221629e+001
      vertex  0.000000e+000 -1.000000e+001  2.300000e+001
    endloop
  endfacet
  facet normal  1.305263e-001  -0.000000e+000  9.914448e-001
    outer loop
      vertex  0.000000e+000 -1.000000e+001  2.300000e+001
      vertex  5.952838e+000  1.000000e+001  2.221629e+001
      vertex  0.000000e+000  1.000000e+001  2.300000e+001
    endloop
  endfacet
endsolid CATIA STL
